<svg width="177" height="178" viewBox="0 0 177 178" fill="none" xmlns="http://www.w3.org/2000/svg">
<g opacity="0.1">
<path d="M154.975 73.2441C153.131 71.9732 151.057 71.0397 148.849 70.4837C148.021 70.3582 147.207 70.1706 146.415 69.9216C145.659 69.5952 144.834 69.4232 143.994 69.4173C143.154 69.41 142.312 69.5685 141.521 69.8819C140.67 70.2915 139.784 70.6221 138.874 70.8685C138.334 70.9334 137.819 71.1488 137.387 71.487C136.957 71.8258 136.63 72.2755 136.446 72.7801C136.049 73.6662 135.51 74.5785 135.127 75.4194C134.744 76.2603 134.301 76.3475 133.628 75.9674C132.955 75.5872 132.816 75.893 132.502 76.3748C132.241 76.6742 131.886 76.8796 131.496 76.9566C129.56 77.3264 127.594 77.5438 125.676 77.9784C122.983 78.44 120.264 78.649 117.556 78.6038C116.114 78.6686 114.733 78.3603 113.255 78.2587C110.682 78.2085 108.148 77.8164 105.555 77.8341C101.314 77.8669 97.0775 77.4281 92.8561 77.1869C89.1613 77.0108 85.4383 77.3162 81.7829 78.0949C80.2972 78.3914 78.8071 78.5779 77.3038 78.8096C74.651 79.2371 72.0036 79.6053 69.3604 80.0836C67.5731 80.4045 65.8588 80.852 64.1121 81.2433C62.0328 81.6392 59.9358 81.9703 57.847 82.3155C54.6599 82.8082 51.5229 83.4221 48.3516 83.7368C43.6094 84.0464 38.8766 83.7014 34.2919 82.7134C33.8822 82.6389 33.5 82.4754 33.1694 82.237C31.0361 80.5439 28.9135 78.8317 26.7993 77.1032C26.012 76.3428 25.0233 75.8076 23.9335 75.5524C21.7651 75.2119 19.6464 74.7864 17.5009 74.4514C16.4586 74.3094 15.5017 73.8535 14.7582 73.1484C14.1851 72.6262 13.6557 72.0599 13.1725 71.4576C12.8481 70.8947 12.5076 70.3037 12.1832 69.7408C11.5772 69.0519 10.7375 68.5975 9.80405 68.4527C8.97505 68.3693 8.17359 68.1387 7.44105 67.7744C6.06467 66.9157 4.4754 66.4165 2.81714 66.3213C1.98679 66.3006 1.15406 66.3545 0.328081 66.4852C0.594628 67.7008 0.807783 68.5156 1.71899 69.0017C2.63019 69.4878 3.89489 70.3136 5.00837 70.9454C6.42766 71.663 7.67402 72.6588 8.66881 73.8752C9.7726 75.3082 10.7595 76.8256 11.6206 78.4159C11.9419 79.1138 12.4386 79.7158 13.065 80.1696C14.1663 80.8385 15.3495 81.3755 16.5906 81.7702C17.9854 82.1305 19.2505 82.8303 20.2693 83.8077C21.2571 84.8067 22.1039 85.9305 22.7889 87.1535C24.4107 89.968 25.7811 92.9279 27.181 95.8708C28.5157 98.9845 30.2372 101.914 32.3068 104.595C33.6783 106.222 34.9247 107.94 36.2881 109.553C37.5239 111.233 38.9831 112.742 40.6292 114.041C40.9662 114.345 41.2492 114.699 41.4716 115.092C42.5817 116.608 43.5061 118.212 44.7249 119.609C46.0587 121.239 47.5914 122.735 48.9844 124.331C50.9344 126.349 53.162 128.097 55.6064 129.525C58.5537 131.423 61.6379 133.148 64.6496 134.952C65.7356 135.693 66.8847 136.346 68.0831 136.906C70.8105 138.011 73.538 139.116 76.3108 140.027C79.0836 140.937 81.8201 142.469 84.9542 142.363C85.0964 142.343 85.2394 142.365 85.365 142.426C86.3212 142.922 87.4103 143.141 88.5128 143.063C88.7903 143.062 89.0672 143.084 89.3396 143.129C91.8595 143.525 94.4166 143.729 96.9856 143.734C100.58 143.946 104.193 143.955 107.808 143.76C110.714 143.666 113.613 143.193 116.427 142.358C118.052 141.755 119.677 141.359 121.297 140.816C123.492 140.072 125.741 139.39 127.846 138.491C130.892 137.253 133.709 135.496 136.16 133.307C137.436 132.099 139.018 130.978 140.408 129.761C141.278 129.014 141.977 128.103 142.864 127.384C144.789 125.602 146.484 123.593 147.902 121.411C149.518 119.219 151.056 116.959 152.774 114.84C153.88 113.604 154.665 112.13 155.057 110.554C155.192 109.964 155.38 109.386 155.617 108.823C156.998 105.855 157.897 102.714 158.28 99.5146C158.342 97.6025 159.042 95.7715 158.396 93.9313C158.372 93.8684 158.362 93.8007 158.367 93.734C158.374 93.6665 158.392 93.5995 158.426 93.5386C159.276 92.2404 159.006 90.7454 159.407 89.3876C159.479 89.1153 159.455 88.8308 159.338 88.5832C158.93 87.29 158.338 86.0677 157.578 84.9479C157.018 84.2081 156.788 83.268 156.939 82.3338C157.006 81.1393 156.977 79.9444 156.854 78.7622C156.699 77.5907 156.45 76.4363 156.107 75.3102C155.956 74.5176 155.56 73.797 154.975 73.2441Z" fill="white"/>
<path d="M154.975 73.2441C153.131 71.9732 151.057 71.0397 148.849 70.4837C148.021 70.3582 147.207 70.1706 146.415 69.9216C145.659 69.5952 144.834 69.4232 143.994 69.4173C143.154 69.41 142.312 69.5685 141.521 69.8819C140.67 70.2915 139.784 70.6221 138.874 70.8685C138.334 70.9334 137.819 71.1488 137.387 71.487C136.957 71.8258 136.63 72.2755 136.446 72.7801C136.049 73.6662 135.51 74.5785 135.127 75.4194C134.744 76.2603 134.301 76.3475 133.628 75.9674C132.955 75.5872 132.816 75.893 132.502 76.3748C132.241 76.6742 131.886 76.8796 131.496 76.9566C129.56 77.3264 127.594 77.5438 125.676 77.9784C122.983 78.44 120.264 78.649 117.556 78.6038C116.114 78.6686 114.733 78.3603 113.255 78.2587C110.682 78.2085 108.148 77.8164 105.555 77.8341C101.314 77.8669 97.0775 77.4281 92.8561 77.1869C89.1613 77.0108 85.4383 77.3162 81.7829 78.0949C80.2972 78.3914 78.8071 78.5779 77.3038 78.8096C74.651 79.2371 72.0036 79.6053 69.3604 80.0836C67.5731 80.4045 65.8588 80.852 64.1121 81.2433C62.0328 81.6392 59.9358 81.9703 57.847 82.3155C54.6599 82.8082 51.5229 83.4221 48.3516 83.7368C43.6094 84.0464 38.8766 83.7014 34.2919 82.7134C33.8822 82.6389 33.5 82.4754 33.1694 82.237C31.0361 80.5439 28.9135 78.8317 26.7993 77.1032C26.012 76.3428 25.0233 75.8076 23.9335 75.5524C21.7651 75.2119 19.6464 74.7864 17.5009 74.4514C16.4586 74.3094 15.5017 73.8535 14.7582 73.1484C14.1851 72.6262 13.6557 72.0599 13.1725 71.4576C12.8481 70.8947 12.5076 70.3037 12.1832 69.7408C11.5772 69.0519 10.7375 68.5975 9.80405 68.4527C8.97505 68.3693 8.17359 68.1387 7.44105 67.7744C6.06467 66.9157 4.4754 66.4165 2.81714 66.3213C1.98679 66.3006 1.15406 66.3545 0.328081 66.4852C0.594628 67.7008 0.807783 68.5156 1.71899 69.0017C2.63019 69.4878 3.89489 70.3136 5.00837 70.9454C6.42766 71.663 7.67402 72.6588 8.66881 73.8752C9.7726 75.3082 10.7595 76.8256 11.6206 78.4159C11.9419 79.1138 12.4386 79.7158 13.065 80.1696C14.1663 80.8385 15.3495 81.3755 16.5906 81.7702C17.9854 82.1305 19.2505 82.8303 20.2693 83.8077C21.2571 84.8067 22.1039 85.9305 22.7889 87.1535C24.4107 89.968 25.7811 92.9279 27.181 95.8708C28.5157 98.9845 30.2372 101.914 32.3068 104.595C33.6783 106.222 34.9247 107.94 36.2881 109.553C37.5239 111.233 38.9831 112.742 40.6292 114.041C40.9662 114.345 41.2492 114.699 41.4716 115.092C42.5817 116.608 43.5061 118.212 44.7249 119.609C46.0587 121.239 47.5914 122.735 48.9844 124.331C50.9344 126.349 53.162 128.097 55.6064 129.525C58.5537 131.423 61.6379 133.148 64.6496 134.952C65.7356 135.693 66.8847 136.346 68.0831 136.906C70.8105 138.011 73.538 139.116 76.3108 140.027C79.0836 140.937 81.8201 142.469 84.9542 142.363C85.0964 142.343 85.2394 142.365 85.365 142.426C86.3212 142.922 87.4103 143.141 88.5128 143.063C88.7903 143.062 89.0672 143.084 89.3396 143.129C91.8595 143.525 94.4166 143.729 96.9856 143.734C100.58 143.946 104.193 143.955 107.808 143.76C110.714 143.666 113.613 143.193 116.427 142.358C118.052 141.755 119.677 141.359 121.297 140.816C123.492 140.072 125.741 139.39 127.846 138.491C130.892 137.253 133.709 135.496 136.16 133.307C137.436 132.099 139.018 130.978 140.408 129.761C141.278 129.014 141.977 128.103 142.864 127.384C144.789 125.602 146.484 123.593 147.902 121.411C149.518 119.219 151.056 116.959 152.774 114.84C153.88 113.604 154.665 112.13 155.057 110.554C155.192 109.964 155.38 109.386 155.617 108.823C156.998 105.855 157.897 102.714 158.28 99.5146C158.342 97.6025 159.042 95.7715 158.396 93.9313C158.372 93.8684 158.362 93.8007 158.367 93.734C158.374 93.6665 158.392 93.5995 158.426 93.5386C159.276 92.2404 159.006 90.7454 159.407 89.3876C159.479 89.1153 159.455 88.8308 159.338 88.5832C158.93 87.29 158.338 86.0677 157.578 84.9479C157.018 84.2081 156.788 83.268 156.939 82.3338C157.006 81.1393 156.977 79.9444 156.854 78.7622C156.699 77.5907 156.45 76.4363 156.107 75.3102C155.956 74.5176 155.56 73.797 154.975 73.2441ZM152.96 74.7099L151.597 77.3749C150.989 76.3195 151.819 75.5015 151.487 74.5489C149.999 74.7721 150.938 76.3677 149.859 76.8229C149.114 76.5222 149.481 75.8593 149.551 75.3309C149.682 74.7335 149.849 74.1421 150.05 73.5603L152.96 74.7099ZM136.691 81.4194C137.085 80.929 137.29 80.3241 137.267 79.7162C137.315 78.8067 137.167 77.8983 137.952 77.106C138.056 77.0461 138.131 76.8338 138.097 76.7408C137.718 75.7406 138.42 74.9402 138.797 74.122C139.153 73.4114 139.706 72.8079 140.391 72.3815C141.075 71.956 141.863 71.7253 142.658 71.7193C142.363 72.0178 142.082 72.3306 141.817 72.656C141.6 72.9018 141.442 73.1921 141.359 73.5029C141.304 73.6472 141.562 73.8548 141.659 74.0237L142.113 73.6483L143.651 71.7645C144.732 71.8915 145.755 72.2714 146.635 72.8712C146.465 72.5757 146.567 72.2729 146.98 72.4089C147.845 72.6779 148.69 73.0147 149.473 73.3123C149.134 74.1275 148.881 74.818 148.537 75.4864C148.373 75.7087 148.171 75.9025 147.939 76.0574C147.823 75.8053 147.754 75.5355 147.734 75.2566C147.804 74.7076 147.912 74.1628 148.056 73.6254L146.567 72.8546C147.388 73.9371 147.033 75.1364 145.509 75.8116C145.773 75.0024 145.981 74.3376 146.226 73.6331C145.723 72.7606 145.339 74.1465 144.781 73.7939C144.291 73.5632 143.781 73.3761 143.254 73.2322L142.076 73.6514C142.201 73.8901 142.235 74.1671 142.169 74.4361C142.103 74.705 141.944 74.9454 141.717 75.1161C140.071 76.368 139.918 78.258 139.111 79.8694C138.967 80.202 138.786 80.5208 138.573 80.8185C138.388 81.0271 138.247 81.2682 138.159 81.5271C138.071 81.7882 138.038 82.0603 138.062 82.3279C138.088 82.5946 138.17 82.8531 138.302 83.0824C138.435 83.3132 138.616 83.5144 138.835 83.669C138.587 83.1729 138.5 82.6078 138.585 82.0465C138.669 81.4875 138.921 80.9568 139.31 80.5234C139.33 81.6189 139.337 82.3841 139.311 83.2624C139.368 83.3609 139.034 83.5351 138.835 83.669C139.176 84.3461 139.556 85.0048 139.97 85.6392C140.465 86.2576 140.995 86.8458 141.559 87.4034L140.343 89.9828C139.983 89.6658 139.709 89.4302 139.372 89.1187C140.25 88.3484 140.772 87.5773 140.203 86.5555C139.507 86.9577 139.507 86.9577 138.89 88.0089C138.455 87.904 138.09 87.8525 138.428 87.2067C138.737 86.3807 138.905 85.5159 138.926 84.6483L137.447 85.5039C137.513 85.0715 137.548 84.789 137.624 84.4073C137.38 84.3607 137.179 84.2517 136.976 84.2755C136.857 84.3013 136.736 84.3 136.619 84.2719C136.503 84.2429 136.398 84.1896 136.31 84.1127C136.221 84.0367 136.153 83.9391 136.112 83.8312C136.07 83.7227 136.055 83.6053 136.068 83.4872C136.069 82.7626 136.286 82.0441 136.691 81.4194ZM149.868 88.3383C148.016 87.9104 146.243 87.2398 144.595 86.3411C144.101 86.0452 143.681 85.6506 143.356 85.182C145.691 86.1614 148.192 86.7542 150.759 86.9411C150.516 86.519 150.501 86.1519 150.281 86.1108C149.652 85.7485 148.949 85.5173 148.212 85.4308C146.261 85.2142 144.407 84.559 142.792 83.5192C142.176 83.211 141.593 82.8427 141.055 82.4222C140.783 82.2233 140.462 81.94 140.927 81.4459L145.723 83.6435C145.832 83.7231 145.958 83.7777 146.092 83.8052L149.88 83.7722C149.652 83.5476 149.397 83.348 149.123 83.1779C148.381 82.9506 147.624 82.7319 146.833 82.6263C145.377 82.2283 143.999 81.6237 142.74 80.8284C142.314 80.5682 142.067 80.036 141.259 80.0717C140.451 80.1074 141.051 79.1975 141.166 78.6434C144.674 79.5975 147.756 81.6609 151.646 81.7374C151.767 82.9058 152.132 84.1207 151.31 85.365C151.147 85.7014 151.061 86.0648 151.057 86.431C150.957 87.5583 150.88 88.6912 150.786 89.9652L149.376 89.674L150.413 88.9423C150.246 88.7142 150.038 88.5175 149.801 88.3585L149.868 88.3383ZM147.397 112.115L146.125 112.851C146.125 112.851 146.068 112.752 146.036 112.696L146.67 111.709L147.441 112.089L148.752 112.344C148.13 113.661 148.13 113.661 147.229 113.432C147.287 112.985 147.36 112.53 147.441 112.089L147.397 112.115ZM138.911 108.374C139.251 108.965 139.551 109.486 139.908 110.105L138.132 111.883C137.735 111.193 137.514 110.57 137.184 109.861L138.911 108.374ZM136.551 108.557C136.52 107.749 136.628 107.63 138.131 106.986C137.734 107.872 137.734 107.872 136.551 108.557ZM122.453 106.543C122.193 106.092 121.966 105.698 121.569 105.009L121.273 106.925L119.885 107.597L119.367 104.575C118.6 105.675 119.069 106.83 118.749 107.953L116.992 108.839C116.882 107.382 116.762 106.044 116.635 104.523L123.481 102.439C123.605 103.512 123.747 104.443 123.776 105.383C123.805 106.323 123.165 106.375 122.453 106.543ZM122.538 109.12L122.404 107.622L123.666 107.004C124.44 108.451 124.25 108.805 122.538 109.12ZM121.192 108.154C121.692 109.741 121.692 109.741 120.128 110.346L119.909 108.596L121.192 108.154ZM118.875 109.232C118.965 109.799 119.034 110.228 119.108 110.766L117.332 111.381C117.249 110.791 117.208 110.309 117.132 109.733L118.875 109.232ZM127.015 105.424C127.485 106.446 127.455 106.633 126.646 107.213C126.128 107.513 125.595 107.821 124.915 108.214C124.994 106.161 124.994 106.161 127.015 105.424ZM124.982 105.08C124.634 103.893 124.808 103.717 126.935 102.993C127.033 103.368 127.108 103.737 127.225 104.214L124.982 105.08ZM124.577 102.837C124.229 102.438 124.164 102.119 124.608 101.863L132.003 97.5843C132.065 98.5808 131.489 98.745 131.099 99.0268C130.289 99.5104 129.509 100.042 128.764 100.622C128.113 101.204 127.216 101.085 126.569 101.741C125.977 102.219 125.311 102.604 124.602 102.879L124.577 102.837ZM128.508 104.559C129.139 104.045 129.494 104.627 130.067 104.971L128.481 105.983C128.279 105.462 127.99 105.028 128.533 104.602L128.508 104.559ZM128.078 103.401C127.709 102.282 128 101.795 129.394 101.27C129.686 102.94 129.664 102.972 128.102 103.444L128.078 103.401ZM132.173 102.158C132.437 103.676 132.407 103.693 130.625 104.33C130.187 102.988 131.908 103.1 132.198 102.2L132.173 102.158ZM130.558 102.023C129.982 101.024 129.989 100.832 130.878 100.355C131.322 100.099 131.751 99.8505 132.34 99.641C132.375 101.31 132.496 101.315 130.582 102.065L130.558 102.023ZM134.235 100.909C134.64 101.613 134.32 101.948 133.612 102.395C133.418 101.682 133.375 101.163 134.259 100.951L134.235 100.909ZM133.295 100.271C133.214 99.7546 133.154 99.3765 133.101 98.9759L134.274 98.41C134.582 99.5264 134.582 99.5265 133.295 100.271ZM136.822 99.9569L135.472 101.038C135.612 99.7747 135.612 99.7747 136.805 99.9288L136.822 99.9569ZM135.566 99.1819C135.449 98.916 135.349 98.6399 135.27 98.3591C135.245 98.18 135.234 97.999 135.234 97.8171C135.433 97.6832 135.64 97.5634 135.855 97.4577C136.077 97.3294 136.362 97.277 136.676 97.1707C137.022 98.1147 136.204 98.4751 135.55 99.1538L135.566 99.1819ZM133.071 97.8296L132.934 97.5904L136.809 95.3486C135.819 96.5027 134.512 97.3562 133.055 97.8014L133.071 97.8296ZM140.908 94.0092C140.965 94.1077 141.022 94.2062 141.07 94.2906C140.078 95.4538 138.904 96.4556 137.594 97.2586C137.601 96.8604 137.513 96.5361 137.615 96.4395C138.708 95.5635 139.797 94.7836 140.9 93.9951L140.908 94.0092ZM137.276 95.3036C137.29 94.8827 137.219 94.6233 137.315 94.5493C138.362 93.7219 139.559 93.0989 140.835 92.7191C139.936 93.9094 138.683 94.805 137.26 95.2754L137.276 95.3036ZM140.794 96.1389C140.102 97.258 139.1 98.1716 137.91 98.7647C138.567 97.619 139.571 96.689 140.778 96.1108L140.794 96.1389ZM143.155 98.1133C143.926 98.6991 143.812 99.2532 143.207 99.8468L142.296 99.3607C142.237 99.601 142.16 99.7399 142.193 99.8329C142.339 100.032 142.404 100.28 142.372 100.529C142.342 100.779 142.219 101.013 142.027 101.186C140.799 102.478 139.587 103.798 138.134 105.315C137.686 104.879 137.339 104.517 136.968 104.113L143.155 98.1133ZM143.11 88.5889L141.524 90.97L141.247 90.8671C141.583 89.9785 141.911 89.0759 142.31 88.057L143.11 88.5889ZM139.494 83.6822C140.025 83.9132 140.489 84.2638 140.851 84.7059C141.212 85.148 141.459 85.6693 141.574 86.2314C141 86.0531 140.497 85.7151 140.126 85.2584C139.754 84.8017 139.53 84.2447 139.477 83.654L139.494 83.6822ZM144.066 96.8543C144.5 96.3407 144.876 95.6919 145.965 95.9059C145.497 96.7021 145.094 97.4047 144.719 98.0902C143.603 97.5911 143.539 97.4786 144.05 96.8261L144.066 96.8543ZM146.444 101.596C147.112 102.072 146.708 102.569 146.214 103.286C145.874 102.695 145.082 102.553 145.675 101.871C145.811 101.662 146.28 101.484 146.427 101.568L146.444 101.596ZM144.202 101.129C143.878 100.566 144.342 100.241 144.737 99.9002C145.183 100.674 145.183 100.674 144.112 101.143L144.202 101.129ZM146.093 106.977C145.647 106.203 146.164 105.867 146.291 105.437L145.354 106.242C144.791 105.573 144.277 104.989 143.658 104.258L144.755 103.08C145.128 103.727 145.965 103.88 145.736 104.782C145.689 104.941 146.1 105.21 146.305 105.429L146.846 105.716L146.093 106.977ZM147.402 106.99C147.397 107.631 147.42 107.636 146.982 108.452C146.799 107.62 146.799 107.62 147.341 106.987L147.402 106.99ZM142.141 106.074L142.924 105.002C144.927 106.357 145.163 107.177 143.981 108.48C143.117 108.042 144.006 107.565 143.998 106.97C143.807 107.045 143.602 107.083 143.4 107.077C143.196 107.073 142.998 107.027 142.817 106.942C142.637 106.859 142.478 106.737 142.352 106.586C142.224 106.437 142.132 106.261 142.08 106.071L142.141 106.074ZM141.153 104.769C141.055 104.6 140.804 104.37 140.869 104.277C141.07 103.941 141.303 103.624 141.566 103.33C142.091 103.42 142.199 103.676 141.955 104.005C141.705 104.3 141.422 104.57 141.116 104.809L141.153 104.769ZM142.394 102.475C142.675 102.116 142.98 101.776 143.308 101.459C143.697 102.134 143.183 103.125 142.689 103.055C142.515 103.061 142.263 102.589 142.366 102.529L142.394 102.475ZM146.059 109.005C146.505 109.779 146.513 109.793 145.394 110.59C144.758 109.795 144.758 109.795 146.022 109.045L146.059 109.005ZM140.227 104.873C140.266 105.065 140.255 105.264 140.195 105.455C140.136 105.644 140.032 105.819 139.889 105.965C139.748 106.109 139.573 106.22 139.38 106.286C139.188 106.352 138.984 106.373 138.786 106.344C139.066 105.725 139.574 105.223 140.207 104.941L140.227 104.873ZM140.322 111.029C141.586 111.648 141.72 112.359 139.731 114.11C138.481 113.07 138.535 112.719 140.302 111.097L140.322 111.029ZM140.814 114.928C141.178 114.568 141.464 114.14 141.904 113.603C142.225 113.887 142.452 114.075 142.726 114.31C142.388 115.142 141.815 115.871 141.076 116.409C140.41 116.007 140.198 115.604 140.794 114.996L140.814 114.928ZM139.595 107.884L141.305 106.539C141.646 106.96 141.972 107.354 142.352 107.809L140.783 109.261C140.356 108.795 140 108.382 139.595 107.884ZM142.72 108.722C142.947 108.848 143.115 109.051 143.195 109.296C143.275 109.54 143.257 109.807 143.15 110.05C142.872 110.867 142.845 110.958 141.922 111.341C141.744 111.032 141.566 110.722 141.243 110.402L142.72 108.722ZM142.597 112.546L144.014 110.864C145.086 112.007 144.895 112.736 143.199 113.83C142.967 113.326 142.794 112.957 142.581 112.518L142.597 112.546ZM147.155 114.638C146.543 116.211 146.343 116.309 145.469 115.613C146.303 114.117 146.303 114.117 147.139 114.61L147.155 114.638ZM147.525 110.934C147.921 109.635 148.712 109.571 149.996 110.705C149.226 111.695 149.226 111.695 147.509 110.906L147.525 110.934ZM148.523 108.799C149.071 108.482 149.435 108.122 149.662 108.14C149.89 108.158 150.869 108.455 150.473 109.547L148.523 108.799ZM148.109 105.136C146.983 104.38 146.954 104.228 147.641 103.024C148.02 103.236 148.369 103.466 148.81 103.717L148.109 105.136ZM150.533 106.604C150.952 106.797 151.359 107.012 151.753 107.25C151.412 107.447 151.12 107.897 151.027 107.838C150.577 107.678 150.188 107.397 149.906 107.023C149.721 106.736 150.127 106.483 150.503 106.622L150.533 106.604ZM147.697 99.2196C148.362 98.6284 148.094 97.3762 149.457 97.4136C149.12 98.8472 148.735 99.2758 147.668 99.2367L147.697 99.2196ZM150.289 99.1652L149.249 102.563L148.983 102.717C148.829 102.449 148.491 102.138 148.529 101.928C148.909 100.946 149.378 99.9978 149.931 99.091C150.021 99.0764 150.137 99.1407 150.259 99.1823L150.289 99.1652ZM146.138 97.8138L147.117 96.5347C147.235 97.8358 147.093 98.0681 146.13 97.7998L146.138 97.8138ZM143.397 92.2695C142.858 92.2245 142.481 92.0488 142.687 91.5168C142.893 90.9847 143.381 89.9145 143.74 89.0314C143.978 89.1374 144.276 89.2091 144.279 89.2826C144.216 90.3266 143.901 91.3512 143.359 92.2726L143.397 92.2695ZM142.603 86.649C143.074 87.0897 143.56 87.5218 144.046 87.9538C143.851 87.9894 143.653 87.9818 143.467 87.932C143.279 87.8831 143.108 87.7924 142.967 87.6675C142.824 87.5421 142.714 87.386 142.645 87.2105C142.575 87.0335 142.548 86.8442 142.566 86.652L142.603 86.649ZM141.92 77.2498C142.993 76.2355 143.758 76.0927 144.695 76.6577C145.632 77.2227 146.49 77.8899 147.419 78.4408C147.946 78.712 148.489 78.9554 149.043 79.1713C149.712 79.4524 150.363 79.7717 150.993 80.1259C151.279 80.3473 151.463 80.6682 151.512 81.0265C148.11 80.2421 144.866 78.97 141.883 77.2528L141.92 77.2498ZM28.8981 80.1295C30.0022 80.656 30.9321 81.4654 31.5906 82.4748C30.6332 81.7715 29.6676 81.0541 28.7412 80.3705L28.8981 80.1295ZM28.6816 94.9839L29.6064 93.6797L31.7975 95.1891L31.7941 99.1877C30.3225 98.1533 29.2339 96.6852 28.6816 94.9839ZM26.6048 86.6911L26.3399 88.0452L26.1366 88.069C25.8042 87.492 25.5604 86.8637 25.1316 85.9484L26.6048 86.6911ZM24.4796 84.5431L24.1467 83.76L24.3834 83.6231C24.5212 83.8623 24.6591 84.1016 24.805 84.3549L24.4796 84.5431ZM50.2752 103.264L50.2765 104.464C48.3824 103.983 48.0594 104.039 48.9505 101.478L50.3035 102.046L50.2752 103.264ZM51.3697 102.63L52.9369 103.262L52.9028 105.496C50.9753 105.129 50.7306 104.67 51.3697 102.63ZM47.7807 100.954C47.8455 101.648 47.8201 102.357 47.8338 103.1C46.7389 102.945 46.7389 102.945 47.0016 100.56C47.3804 100.773 47.8251 100.928 47.7807 100.954ZM35.5658 94.4729C38.3954 95.4817 37.9115 95.8741 37.7042 97.739L35.3251 96.4509L35.5658 94.4729ZM34.463 95.6737C32.841 95.186 32.6315 94.8568 32.8412 92.8592C34.7114 93.5036 34.7114 93.5035 34.4873 95.7158L34.463 95.6737ZM40.8867 99.463L38.7113 98.3573L38.9 96.597L40.8985 97.4298C40.9051 97.9889 40.8969 98.5565 40.8786 99.4489L40.8867 99.463ZM41.9585 98.2426C43.5767 98.8263 43.5768 98.8264 43.2311 100.828C42.7512 100.542 42.2874 100.285 41.7307 99.9692L41.9585 98.2426ZM38.757 99.5317C40.1796 99.9471 40.6476 100.314 41.0464 101.041L43.2457 101.982C43.2791 102.451 43.3 102.795 43.351 103.329L44.2261 102.691L45.9759 103.743L45.8589 105.011C43.0997 103.926 40.4672 102.578 37.9967 100.985L38.757 99.5317ZM44.4764 99.6005C46.3113 100.115 46.441 100.34 45.9198 102.105C44.2991 102.236 43.7773 101.262 44.4092 99.6207L44.4764 99.6005ZM45.9556 98.7449C44.5816 98.4139 44.5816 98.414 44.5169 97.138L44.3774 94.329L44.7176 94.1322L46.2676 94.9055L45.9556 98.7449ZM43.3574 97.6585L42.077 97.0108C42.0504 95.9379 42.0248 94.6956 41.9744 93.2049C42.5769 93.5318 43.034 93.8116 43.5988 94.1415C42.8296 95.1682 43.5417 96.3698 43.2672 97.6731L43.3574 97.6585ZM41.1305 96.395L38.9832 95.2354L38.8137 92.2375L40.7898 92.6893C40.8235 93.9457 40.9269 95.0492 41.0403 96.4096L41.1305 96.395ZM37.4618 94.0327C35.18 92.9135 35.3712 93.5534 35.5319 90.6835C37.3887 91.3731 37.9239 92.3019 37.4618 94.0327ZM34.285 92.4555C33.7445 92.1678 33.297 91.9388 32.8023 91.6621C32.7899 90.9562 32.8072 90.2332 32.8178 89.5328C34.4872 89.4865 34.8468 90.1792 34.285 92.4555ZM31.8152 87.8613L31.8682 91.1705C31.1001 90.8643 30.5557 90.6726 29.9923 90.3793C29.9192 90.3278 29.8583 90.2598 29.8137 90.1824C29.7691 90.105 29.7408 90.0182 29.7328 89.929C29.7525 88.4915 29.7723 87.0541 29.8068 85.6081C29.8068 85.6081 29.8994 85.4608 30.0282 85.2737L32.2252 86.3482L31.8152 87.8613ZM31.6345 93.9137C31.0912 92.9709 29.47 92.8955 29.6873 91.2875C31.8595 92.1137 32.2278 92.4448 31.6345 93.9137ZM28.4704 85.8558C27.5048 85.7202 27.4952 85.6694 28.0126 84.0004C28.691 84.5274 28.8417 85.0969 28.4704 85.8558ZM26.7259 84.1631C26.0971 83.5511 26.0971 83.5511 26.7122 82.8388L26.7259 84.1631ZM28.4504 89.6201C28.0205 89.4559 27.6055 89.2832 27.0745 89.0462L27.5824 86.7448C28.7365 87.4469 28.8857 87.9798 28.4504 89.6201ZM28.228 93.8203C27.8388 93.1448 27.555 92.6523 27.2306 92.0894C28.8766 92.4132 28.9576 92.5539 28.228 93.8203ZM37.8045 107.907C35.7193 106.047 33.9493 103.876 32.5558 101.468C33.8696 102.584 35.1094 103.743 36.4676 104.834C36.9856 105.144 37.389 105.601 37.6281 106.15C37.8664 106.697 37.9272 107.309 37.8045 107.907ZM40.8342 111.145C40.6853 111.01 40.548 110.864 40.424 110.707L40.6606 110.57L41.0413 111.026L40.8342 111.145ZM38.9278 106.844C39.2322 106.876 39.524 106.969 39.7853 107.118C40.0459 107.265 40.2714 107.465 40.4471 107.705C40.6213 107.945 40.7431 108.218 40.8029 108.51C40.8634 108.804 40.8608 109.107 40.7967 109.403C39.4967 109.03 38.5301 108.482 38.9278 106.844ZM42.3011 112.698C42.0826 112.525 42.212 111.962 42.1691 111.443C43.472 111.89 44.4734 112.361 44.3234 113.949C43.5225 113.754 42.8166 113.316 42.3011 112.698ZM60.5775 120.458C58.9687 120.507 58.7974 120.381 58.6788 119.079C58.6254 118.679 58.6326 118.281 58.6045 117.753L59.5716 117.925C59.8531 117.969 60.1131 118.043 60.4795 118.132L60.5775 120.458ZM61.3998 118.462L62.9002 118.739C62.9875 119.233 63.0557 119.625 63.1009 120.011C63.1462 120.398 63.2034 120.703 63.2596 121.177C61.2143 121.084 61.2144 121.084 61.3998 118.462ZM60.7464 123.831C59.381 123.721 59.1486 123.386 59.1866 121.638C60.6655 121.945 60.8168 122.139 60.7021 123.857L60.7464 123.831ZM57.6314 116.646C55.7793 116.272 55.7321 116.225 55.6908 114.579C57.3902 114.721 57.6263 114.96 57.587 116.671L57.6314 116.646ZM57.6275 117.323C57.7113 118.119 57.7857 118.864 57.8762 119.637C56.3047 119.477 55.8533 119.344 56.1361 116.891L57.6275 117.323ZM58.0808 120.814C58.1556 121.183 58.2424 121.471 58.3077 121.79L58.4808 122.74C56.7036 122.155 56.5381 122.175 56.6247 120.512L58.0808 120.814ZM55.3744 118.889C53.3211 118.201 53.321 118.201 53.5569 116.488L55.1528 116.691L55.3744 118.889ZM55.7853 121.485C55.1193 121.082 54.6017 120.8 54.1122 120.464C54.0393 120.337 53.9916 120.083 53.9372 119.852C55.4725 120.052 55.4726 120.052 55.7329 121.497L55.7853 121.485ZM52.6088 117.581C51.1436 117.434 51.1436 117.434 51.151 115.872C52.5718 116.045 52.6987 116.197 52.5563 117.593L52.6088 117.581ZM49.8135 113.757C47.8216 113.483 47.6207 113.374 47.435 110.93L49.7583 111.95L49.8135 113.757ZM50.2546 115.378L50.3899 116.913C48.72 116.753 48.554 116.568 48.3882 114.637L50.2546 115.378ZM46.6428 112.532C44.9138 112.407 44.6591 111.109 44.2805 109.733C46.2671 110.066 46.5495 110.522 46.5579 112.488L46.6428 112.532ZM47.6138 115.723C45.0637 115.097 45.2508 115.045 45.2372 113.139C46.3421 113.551 47.759 113.819 47.5045 115.636L47.6138 115.723ZM43.383 110.572C42.3424 110.648 42.3424 110.648 41.7396 108.37C42.9142 108.629 43.0563 109.56 43.2737 110.485L43.383 110.572ZM45.0402 116.049C46.4753 116.588 47.8064 116.982 49.0138 117.503C49.735 117.943 50.4059 118.454 51.0165 119.027L51.6387 118.499C52.1535 118.707 52.8629 118.672 52.9821 119.598L51.7159 119.317C52.324 120.099 53.0925 120.744 53.9752 121.219C54.7883 121.651 55.5652 122.143 56.3009 122.688C53.3481 122.595 45.7799 118.736 45.0402 116.049ZM58.6103 128.989C57.1081 128.066 55.7214 126.98 54.4766 125.751C55.7676 126.28 57.0423 126.781 58.3171 127.282C59.0437 127.687 58.6867 128.231 58.6103 128.989ZM59.8392 129.478C59.5942 128.252 59.5908 126.98 59.8297 125.731C58.9991 125.18 58.8974 126.064 58.5829 126.34C52.9419 124.593 48.1507 121.755 47.326 119.605C47.5137 119.667 47.696 119.744 47.8719 119.833C50.7686 121.753 53.9852 123.187 57.3985 124.079C58.3928 124.367 59.2224 125.088 60.3975 124.971C60.5045 124.962 60.6104 124.981 60.703 125.029C60.7971 125.076 60.8748 125.149 60.9259 125.238C60.977 125.327 61.0014 125.431 60.9949 125.536C60.9899 125.64 60.9538 125.741 60.8921 125.83C60.1654 126.588 60.2736 127.426 60.2082 128.271C60.1752 128.686 60.0542 129.095 59.854 129.47L59.8392 129.478ZM67.0309 130.459C67.6249 130.566 67.9789 130.53 68.0829 130.676C68.5208 131.436 68.3165 132.211 68.1976 133.237C66.6385 132.619 67.6658 131.424 67.0309 130.459ZM70.3286 134.95C69.6153 135.081 69.1506 134.993 68.9346 134.105C69.6727 134.222 70.1722 134.234 70.3286 134.95ZM72.1749 135.758C71.8662 135.599 71.5804 135.445 71.1086 135.174C72.0008 134.977 72.0008 134.977 72.1668 135.744L72.1749 135.758ZM74.8614 136.587C73.4014 136.381 73.4014 136.381 73.6511 135.411C74.174 135.634 75.007 135.471 74.8532 136.573L74.8614 136.587ZM77.4757 137.702C75.8255 137.268 75.8255 137.268 76.13 136.154C77.5709 136.258 77.5708 136.258 77.438 137.705L77.4757 137.702ZM79.8469 138.394C78.5931 138.237 78.593 138.237 78.5427 136.747C79.9258 136.922 79.9258 136.922 79.8092 138.397L79.8469 138.394ZM82.664 139.279C81.2761 139.369 81.1034 139.206 80.9853 137.529C82.4834 137.357 82.1321 138.629 82.6263 139.282L82.664 139.279ZM84.1769 139.679L83.4646 139.641L83.2601 137.883C83.6836 138.409 83.9834 139.022 84.1392 139.682L84.1769 139.679ZM86.3047 139.95C85.1721 139.798 84.9937 139.488 84.3266 136.722L85.4626 136.571C85.6389 137.802 85.9322 138.927 86.1931 139.995L86.3047 139.95ZM89.2102 140.577C87.3667 140.424 87.2412 140.309 86.9371 138.514C86.8799 138.21 86.8456 137.911 86.7621 137.321C87.5679 138.206 87.2489 139.535 88.569 139.841C88.9427 138.949 88.1699 138.327 88.14 137.556C88.0599 136.78 87.922 136.014 87.7256 135.262L86.5157 135.456C86.2562 135.005 86.0129 134.583 85.5254 133.908L85.101 135.636C83.9393 135.708 83.3435 134.776 82.2171 134.396L81.7665 136.42C81.0045 136.467 80.6429 136.113 80.6492 135.303C80.6035 134.789 80.5165 134.282 80.3861 133.785C78.6942 134.032 80.2709 135.297 79.3944 135.898C78.8815 135.932 78.3873 135.861 78.4513 134.98C78.4446 134.438 78.4031 133.897 78.3279 133.362C77.4409 133.5 77.4409 133.5 77.2818 135.243C76.1205 135.521 75.9417 135.005 75.968 134.127C75.9944 133.249 75.9845 132.41 75.9894 131.563C75.8414 131.57 75.6939 131.608 75.5596 131.673C75.4237 131.738 75.3033 131.83 75.204 131.942C75.1048 132.054 75.032 132.184 74.986 132.323C74.94 132.463 74.9237 132.609 74.9391 132.752C74.9257 133.379 74.9647 133.994 74.9661 134.613C73.5352 134.765 73.3869 134.644 73.5173 133.331C73.5905 133.016 73.6295 132.697 73.639 132.378C73.5464 132.115 73.4069 131.873 73.2255 131.661C72.9741 131.806 72.6338 132.003 72.6076 132.299C72.5029 132.915 72.4386 133.536 72.415 134.156L71.5291 134.124L71.8301 130.779C70.8473 130.785 70.6721 131.336 70.5618 132.001C70.4515 132.665 70.5845 133.17 70.574 133.87L69.1394 133.536C68.9969 132.399 68.9731 131.4 70.2194 130.585C69.7719 130.356 69.3955 130.011 69.0024 130.013C68.742 130.044 68.4793 130.019 68.2336 129.942C67.987 129.863 67.7642 129.733 67.5783 129.561C67.3938 129.388 67.2511 129.178 67.1588 128.943C67.0664 128.707 67.0301 128.452 67.0489 128.197L65.8937 129.41C66.3574 130.622 66.3916 131.968 65.9896 133.238C65.4266 133.151 65.1837 132.935 65.2916 132.404C65.5103 131.414 65.6979 130.405 65.8937 129.41C65.8457 129.344 65.8052 129.273 65.772 129.199C65.6017 128.903 65.6571 128.383 65.1108 128.53C64.5645 128.678 64.7835 129.058 64.7372 129.422C64.6612 130.385 64.4936 131.327 64.3771 132.22C63.5899 132.394 63.4195 132.098 63.4344 131.508C63.4751 130.415 63.5158 129.322 63.5107 128.218C63.4818 127.825 63.4289 127.436 63.352 127.052C62.309 127.262 62.3871 127.911 62.4019 128.484C62.4308 129.424 62.488 130.31 62.6014 131.671L60.9255 130.576C60.8644 128.985 61.2188 127.386 61.9547 125.928C63.248 126.324 64.5429 126.758 65.8658 127.137C66.5948 127.331 67.3377 127.477 68.091 127.576C68.631 127.657 68.6444 127.612 69.1206 126.83C68.8725 126.748 68.6159 126.683 68.3568 126.634C66.2192 126.385 64.1522 125.792 62.2392 124.882C62.0174 124.819 61.8233 124.687 61.6877 124.506C61.5513 124.325 61.4792 124.104 61.4816 123.875C61.4817 123.293 61.3916 122.726 61.3364 122.083C62.2653 122.052 63.0291 122.248 63.3873 122.904C63.6035 123.505 63.7347 124.137 63.7778 124.78L64.0794 124.755C64.1496 124.227 64.2427 123.704 64.3396 123.085C64.8444 123.037 65.5466 123.4 65.9241 122.412L63.9743 121.664C63.8809 120.817 63.7847 119.897 63.7113 118.983C65.1135 119.26 66.4321 119.529 67.7346 119.77C67.9982 119.783 68.24 119.894 68.4114 120.082C68.5821 120.272 68.6682 120.521 68.651 120.779C68.7053 121.591 68.7366 122.399 68.7857 123.271C67.5681 123.075 66.7905 122.718 66.7286 121.515C66.771 121.264 66.7248 121.009 66.5999 120.792C66.4751 120.576 66.278 120.408 66.0394 120.319C66.04 121.326 66.1658 122.325 66.4121 123.293C66.7088 124.116 66.2468 125.265 67.2228 125.864C67.7759 125.112 67.0031 124.49 67.3233 123.779C68.1248 123.972 68.9826 124.058 68.9071 125.227C68.8651 125.702 69.1699 125.957 69.7811 125.923L69.8471 124.702C71.4782 124.644 73.1055 124.741 74.7053 124.988C75.1567 125.121 75.8222 125.318 76.2622 124.575C75.9912 124.413 75.747 124.16 75.4588 124.139C74.0815 123.782 72.6522 123.605 71.2112 123.613C70.0537 123.795 69.7084 123.469 69.6413 122.326C69.6022 121.711 69.6156 121.084 69.6143 120.465C71.1281 120.697 72.4453 120.929 73.7664 121.065C74.192 121.119 74.8695 121.234 74.8243 120.266C73.5624 120.095 72.2236 119.894 71.0075 119.734C68.7986 119.323 66.5734 118.884 64.332 118.417C63.9684 118.282 63.6312 118.091 63.3345 117.85C62.9009 117.919 62.4631 117.939 62.0287 117.911C61.199 117.772 60.4042 117.556 59.5865 117.335C58.7687 117.114 58.4481 117.036 58.5566 115.548C59.1462 115.756 59.7623 115.905 60.3887 115.989C60.934 116.011 61.693 116.473 62.0462 115.443C61.2151 115.267 60.4541 115.144 59.6822 114.934C58.9103 114.724 58.5362 114.828 58.2858 114.222C58.2371 114.137 58.0363 114.029 57.9771 114.063C56.9861 114.636 56.3727 113.64 55.5244 113.605L55.1868 111.924C53.9915 113.272 55.1722 114.466 54.9015 115.673C54.183 115.863 53.7159 115.327 53.1582 115.18C52.9935 113.977 52.7049 112.799 52.2956 111.664C51.6852 112.693 52.261 113.692 52.0977 114.743C51.9381 114.781 51.7749 114.785 51.6172 114.755C51.4595 114.724 51.3126 114.661 51.1865 114.569C51.0596 114.475 50.9566 114.354 50.8832 114.217C50.8121 114.08 50.7713 113.927 50.7667 113.768C50.6999 113.276 50.67 112.779 50.6786 112.28C50.7135 111.913 50.6019 111.552 50.3635 111.275C50.1274 110.999 49.7866 110.828 49.4112 110.8C49.0875 110.762 48.7735 110.679 48.4789 110.551C46.1499 109.384 43.7993 108.248 41.5227 107.07C39.0645 105.829 36.8196 104.24 34.8587 102.35C34.7938 102.237 34.7208 102.11 34.6559 101.998C33.968 101.42 32.9452 100.98 32.6514 100.23C32.4682 99.2519 32.4667 98.2432 32.6489 97.2484C32.668 96.7683 32.702 96.2795 32.7426 95.7682C34.2492 96.3977 34.5302 96.8169 34.4012 98.1674C34.31 98.6217 34.2446 99.0798 34.2049 99.5381C34.2068 99.7809 34.2549 100.241 34.7549 99.8766C34.8922 99.6733 35.0063 99.4572 35.0928 99.2308C35.2088 98.7134 35.2709 98.1709 35.3583 97.5012C36.2089 97.9848 36.8978 98.3931 37.6487 98.8406L37.5111 100.553C36.4944 100.465 35.827 99.444 34.7549 99.8766C37.0822 101.619 39.5728 103.148 42.1996 104.445C43.7806 105.238 45.4127 105.983 47.0367 106.713C47.4891 106.875 47.961 106.993 48.4417 107.064C48.3387 106.166 47.6465 106.06 47.1747 105.789C46.7028 105.518 46.4648 105.036 46.839 104.351C48.0088 104.875 49.1637 105.408 50.3578 105.974C50.6335 106.452 49.9278 107.555 51.2661 107.55L51.4747 106.304L52.8664 106.699C52.9364 107.334 52.9941 107.845 53.056 108.466L51.8251 108.315C51.9858 108.597 52.1916 108.852 52.4367 109.068C54.6691 110.317 57.0721 111.267 59.5866 111.893C60.2655 112.045 60.8896 112.34 61.5808 112.616C61.8384 112.666 62.1005 112.696 62.3633 112.708C62.23 112.469 62.0451 112.265 61.822 112.107C61.5988 111.949 61.339 111.84 61.0647 111.789C59.2671 111.065 57.491 110.31 55.6666 109.677C55.1652 109.539 54.7338 109.239 54.4379 108.824C54.1428 108.411 54.0008 107.908 54.0352 107.393L57.4654 108.486C58.6591 108.846 59.8447 109.192 61.0517 109.507C61.67 109.656 61.7735 109.596 62.4267 109.087C62.0699 108.468 61.3738 108.458 60.777 108.278C58.7952 107.679 56.8148 107.117 54.8182 106.527C54.4468 106.369 54.0867 106.189 53.7386 105.988C53.795 105.299 53.8352 104.582 53.8873 103.782C55.9219 103.969 57.895 104.481 59.7311 105.299C61.5702 106.215 63.5528 106.852 65.6121 107.188C65.8311 107.24 66.0611 107.242 66.2853 107.193C66.3858 107.152 66.4756 107.088 66.5489 107.01C66.6237 106.931 66.6791 106.839 66.7138 106.738C66.7136 106.635 66.6855 106.535 66.6344 106.447C66.5833 106.358 66.5108 106.284 66.4219 106.232C65.6074 106.153 64.7996 106.031 64.003 105.867C61.5508 105.034 58.9559 104.227 56.4675 103.434C54.697 102.826 52.9466 102.15 51.1748 101.505L51.481 98.1004C49.9451 98.8575 50.6993 100.166 50.2688 100.959C49.0293 100.588 48.8915 100.349 49.0128 99.1904C49.0721 98.5745 49.0101 97.9536 49.0302 97.304C48.2907 97.7319 48.2907 97.7319 47.9583 99.6878C47.412 99.835 47.0037 99.6397 46.9756 99.1118C46.9018 97.9912 46.9492 96.8755 46.9302 95.6106C48.5442 96.0842 50.0423 96.4935 51.5417 96.9395C53.0412 97.3855 55.1418 98.1217 56.9671 98.5857C57.8386 98.7289 58.7283 98.7808 59.6198 98.7398C59.7365 98.7267 59.8501 98.6911 59.9521 98.6321C60.0542 98.573 60.1418 98.4923 60.2114 98.3976C55.4212 97.4122 50.752 96.0003 46.262 94.177C41.7195 92.4648 37.2933 90.4958 33.0036 88.2809L33.0481 87.0918C33.881 87.5106 34.6062 87.8791 35.3528 88.2165C36.0995 88.5539 36.5994 88.7713 37.2435 88.9992C37.8875 89.227 38.8995 89.5799 39.7038 89.8463C40.1275 89.8902 40.5551 89.8999 40.9829 89.8757L41.0927 89.587C40.9223 89.4248 40.7352 89.2815 40.5316 89.161C38.5966 88.404 36.4989 87.7412 34.5739 86.6594C32.211 85.3995 30.0036 83.8619 27.7466 82.4093C27.4837 82.1618 27.2441 81.8932 27.0272 81.6058C26.3446 80.9688 25.6405 80.3629 24.7947 79.6138C24.2215 81.0148 25.3479 81.3952 25.7414 82.1808L24.9279 82.6514C24.0172 81.7897 23.1699 81.0039 22.463 80.3246C21.6029 80.2593 20.7529 80.1224 19.9215 79.9185C18.7426 79.5497 17.5957 79.0311 16.4517 78.5858C16.2752 78.5191 16.1106 78.3703 15.9369 78.377C13.8625 78.5075 12.9757 76.9002 11.9525 75.6721C11.0875 74.4106 10.3236 73.0849 9.66575 71.7037C11.2991 73.6483 12.9177 75.6016 14.5606 77.597C15.2243 76.9692 14.8937 76.635 14.5455 76.236C13.174 74.6089 11.8469 72.9562 10.4754 71.3291C10.1868 71.0438 9.88077 70.7762 9.55952 70.5267C9.48218 70.8717 9.40438 71.0105 9.42345 71.112C9.51894 71.312 9.63085 71.5062 9.75592 71.689C9.47673 71.2182 9.14068 70.7821 8.75275 70.393C8.17446 70.0089 7.55602 69.6818 6.90743 69.4153C5.99806 69.1514 5.18419 68.6596 4.54548 67.9859C4.92487 68.0385 5.2992 68.1165 5.66617 68.2195C7.27632 68.7891 8.87168 69.3673 10.4604 69.9681C10.8053 70.0876 11.1075 70.2936 11.3382 70.5674C12.2199 71.4814 12.8621 72.596 13.2113 73.8181C13.3682 74.7406 14.3033 75.0628 14.7488 75.6306C14.7488 75.6306 14.838 75.7854 14.9711 75.7084C16.3743 75.2344 17.6615 75.8595 18.9625 76.0639C20.3477 76.2739 21.7169 76.5589 23.0641 76.9185C23.7778 77.1886 24.4637 77.5199 25.1141 77.9092C25.1569 78.4285 25.1836 78.9197 25.2017 79.1907C25.8078 79.6675 26.4688 80.0788 27.1701 80.4162C28.4495 81.0965 29.6113 81.9592 30.6197 82.9802C31.7956 83.8367 33.0175 84.6327 34.2816 85.365C35.1463 85.7636 36.046 86.0894 36.9738 86.3407C37.8992 86.7454 38.8609 87.0728 39.8477 87.3238C42.0404 87.7065 44.1845 88.0049 46.3448 88.3313C46.676 87.7082 46.2919 87.5551 45.9403 87.4582C44.6417 87.1212 43.3363 86.8068 42.0324 86.5291C40.7286 86.2513 39.6647 86.1163 38.4767 85.9028L38.503 85.6062C38.832 85.5679 39.1635 85.5581 39.4925 85.5779C40.648 85.7351 41.7902 85.9375 42.9309 86.1032C45.3913 86.3105 47.8824 86.2185 50.3461 85.829C52.229 85.6742 54.1076 85.4262 55.9736 85.088C59.1712 84.4766 62.3321 83.6989 65.5298 83.0875C68.3452 82.5659 71.1893 82.1965 74.0224 81.7397C75.6913 81.4873 77.3655 81.1756 79.0358 80.9598C81.5539 80.5484 84.088 80.2607 86.6248 80.0974C90.8386 79.9489 95.0504 80.1394 99.2642 79.9909C103.147 79.8839 107.03 80.1892 110.908 80.1415C114.785 80.0938 118.301 80.068 122.008 79.9309C123.95 79.8774 125.925 79.5413 127.907 79.3521C129.533 79.162 131.172 78.9266 132.811 78.6913C133.39 78.6005 133.974 78.4503 134.574 78.3283C134.85 78.8067 134.627 79.1045 134.168 79.1636C132.122 79.4465 130.059 79.6644 128.021 79.9613L127.336 80.0387L122.584 80.724L117.574 81.4078C116.234 81.588 114.889 81.6774 113.546 81.6738C111.407 81.6917 109.268 81.9158 107.072 82.0414C107.056 82.1781 107.075 82.3158 107.127 82.4411C107.178 82.5674 107.26 82.6779 107.364 82.7637C107.471 82.85 107.597 82.9083 107.734 82.9363C107.87 82.9629 108.012 82.9573 108.15 82.919C110.326 82.6919 112.56 83.145 114.722 82.3447C114.899 82.27 115.093 82.25 115.279 82.285C117.024 82.5478 118.813 82.5316 120.578 82.2405C122.122 82.1373 123.663 81.9402 125.191 81.6549C128.032 81.2122 130.856 80.7047 133.681 80.2338C133.814 80.1568 134.008 80.2884 134.518 80.3871C131.244 81.7557 128.076 81.5621 125.056 82.2769C122.036 82.9917 118.995 83.5316 115.851 84.168C115.973 84.3791 116.102 84.6043 116.292 84.6258C116.953 84.8516 117.666 84.9155 118.372 84.8115C119.078 84.7066 119.755 84.437 120.345 84.0264C120.541 83.8641 120.769 83.7456 121.014 83.6787C121.26 83.6118 121.514 83.5979 121.759 83.64C123.808 83.8318 125.896 83.5736 127.87 82.882C128.767 82.6255 129.738 82.7018 130.496 81.9633L130.614 81.8949L133.866 81.8903C133.775 82.0744 133.712 82.4108 133.563 82.4597C132.793 82.8281 131.965 83.0516 131.123 83.1203C130.642 83.1363 130.163 83.2295 129.705 83.3967C128.156 83.8272 126.59 84.1818 125.012 84.46C120.926 85.1725 116.839 85.8482 112.734 86.4591C110.832 86.7524 108.876 86.8145 106.986 87.0259L100.386 87.6539C101.193 88.2191 102.2 88.4663 103.211 88.3465C106.302 88.2488 109.392 87.9532 112.463 87.4603C115.42 86.8757 118.433 86.5959 121.427 86.1777C122.035 86.0697 122.632 85.8742 123.182 85.8005C123.686 85.7148 124.195 85.6591 124.703 85.6336C124.92 87.1403 123.949 88.2274 123.697 89.5362L122.04 90.0822L122.617 86.6339L122.378 86.528C122.172 86.711 122.004 86.93 121.881 87.1719C121.714 87.7376 121.67 88.3449 121.488 88.9192C121.062 90.4041 120.804 90.5722 119.109 90.7457C119.167 89.5114 119.167 89.5114 120.284 88.8837C120.009 88.4053 119.592 87.9898 119.169 87.4274C118.977 88.7021 117.982 88.7897 117.099 88.8314C116.215 88.8732 115.716 89.0681 114.823 89.2285C115.95 90.0212 115.391 91.0015 115.176 91.895C114.801 93.3317 114.334 94.7463 113.852 96.1694C113.633 96.6716 113.371 97.1551 113.069 97.6168C112.846 98.084 112.478 97.9591 112.016 97.9448C112.603 95.5412 113.126 93.2312 113.655 90.8985L113.44 90.7981C113.321 90.8665 113.144 90.9692 113.133 91.0879C112.932 92.5179 111.967 93.0006 110.511 93.0739L110.722 91.6947C109.9 91.9451 110.14 92.6695 109.64 93.2399L108.417 93.4785L107.148 93.706L106.832 92.7816C105.978 94.5513 104.449 94.3286 102.984 94.5573L103.237 92.9096C102.612 93.5042 102.167 94.2565 101.96 95.0743C101.264 96.6929 100.661 98.3438 100.156 100.021C100.092 100.403 99.8792 100.751 99.562 100.995C99.2462 101.238 98.8499 101.354 98.46 101.321L97.6294 101.351C98.0877 99.0764 98.718 96.8298 99.5157 94.6309L97.2346 95.0873L98.4999 95.5375C98.5305 95.6248 98.544 95.7202 98.5408 95.8139L96.4252 101.109C96.1627 101.749 95.7023 101.772 94.9828 101.55L96.7203 95.6663L96.4521 95.5775C95.3514 97.6477 94.3615 99.7664 93.4851 101.928L92.4899 101.81L94.0776 95.769C93.0574 96.5655 93.0506 97.7516 92.5829 98.7539C92.1152 99.7562 91.8416 100.89 91.393 101.994C78.4066 102.902 65.6966 102.749 53.2466 99.5558C53.5391 99.7863 53.8612 99.9789 54.2064 100.126C55.4193 100.571 56.6575 100.951 57.9181 101.263C60.2081 101.814 62.4252 102.239 64.7725 102.514C67.4323 102.852 70.1456 103.008 72.8441 103.173C75.5425 103.339 77.8708 103.512 80.3885 103.5C82.9061 103.488 86.0145 103.304 88.8308 103.195C90.379 103.143 91.9301 103.166 93.4755 103.041C95.0208 102.916 96.1688 102.684 97.5066 102.473C99.469 102.182 101.434 101.965 103.369 101.558C105.305 101.152 106.93 100.549 108.71 100.045C111.351 99.3238 114.033 98.6731 116.655 97.8504C119.822 96.8439 122.979 95.7499 126.07 94.5433C128.009 93.761 129.905 92.8651 131.743 91.862C133.222 91.0064 134.701 90.1507 136.257 89.1196L136.052 90.2701L137.259 89.2155C137.601 89.4677 137.929 89.7284 138.327 90.0424C137.168 90.9752 136.129 91.8764 135.019 92.6875C133.054 93.9277 130.99 95.0087 128.853 95.9166C126.591 97.0563 124.261 98.01 121.95 99.0653C121.566 99.2877 121.03 99.3163 120.935 99.972C121.973 99.9434 122.999 99.6707 123.929 99.1782C126.46 97.9579 128.925 96.5883 131.498 95.4751C133.709 94.397 135.822 93.1294 137.816 91.6888C138.199 91.4296 138.599 91.1986 139.014 90.9957C139.443 91.5354 139.028 91.7383 138.725 91.932L136.092 93.6245C135.658 93.9224 135.249 94.2528 134.867 94.6142C134.051 95.4355 133.027 96.0276 131.909 96.3255C131.104 96.6223 130.34 97.0249 129.642 97.5245L125.003 100.358C124.515 100.64 123.938 100.974 123.567 100.194C123.401 100.587 123.173 100.953 122.891 101.279C122.573 101.484 122.219 101.625 121.848 101.695C118.629 102.713 115.428 103.833 112.18 104.698C110.22 105.232 108.312 105.96 106.377 106.573C104.069 107.289 101.67 107.645 99.3823 108.124L97.6275 108.501C97.8713 108.684 98.1566 108.807 98.4641 108.858C98.7716 108.909 99.0898 108.886 99.3932 108.793C102.529 108.362 105.623 107.604 108.622 106.532C110.197 106.001 111.798 105.558 113.417 105.202C114.241 104.989 115.131 104.755 115.95 104.601C116 104.872 116.034 105.147 116.05 105.424L116.126 110.897C116.139 111.809 116.154 111.8 114.899 112.188C114.591 110.152 114.423 108.092 114.402 106.021C113.816 106.716 113.816 106.716 113.703 109.259C113.661 110.315 113.672 111.36 113.611 112.521L112.349 113.138C111.649 111.066 112.477 108.842 111.389 106.92C111.283 108.857 111.211 110.888 111.19 112.871C111.222 113.036 111.213 113.206 111.164 113.371C111.115 113.535 111.026 113.686 110.905 113.814C110.784 113.94 110.635 114.037 110.471 114.098C110.307 114.16 110.133 114.182 109.962 114.162L109.533 110.339C109.013 111.14 108.756 112.07 108.797 112.997C108.778 113.271 108.879 113.55 108.875 113.816C108.856 114.708 108.835 114.739 107.59 115.009L107.44 110.949C106.778 111.444 106.63 112.112 106.355 115.33C106.218 115.435 106.069 115.521 105.911 115.586C105.778 115.663 105.556 115.585 105.382 115.592C105.043 114.456 105.746 113.28 105.121 111.99C104.704 112.965 104.442 113.989 104.347 115.028C104.253 115.926 104.23 115.921 103.038 116.179L103.204 112.292C102.909 112.67 102.674 112.843 102.643 113.03C102.493 114.036 102.389 115.053 102.284 116.033C102.208 116.621 102.027 117.026 101.211 116.842L101.347 114.887L100.959 114.83L100.128 117.187L99.0519 117.715L100.38 118.823C100.879 118.234 101.526 117.782 102.251 117.51C102.976 117.239 103.754 117.161 104.502 117.283C104.591 117.232 104.83 117.338 104.902 117.258C106.267 115.999 108.152 116.053 109.696 115.31C111.24 114.567 112.478 114.114 113.885 113.544C114.233 113.388 114.596 113.272 114.968 113.199C116.813 112.845 118.607 112.237 120.297 111.392C121.797 110.826 123.267 110.177 124.698 109.447C126.499 108.486 128.246 107.427 129.929 106.271C132.535 104.463 135.095 102.607 137.595 100.785C138.426 100.174 139.193 99.4858 140.021 98.8005C140.378 99.4197 140.05 99.7407 139.765 99.9993C137.46 101.989 135.154 103.942 132.825 105.89C132.707 105.958 132.574 106.035 132.455 106.104C130.836 107.562 129.103 108.891 127.271 110.079C127.01 110.22 126.785 110.422 126.614 110.663C126.444 110.906 126.335 111.181 126.297 111.468C127.37 111.185 128.355 110.615 129.137 109.825C131.364 108.18 133.552 106.501 135.748 104.837C135.941 104.726 136.148 104.606 136.458 104.426C136.75 104.933 137.002 105.369 137.269 105.833C135.669 107.101 134.236 108.56 133.007 110.176L133.153 110.429L135.756 108.923C134.519 110.774 132.942 112.393 131.109 113.694C129.795 113.535 130.589 111.968 129.578 111.446C129.217 112.668 130.184 113.422 130.301 114.48L123.781 120.278C123.431 119.843 123.161 119.511 122.876 119.188L122.654 119.316C122.737 119.7 122.806 120.092 122.909 120.614L120.838 121.812C120.546 121.305 120.303 120.883 120.027 120.404C119.111 121.141 120.136 121.655 119.936 122.334L118.497 122.847C118.966 123.833 119.718 122.948 120.287 123.182C120.83 124.124 121.381 125.081 121.981 126.123L119.718 127.226C119.207 126.133 118.729 125.133 118.169 123.956C117.711 124.803 118.122 125.278 118.314 125.748C118.507 126.219 118.801 126.799 119.115 127.48L117.081 128.263C116.749 127.686 116.537 127.114 116.207 126.404C115.62 127.232 116.38 127.731 116.22 128.274C115.502 129.083 114.538 128.984 113.503 129.001C113.349 128.734 113.17 128.424 112.992 128.114L112.8 128.226L112.71 129.61L108.655 130.923C108.376 130.165 108.081 129.379 107.842 128.692C107.534 129.526 107.672 130.554 108.351 132.826C106.265 133.861 104.02 134.524 101.727 134.781C98.8945 135.28 96.0265 135.44 93.1852 135.256C91.9269 135.256 90.6657 135.357 89.416 135.561C89.5613 137.353 90.8517 138.839 90.4506 140.779L89.2102 140.577ZM114.735 96.8787C115.183 94.6114 115.663 92.3638 116.159 89.9382L118.134 89.6021C118.362 90.9901 117.464 91.416 116.217 91.8184L117.378 92.3285L115.909 96.9313L114.854 97.2226C114.818 97.0929 114.716 96.9833 114.735 96.8787ZM118.364 92.0207L120.292 91.6002C120.248 92.4903 119.898 93.3549 119.298 94.0513C119.19 94.1999 119.119 94.3706 119.09 94.5467C119 94.9369 119.065 95.4618 118.823 95.658C118.313 95.9908 117.757 96.2506 117.174 96.4242C117.644 94.8769 118.005 93.4855 118.364 92.0207ZM122.336 93.2319C122.256 94.6669 122.22 94.7066 120.769 95.1329C120.597 93.8067 120.691 93.696 122.352 93.2601L122.336 93.2319ZM121.365 92.5739C121.481 91.2686 121.481 91.2686 123.092 90.881C123.238 92.2977 122.113 92.1602 121.426 92.5764L121.365 92.5739ZM125.722 91.8175C125.734 92.1052 125.685 92.3941 125.581 92.6683C125.477 92.9425 125.317 93.1962 125.113 93.4136C124.911 93.6303 124.666 93.8076 124.394 93.9349C124.124 94.0612 123.832 94.1363 123.536 94.1512C123.481 93.8567 123.499 93.552 123.589 93.2597C123.679 92.9675 123.838 92.697 124.053 92.4712C124.269 92.2455 124.535 92.0709 124.827 91.9619C125.121 91.8535 125.432 91.8144 125.738 91.8457L125.722 91.8175ZM124.474 91.4322C123.939 90.5034 124.99 90.102 124.987 89.4469C125.006 88.8261 125.063 88.2037 125.157 87.5851L127.008 87.5463C127.01 88.5769 125.978 88.6675 125.558 89.342L126.334 89.6623C126.407 90.9524 125.131 90.827 124.491 91.4604L124.474 91.4322ZM126.436 86.4511C126.087 86.5367 125.732 86.5844 125.375 86.5955C125.614 86.1198 125.7 85.6195 125.925 85.5645C127.228 85.064 128.61 84.82 129.988 84.8465C129.654 85.1901 129.498 85.4678 129.318 85.497C128.335 85.7294 127.375 86.0579 126.452 86.4792L126.436 86.4511ZM129.229 86.7118C128.973 87.5349 128.517 87.4613 128.012 87.3033L129.229 86.7118ZM127.922 90.6387C127.857 92.2712 127.857 92.2712 126.752 92.6474C126.845 91.7122 126.805 90.8908 127.954 90.695L127.922 90.6387ZM127.285 89.8065C127.609 88.9999 128.17 89.0503 128.808 88.7191C128.497 89.6866 127.974 89.6331 127.317 89.8628L127.285 89.8065ZM131.409 89.2971C131.566 90.8013 130.359 90.8986 129.487 91.4034C129.372 90.0063 129.445 89.9268 131.444 89.4268L131.409 89.2971ZM129.683 88.6632C130.084 87.5116 131.065 87.6387 131.911 87.2244C131.516 88.3533 131.471 88.3791 129.748 88.7758L129.683 88.6632ZM130.07 86.5629C130.741 85.5368 131.614 85.8199 132.198 85.4635L132.336 85.9089L130.07 86.5629ZM130.626 84.9275C130.797 84.6414 130.837 84.5056 130.889 84.494L132.815 84.0368C132.101 84.9191 131.412 84.7169 130.626 84.9275ZM134.435 88.3535L132.956 89.2092C133.338 88.5377 133.338 88.5377 134.475 88.4239L134.435 88.3535ZM133.005 86.9668L134.882 86.0495C134.303 87.3038 134.192 87.3496 133.045 87.0371L133.005 86.9668ZM133.696 85.4973C133.644 85.3903 133.584 85.2862 133.518 85.1877L134.958 84.5045C134.843 85.4342 134.117 85.235 133.737 85.5676L133.696 85.4973ZM106.298 95.5859C106.333 95.3555 106.445 95.1389 106.617 94.9719C106.787 94.8057 107.01 94.6957 107.245 94.6627C107.808 94.5437 108.346 94.3825 109.289 94.1371C108.846 95.3877 108.564 96.3014 108.185 97.2524C108.012 97.7634 107.798 98.2644 107.548 98.747C107.128 99.6276 106.295 99.5844 105.331 99.6916L106.298 95.5859ZM103.601 100.317L101.232 101.031L102.652 94.9743C103.299 95.0694 103.74 95.1516 104.204 95.2026L105.515 95.2883C105.151 97.0414 104.504 98.7385 103.601 100.317ZM109.141 97.7128C109.191 97.2523 109.325 96.7997 109.368 96.3617C109.534 94.802 110.072 93.6469 112.151 93.8326L110.974 97.6091C110.711 98.4182 109.99 98.5353 109.111 98.6872C109.103 98.3631 109.113 98.0383 109.141 97.7128ZM138.228 113.966C139.185 115.421 139.185 115.627 137.402 117.427C136.421 115.724 135.464 114.064 134.443 112.291L136.224 110.66C136.518 110.796 136.773 110.993 136.977 111.237C137.183 111.481 137.328 111.767 137.408 112.077C137.487 112.385 137.497 112.71 137.438 113.029C137.378 113.349 137.25 113.654 137.062 113.928L138.228 113.966ZM139.425 116.351L140.078 117.005C139.603 117.824 139.155 118.552 138.586 119.482C138.278 118.947 138.051 118.553 137.84 118.187L139.425 116.351ZM139.925 119.477C140.125 118.592 140.542 118.426 141.198 118.572C140.916 119.11 140.916 119.11 139.999 119.434L139.925 119.477ZM141.819 121.121C140.787 122.205 140.787 122.205 140.056 121.484C140.573 120.978 140.971 120.335 141.819 121.121ZM134.252 119.456L131.544 114.756L134.073 112.711C135.128 114.54 136.125 116.271 137.171 118.087C136.836 118.545 136.387 118.913 135.869 119.157C135.352 119.4 134.784 119.509 134.223 119.473L134.252 119.456ZM137.108 121.331L136.05 122.131C135.888 121.85 135.766 121.638 135.637 121.413C135.053 120.4 135.117 120.307 136.258 119.684C136.657 119.453 137.016 119.152 137.48 118.827C138.367 120.265 138.335 120.415 137.078 121.349L137.108 121.331ZM131.252 121.436C131.089 121.154 131.333 120.619 131.389 120.099C130.72 120.205 130.346 119.727 130.045 119C129.745 118.273 129.353 117.524 128.99 116.758L130.652 115.159C131.439 115.843 132.02 116.721 132.339 117.71C132.81 118.527 133.147 119.42 133.574 120.298L132.727 121.464L132.865 121.703L134.08 121.244C134.145 121.357 134.318 121.35 134.351 121.407C135.316 123.081 135.194 123.246 132.873 124.25C132.241 123.359 132.241 123.359 132.502 122.476C132.025 122.202 131.604 121.851 131.252 121.436ZM129.238 124.102C128.897 123.511 128.495 123.086 128.073 122.524L130.41 121.378C130.702 121.885 130.929 122.279 131.103 122.854L129.238 124.102ZM131.591 123.941L131.868 125.038L130.152 126.031L129.536 124.961L131.591 123.941ZM126.869 119.956C126.618 119.35 126.598 118.836 127.323 118.417C127.746 118.09 128.136 117.726 128.491 117.329C129.01 118.435 129.471 119.407 129.924 120.365C129.823 120.485 129.707 120.596 129.582 120.694C127.825 121.786 127.602 121.708 126.869 119.956ZM127.774 123.41C128.178 124.452 128.708 125.44 129.219 126.533L127.193 127.705C126.804 126.654 126.446 125.623 125.98 124.335C125.016 123.384 124.368 122.168 124.12 120.833L125.878 119.572C126.954 120.994 127.013 121.542 126.264 122.501C126.593 122.455 126.922 122.52 127.197 122.685C127.472 122.851 127.676 123.106 127.774 123.41ZM124.002 127.131C123.928 127.173 123.721 126.917 123.693 126.765C123.69 126.682 123.707 126.599 123.74 126.522C123.774 126.444 123.824 126.374 123.887 126.315C124.375 126.033 124.848 125.759 125.366 125.459L125.719 125.593C125.671 125.921 125.744 126.423 125.574 126.54C125.076 126.819 124.542 127.021 123.987 127.139L124.002 127.131ZM126.1 127.793C125.653 128.765 125.579 128.807 124.555 128.536L126.1 127.793ZM122.926 125.708C122.342 124.695 121.79 123.738 121.264 122.654L123.453 121.387C123.997 122.536 124.5 123.615 125.028 124.736L122.926 125.708ZM121.502 128.577C121.103 128.808 120.679 128.79 120.604 128.045L122.868 127.148C122.829 128.278 121.951 128.26 121.41 128.554L121.502 128.577ZM123.196 129.154C123.347 130.136 122.376 130.06 121.893 130.658C121.504 129.607 121.504 129.607 123.104 129.132L123.196 129.154ZM120.814 131.113L118.645 131.73C118.284 130.795 117.957 129.989 117.62 129.096C118.18 128.903 118.604 128.715 119.053 128.605C119.503 128.495 119.731 128.55 119.782 128.671C119.853 128.949 119.838 129.245 119.739 129.521C119.707 129.671 119.531 129.811 119.387 130.006C119.729 130.428 120.805 129.899 120.723 131.091L120.814 131.113ZM117.054 130.68L114.446 131.288C114.244 130.937 114.073 130.641 113.928 130.218C116.021 128.614 116.599 128.692 117.054 130.68ZM111.372 133.311C111.467 133.819 111.524 134.123 111.584 134.501C110.82 134.681 110.135 134.964 109.804 133.842L111.372 133.311ZM109.2 132.109C109.214 132.007 109.254 131.909 109.313 131.822C109.373 131.735 109.452 131.663 109.544 131.61C110.239 131.208 110.556 131.381 110.884 132.43C110.45 132.51 110.01 132.55 109.573 132.55C109.481 132.508 109.403 132.444 109.343 132.364C109.283 132.284 109.245 132.19 109.23 132.092L109.2 132.109ZM92.8151 140.912C91.912 141.021 91.5618 140.961 91.5103 140.222C91.435 139.14 91.2844 138.067 91.0604 137.011C90.9731 136.517 91.1979 136.462 91.5223 136.444C91.9644 137.895 92.3902 139.319 92.8447 140.895L92.8151 140.912ZM95.0422 141.012C93.7564 141.005 93.4702 140.645 93.4666 138.996C94.8774 138.912 95.0802 139.264 95.0718 140.995L95.0422 141.012ZM97.6035 139.981C97.7575 140.248 97.7785 140.592 97.8653 140.88C97.8678 140.984 97.862 141.086 97.8471 141.191L96.494 141.204C96.2703 140.508 96.0496 139.885 95.7935 139.133C97.3441 138.949 97.344 138.949 97.633 139.964L97.6035 139.981ZM100.959 141.492L98.9449 141.419C98.7747 140.542 98.6507 139.881 98.5119 139.23C100.339 138.773 100.621 139.023 100.959 141.492ZM103.549 141.401L101.966 141.322C101.777 140.55 101.621 139.833 101.43 139.024L102.997 138.868C103.435 139.613 103.619 140.484 103.525 141.359L103.549 141.401ZM106.789 141.103C106.119 141.172 105.472 141.246 104.78 141.346C104.616 140.821 104.48 140.449 104.389 140.052C104.299 139.703 104.233 139.345 104.189 138.986C106.21 138.454 106.566 138.661 106.765 141.06L106.789 141.103ZM109.54 140.844L108.009 141.166L107.622 139.946C107.451 139.65 107.429 139.269 107.347 138.922C108.726 138.406 109.282 138.891 109.515 140.802L109.54 140.844ZM112.814 140.263L110.784 140.574C110.521 139.844 110.299 139.185 110.027 138.404C110.847 138.287 111.396 138.213 112.094 138.09C112.269 138.702 112.508 139.39 112.814 140.263ZM114.974 139.802L113.435 139.904C114.058 139.206 114.53 139.477 114.958 139.398L114.974 139.802ZM119.439 138.72C119.041 138.031 118.788 137.352 118.49 136.698C118.304 136.234 118.08 135.787 117.818 135.361C117.588 135.053 117.299 134.794 116.965 134.598C116.965 134.598 116.58 134.82 116.576 134.916C116.595 135.393 116.518 136.15 116.781 136.298C117.854 136.86 117.94 137.899 118.257 138.86C117.133 139.51 117.133 139.51 116.087 139.27C116.171 138.49 117.197 138.629 117.412 137.941C116.942 137.125 116.245 137.866 115.587 137.683C115.36 137.289 115.093 136.825 114.825 136.361C114.557 135.896 114.293 135.711 113.937 136.086C113.844 136.228 113.781 136.387 113.752 136.552C113.725 136.717 113.734 136.883 113.778 137.041C113.946 137.454 114.17 137.843 114.443 138.195C113.392 138.803 113.378 138.811 113.015 138.045C112.653 137.279 112.308 136.578 111.978 135.869C111.264 136.375 111.264 136.375 111.081 137.325C110.744 137.389 110.336 137.606 110.037 137.498C109.679 137.359 109.288 137.32 108.9 137.383C108.512 137.446 108.146 137.607 107.835 137.852C107.584 137.998 106.963 137.775 106.6 137.591C106.329 137.398 106.101 137.153 105.929 136.872C104.935 136.96 105.361 137.632 105.213 138.093C104.805 138.104 104.39 138.137 104.014 138.168C103.714 137.647 103.543 137.145 103.321 136.692C103.205 136.559 103.07 136.441 102.922 136.341L101.953 137.09C102.196 137.512 102.499 137.73 102.808 138.096C102.544 138.23 102.258 138.311 101.968 138.334C101.676 138.358 101.384 138.323 101.112 138.232C100.942 137.731 101.096 136.835 100.183 136.894C99.2704 136.952 99.6477 137.71 99.5655 138.32C98.7511 138.379 98.1638 138.249 97.9158 137.511C97.8644 137.336 97.7736 137.179 97.6482 137.047C97.5722 136.959 97.4707 136.896 97.3567 136.862C97.2421 136.831 97.1195 136.831 97.0021 136.863C96.8861 136.894 96.7789 136.958 96.6939 137.047C96.6103 137.135 96.5517 137.242 96.526 137.358C96.5008 137.448 96.4938 137.542 96.5064 137.632C96.6118 137.815 96.6137 138.058 96.6762 138.303C95.8932 138.587 95.4782 138.414 95.2798 137.591C95.0814 136.768 95.0032 136.7 94.0227 137.155C94.1271 137.507 94.2249 137.882 94.3632 138.328C92.576 138.649 93.2121 137.117 92.3916 136.241C92.832 136.132 93.2799 136.061 93.7294 136.03C95.3773 136.015 97.0014 136.164 98.6369 136.024C100.882 135.814 103.106 135.428 105.345 135.071C105.788 134.912 106.223 134.73 106.647 134.524C107.217 134.339 107.802 134.208 108.394 134.133C108.891 134.071 108.995 134.423 108.88 134.977C107.949 135.516 106.899 135.373 105.835 135.613C105.997 135.894 106.151 136.162 106.289 136.401C107.381 136.505 108.492 136.416 109.568 136.137C110.544 135.732 111.488 135.255 112.394 134.708L112.224 132.292C112.095 132.067 111.669 131.807 111.128 131.313L113.196 130.454C113.623 132.084 113.949 133.471 114.324 134.943C115.196 134.438 115.196 134.438 114.789 132.328L117.174 131.437C117.647 131.914 117.517 132.27 116.908 132.548C116.298 132.825 115.597 132.874 115.285 133.599C116.12 134.261 116.79 133.404 117.429 133.316C118.874 134.773 120.093 136.43 121.053 138.237L119.439 138.72ZM123.671 137.098L121.91 137.91C121.788 137.492 121.7 137.168 121.61 136.807L123.146 136.05C123.365 136.43 123.498 136.729 123.655 137.069L123.671 137.098ZM124.618 136.756C124.399 136.376 124.212 136.053 124.018 135.715C125.23 135.183 125.23 135.183 125.894 136.13L124.618 136.756ZM123.379 134.264C123.282 134.095 123.37 133.632 123.511 133.569C124.088 133.235 124.311 133.725 124.56 134.294C124.05 134.608 123.644 134.861 123.331 134.18L123.379 134.264ZM122.75 132.864C122.262 132.565 121.929 132.364 121.395 132.053L120.605 134.105C120.941 134.962 122.352 133.714 122.495 135.057L121.107 135.729C120.351 134.759 119.611 133.817 118.878 132.853C119.041 132.759 119.109 132.569 119.222 132.56C121.799 131.947 124.231 130.79 126.342 129.173C126.7 128.938 127.07 128.724 127.452 128.531L133.194 125.697C133.515 125.528 133.869 125.438 134.228 125.437C132.805 126.391 131.962 127.836 130.195 128.295C129.327 128.63 128.555 129.18 127.958 129.889C127.784 130.129 127.564 130.331 127.309 130.484C127.055 130.639 126.771 130.739 126.478 130.781C126.186 130.822 125.892 130.805 125.612 130.726C125.333 130.649 125.076 130.515 124.86 130.331C124.863 130.816 124.958 131.118 124.854 131.347C124.749 131.577 124.353 131.881 124.28 131.754C123.381 131.598 122.945 132.039 122.734 132.836L122.75 132.864ZM131.876 130.118C130.402 131.496 130.289 131.505 129.53 130.256C130.732 129.261 130.732 129.261 131.86 130.09L131.876 130.118ZM126.96 135.72C126.241 134.748 125.586 133.85 124.827 132.807L126.114 132.063L128.689 134.683L126.96 135.72ZM127.123 131.761C128.066 130.521 128.351 130.469 129.342 131.847L128.129 132.548L127.123 131.761ZM129.512 134.469C129.269 134.047 129.099 133.751 128.666 133.308C130.016 132.81 131.273 132.083 132.378 131.16C133.044 130.775 133.044 130.775 133.765 131.615L129.512 134.469ZM131.686 128.727L133.102 127.42L134.479 128.2C134.128 128.515 133.896 128.762 133.639 128.967C133.382 129.172 133.166 129.241 132.87 129.412L131.686 128.727ZM135.258 130.545C134.597 131.04 134.254 130.582 133.811 130.087C134.11 129.757 134.477 129.49 134.884 129.307C135.293 129.123 135.733 129.024 136.174 129.02L136.077 127.688L134.172 126.914L135.669 125.748L138.762 127.898L135.258 130.545ZM139.314 127.317C138.285 126.523 137.335 125.797 136.289 124.976L137.543 123.969L138.547 124.683L137.927 125.661L139.354 125.229C139.629 125.502 139.928 125.78 140.306 126.162L139.314 127.317ZM138.598 122.89C138.96 122.287 139.411 122.419 139.959 122.891L139.372 123.925C138.867 123.597 138.295 123.459 138.657 122.856L138.598 122.89ZM142.498 124.387L140.923 125.523C140.608 125.18 140.277 124.846 139.93 124.484C139.997 124.326 140.102 124.185 140.233 124.072C140.366 123.959 140.521 123.877 140.69 123.834C140.856 123.79 141.031 123.785 141.197 123.82C141.363 123.855 141.516 123.93 141.644 124.036C141.926 124.175 142.221 124.286 142.527 124.37C142.243 123.877 141.951 123.371 141.635 122.822C142.021 122.43 142.393 122.083 142.816 121.688L143.712 122.352L142.557 124.353L142.498 124.387ZM145.799 120.601C143.95 121.671 143.59 121.56 141.86 119.652L142.809 118.39C143.292 118.808 143.805 119.195 144.344 119.548C144.988 119.775 145.596 119.874 145.842 120.539L145.799 120.601ZM142.178 116.954L143.066 116.44L143.423 117.059C144.071 116.816 144.732 116.114 145.478 117.034L144.692 118.201L142.178 116.954ZM146.482 119.699L145.312 118.969C145.568 118.573 145.894 118.219 146.269 117.927C146.55 117.764 146.995 117.92 147.653 117.933L146.482 119.699ZM148.041 117.409L147.031 116.717L147.935 115.068C149.579 115.525 149.586 115.708 148.084 117.346L148.041 117.409ZM149.975 115.014L148.649 114.355L149.611 112.842L151.117 113.471L149.975 115.014ZM152.374 112.332C151.708 112.717 151.063 112.658 150.674 112.189C150.52 111.922 150.621 111.413 150.606 111.009C151.77 110.805 152.038 111.475 152.357 112.304L152.374 112.332ZM152.613 110.317L151.178 109.984L151.151 109.662C151.387 109.525 151.683 109.354 151.831 109.268C151.975 109.244 152.123 109.257 152.255 109.309C152.388 109.359 152.502 109.447 152.587 109.559C152.669 109.671 152.717 109.807 152.727 109.947C152.736 110.089 152.705 110.23 152.637 110.359L152.613 110.317ZM153.119 108.936L152.089 108.519C152.169 107.835 152.507 107.601 153.06 107.807C153.612 108.013 153.479 108.465 153.143 108.978L153.119 108.936ZM156.659 95.7428C156.302 99.0623 155.594 102.352 154.545 105.559C154.545 105.559 154.508 105.768 154.449 105.803L153.695 106.239C153.557 106 153.354 105.648 153.393 105.475C153.691 104.59 154.112 103.746 154.505 102.956C154.668 102.713 154.733 102.421 154.68 102.141C154.63 101.863 154.472 101.618 154.235 101.461C153.347 103.141 152.58 104.876 151.941 106.653C151.37 106.346 150.883 106.083 150.287 105.733C151.033 104.289 151.802 102.887 152.48 101.462C152.691 100.896 152.849 100.313 152.957 99.7231C153.232 98.6259 153.626 97.4602 153.781 96.3947C153.823 96.1115 153.967 95.8481 154.187 95.6514C154.407 95.4548 154.687 95.3394 154.979 95.3261L154.446 100.869C154.76 100.737 155.028 100.518 155.22 100.24C155.412 99.9617 155.515 99.6375 155.52 99.3102C155.735 97.835 155.987 96.3567 156.217 94.8728L156.572 94.8736C156.626 95.1749 156.663 95.4783 156.684 95.7851L156.659 95.7428ZM154.959 91.4915C154.903 91.6211 154.819 91.7377 154.712 91.8332C154.605 91.9287 154.48 91.9992 154.344 92.0426C154.207 92.086 154.064 92.0976 153.925 92.08C153.786 92.061 153.654 92.0135 153.539 91.9373C152.741 92.3994 152.879 93.6326 151.814 93.8364L150.777 93.2352C150.501 93.9202 150.097 93.2532 149.941 93.3247C149.602 93.5884 149.311 93.9086 149.085 94.2699C147.923 94.1354 149.318 92.8596 148.27 92.5465L147.482 93.6777L146.426 93.5566L146.487 90.8568C145.875 90.8547 145.856 91.3348 145.721 91.7507C145.586 92.1665 145.241 92.2533 144.758 91.8946L145.629 89.9835L146.532 90.8311C146.725 90.736 146.945 90.7064 147.151 90.7524C147.359 90.7975 147.538 90.9135 147.661 91.0788C148.398 91.9472 149.551 91.8614 150.535 92.268C150.85 92.3244 151.18 92.2609 151.458 92.0905C152.178 91.7305 152.873 91.3284 153.544 90.884C153.802 90.6335 153.992 90.3229 154.091 89.9857C154.49 88.9669 154.873 87.9199 155.246 86.8221C155.714 87.5067 155.938 88.328 155.886 89.1687C155.836 90.0085 155.511 90.8233 154.959 91.4915ZM153.959 83.6641C154.462 84.5366 153.899 85.4433 153.714 86.3198C153.529 87.1793 153.294 88.0281 153.012 88.8653L152.678 88.8333C152.404 87.8112 152.462 86.7161 152.843 85.6979C153.329 84.7339 153.56 83.6771 153.518 82.6246C153.509 82.1983 153.621 81.7768 153.68 81.1609C154.771 81.9933 153.582 82.9066 153.983 83.7062L153.959 83.6641ZM154.3 78.2319C154.271 78.3874 154.198 78.5347 154.091 78.6567C153.983 78.7774 153.845 78.8701 153.691 78.9216C153.526 78.8951 153.372 78.8325 153.241 78.7356C153.109 78.6372 153.005 78.5102 152.936 78.364C152.831 78.1811 152.992 77.8441 153.049 77.567C153.167 76.9169 153.315 76.2497 153.526 75.246C153.876 76.4695 154.175 77.3658 154.324 78.2742L154.3 78.2319ZM60.7693 86.2916C59.591 86.4816 58.4008 86.5416 57.222 86.4673L57.181 86.1908C57.3808 86.0378 57.5997 85.9111 57.8319 85.8143C60.9326 85.2403 64.0348 84.7029 67.1747 84.1624C68.6456 83.8744 70.0961 83.4481 71.5494 83.0953C72.1255 82.9177 72.7159 82.7957 73.3123 82.7321C75.7155 82.6929 78.0725 81.8549 80.4546 82.053C81.9893 81.5574 83.6037 81.3985 85.178 81.591C87.7577 81.6186 90.2726 80.9518 92.7974 81.1237C96.2902 81.2985 99.7922 81.3179 103.289 81.3966C103.849 81.4104 104.388 81.4552 104.716 81.9221C104.619 82.5411 104.2 82.4644 103.828 82.4355C100.858 82.2775 97.9023 82.1109 94.9023 81.97C93.5101 81.9498 92.1184 82.1357 90.7223 82.2115C90.126 82.2375 89.5186 82.176 88.9141 82.188C85.8459 82.2366 82.7933 82.689 79.7307 82.8845C76.6414 83.1293 73.5632 83.5852 70.5206 84.2533L60.7693 86.2916ZM96.2088 129.586C92.7743 130.231 89.2769 130.271 85.8838 129.704C85.4878 129.633 85.097 129.503 84.7077 129.409L84.7231 129.025C85.2064 129.008 85.6883 128.954 86.1797 128.952C88.3701 128.885 90.5728 128.943 92.7737 128.758C95.6235 128.536 98.4728 128.107 101.312 127.797C103.004 127.661 104.683 127.32 106.308 126.783C107.538 126.445 108.793 126.228 110.057 126.135C111.241 126.161 112.415 125.768 113.364 125.029C113.785 125.76 113.215 126.071 112.744 126.212C111.787 126.475 110.812 126.662 109.832 126.771C108.42 126.877 107.036 127.299 105.789 128.003C105.254 128.26 104.683 128.425 104.099 128.493C101.422 128.878 98.8172 129.184 96.2169 129.6L96.2088 129.586ZM101.537 83.7984C100.764 84.715 99.9364 84.443 99.0857 84.5411C97.4583 84.6945 95.8199 84.7603 94.1801 84.7895C92.5403 84.8187 90.8356 84.7353 89.1609 84.8409C86.3016 85.0126 83.441 84.566 80.6074 85.3983C80.6074 85.3983 80.4299 85.501 80.3369 85.4423C77.9094 84.8575 75.6435 86.0933 73.2866 86.3496C73.1515 86.3753 73.0152 86.3715 72.8853 86.3378C72.8853 86.3378 72.8043 86.1971 72.5629 86.0177C73.5794 85.3997 74.7284 85.039 75.9023 84.9679C78.3236 84.618 80.7368 84.2539 83.1652 84.0875C85.5937 83.9211 87.6634 84.056 89.8752 83.9586C91.6806 83.9087 93.4817 83.7487 95.3033 83.7269C97.1249 83.7052 98.863 83.6755 100.647 83.6568C101.019 83.6857 101.312 83.6472 101.537 83.7984ZM70.5381 104.545C70.8491 104.434 71.1722 104.362 71.4975 104.328C74.0639 104.4 76.6264 104.569 79.198 104.583C81.7695 104.596 84.0635 104.47 86.4895 104.436C88.4309 104.383 90.4046 104.386 92.2358 104.415C92.6518 104.418 93.0812 104.376 93.4958 104.343L95.5541 104.184L95.6399 104.641C94.9953 104.888 94.332 105.078 93.6579 105.206C92.6794 105.321 91.7085 105.245 90.7056 105.319C89.7027 105.392 88.9422 105.476 88.059 105.517C87.1759 105.559 85.8081 105.581 84.704 105.582C83.6 105.583 82.08 105.58 80.7818 105.449C80.6551 105.417 80.5233 105.411 80.3924 105.43C80.2601 105.451 80.1333 105.494 80.0179 105.561C79.9025 105.627 79.8001 105.717 79.7179 105.821C79.6358 105.924 79.5753 106.042 79.5394 106.168C78.5557 105.18 77.2961 105.458 76.1234 105.442C74.9507 105.426 74.0609 105.491 73.0323 105.485C72.5643 105.508 72.1018 105.438 71.6728 105.275C71.2422 105.113 70.8568 104.865 70.5381 104.545ZM72.7481 100.508C78.4781 100.459 84.1886 99.5193 89.9153 99.7716C89.9883 99.8983 90.0125 99.9405 89.94 100.02C89.9101 100.047 89.8746 100.067 89.8365 100.08C89.7654 100.138 89.6855 100.184 89.5998 100.217C88.3939 100.455 87.1788 100.632 85.9604 100.746C81.4715 101.17 76.9712 101.225 72.5065 100.911C72.3773 100.892 72.2747 100.782 72.0806 100.651C72.2942 100.563 72.5207 100.514 72.7481 100.508ZM93.1349 109.843C91.9245 109.83 90.7275 109.772 89.5037 109.804C88.8615 109.819 88.236 110.068 87.5857 110.069C85.6283 110.215 83.6682 110.174 81.7355 109.945C79.8996 109.6 78.027 109.67 76.2088 109.389C75.8172 109.315 75.4324 109.219 75.0557 109.099L75.1464 108.709C77.4651 108.831 79.7556 109.007 82.0715 109.056C84.3873 109.105 86.9117 109.071 89.3296 109.023C90.6288 108.984 91.9318 108.85 93.1556 108.817C93.3899 108.796 93.6245 108.82 93.8464 108.887C93.9919 108.934 94.2037 109.13 94.1932 109.249C94.1827 109.368 94.0381 109.733 93.8821 109.804C93.6346 109.857 93.3832 109.87 93.1349 109.843ZM74.5549 118.395C71.1638 117.918 67.8246 117.222 64.4506 116.604C64.1709 116.508 63.9038 116.387 63.6501 116.241C63.7885 115.523 64.0152 115.129 64.7118 115.346C65.4083 115.562 66.7594 115.887 67.7269 116.266C70.8914 117.428 74.2695 118.016 77.7005 118.002C79.9706 118.039 82.2455 117.812 84.8543 117.616C84.152 117.835 83.7417 117.978 83.3447 118.077C80.438 118.741 77.4529 118.848 74.5549 118.395ZM97.142 125.969C99.0045 125.696 100.852 125.316 102.678 124.83C102.948 124.719 103.243 124.698 103.518 124.771C103.793 124.844 104.03 125.005 104.191 125.231C103.464 125.578 102.712 125.864 101.941 126.083C100.558 126.319 99.1463 126.367 97.787 126.609C96.764 126.75 95.7711 127.081 94.7534 127.163C92.9753 127.328 91.1914 127.347 89.4332 127.445C89.0101 127.474 88.5861 127.46 88.1689 127.407C87.6598 127.345 87.1479 127.209 86.6293 127.097L86.6637 126.814C86.8919 126.731 87.1284 126.669 87.3675 126.632C90.6023 126.393 93.8723 126.284 97.142 125.969ZM73.715 112.933C75.4764 113.115 77.0814 113.162 78.6491 113.419C81.5864 113.814 84.5698 113.936 87.5561 113.783L88.8811 113.823C88.8988 113.929 88.9075 114.037 88.9087 114.145C88.1585 114.359 87.3914 114.507 86.6195 114.587C83.7288 114.807 80.8361 114.685 78.0073 114.222C77.6851 114.179 77.3725 114.095 77.0751 113.973C76.8112 113.799 76.511 113.682 76.1914 113.63C75.8733 113.578 75.5441 113.592 75.2259 113.673C75.0721 113.724 74.9111 113.746 74.7526 113.735C74.5935 113.725 74.4384 113.686 74.2981 113.617C74.1578 113.548 74.0339 113.452 73.9348 113.335C73.8334 113.217 73.7593 113.082 73.715 112.933ZM76.6129 131.652C76.3634 131.613 76.1094 131.597 75.8548 131.603C74.2366 130.691 72.3978 130.19 70.4971 130.143C70.303 129.43 70.7144 129.117 71.2759 129.167C72.0997 129.193 72.9048 129.362 73.6547 129.667C76.6806 131.195 79.9902 132.161 83.422 132.517C82.722 133.185 82.6481 133.227 81.6996 132.95C80.0575 132.531 78.36 132.049 76.6721 131.618L76.6129 131.652ZM80.5926 89.1032L94.109 88.6021C93.7954 88.8416 93.4522 89.0401 93.0884 89.1924C91.2525 89.4289 89.4003 89.6372 87.5401 89.8314C86.7944 89.9063 86.0348 89.8202 85.2957 89.8725C83.6092 90.0601 82.1737 89.3144 80.6088 89.1314L80.5926 89.1032ZM71.5801 126.683L80.5051 128.482C80.3175 128.909 79.9206 129.007 79.4062 129.005L76.8886 129.016C76.6566 129.042 76.4265 129.015 76.2125 128.938C74.9425 128.209 73.5176 127.756 72.0318 127.604C71.539 127.57 71.1373 127.352 71.5801 126.683ZM117.812 120.016L117.658 119.749C118.033 119.411 118.436 119.101 118.862 118.827C121.194 117.555 123.402 116.069 125.458 114.392C125.458 114.392 125.639 114.4 125.844 114.413C126.127 115.281 125.364 115.873 124.884 116.169C122.677 117.712 120.303 119.005 117.812 120.016ZM102.22 122.769L104.786 122.054L111.603 120.193C111.543 120.535 111.377 120.855 111.126 121.107C110.876 121.358 110.554 121.532 110.206 121.602C107.859 122.321 105.463 122.846 103.045 123.173C102.882 123.172 102.724 123.134 102.582 123.064C102.439 122.995 102.316 122.893 102.22 122.769ZM74.0783 110.997C75.3765 111.128 76.6789 111.369 77.9475 111.517C78.1836 111.519 78.4159 111.563 78.6331 111.646C78.8798 111.766 79.2748 112.006 79.2509 112.17C79.227 112.334 78.747 112.63 78.3577 112.537C77.9684 112.443 77.4513 112.367 76.9947 112.293L70.0473 110.983C69.6513 110.912 69.2501 110.9 68.8555 110.866L68.8856 110.473C70.6752 110.601 72.3465 110.798 74.0783 110.997ZM79.8409 121.511C78.8037 121.285 77.5994 121.625 76.5137 120.733L89.7398 121.714C88.748 122.073 87.6921 122.202 86.6615 122.087C85.5465 122 84.4196 121.995 83.3194 121.9C82.1502 121.839 80.989 121.71 79.8409 121.511ZM62.8094 112.9C63.0017 112.789 63.2087 112.669 63.3084 112.705C65.9581 113.638 68.6986 114.338 71.4962 114.798C71.4962 114.798 71.5773 114.939 71.8011 115.054C69.9699 115.606 65.9165 114.63 62.8094 112.9ZM88.7647 124.642C86.3635 125.413 83.8011 125.365 81.5075 124.506C83.9297 124.178 86.3714 124.216 88.7485 124.614L88.7647 124.642ZM105.697 124.66C107.788 123.775 109.939 123.045 112.13 122.477C112.391 123.17 112.183 123.46 111.765 123.589C111.04 123.802 110.321 123.993 109.595 124.169C108.868 124.346 107.767 124.626 106.852 124.817C106.445 124.875 106.037 124.81 105.68 124.632L105.697 124.66ZM92.5519 124.609C94.6431 123.936 96.8045 123.532 98.9782 123.406C98.5014 124.563 97.6207 124.472 96.863 124.629C95.433 124.999 93.9438 124.991 92.5519 124.609ZM100.941 132.665L104.814 132.301L104.968 132.568C104.679 132.792 104.359 132.977 104.021 133.116C102.965 133.37 101.902 133.648 100.956 132.656L100.941 132.665ZM62.5901 111.15C64.171 111.084 65.7119 111.506 66.9927 112.356C65.3624 112.436 64.0977 111.61 62.5901 111.15ZM67.4021 108.104C68.5882 107.879 69.7979 108.09 70.7975 108.692C69.606 108.794 68.424 108.577 67.3778 108.062L67.4021 108.104ZM83.4886 126.643L83.4543 126.926L80.543 126.733C81.5302 126.256 81.5302 126.256 83.4886 126.643ZM138.776 77.0984C138.776 77.0984 138.703 76.9717 138.671 76.9154L139.047 76.4728C139.047 76.4728 139.12 76.5993 139.152 76.6556C139.036 76.8094 138.91 76.9573 138.776 77.0984ZM31.8228 87.6692C31.871 87.722 31.9067 87.784 31.9282 87.8522C31.9282 87.8522 31.7655 87.9463 31.7211 87.972C31.6768 87.9976 31.1095 87.8004 30.7889 87.7231C30.8815 87.5758 30.9254 87.344 31.0371 87.2982C31.1162 87.2712 31.1996 87.2586 31.2807 87.2623C31.3632 87.2652 31.4434 87.2845 31.5165 87.3191C31.5897 87.3537 31.6551 87.4022 31.7074 87.4621C31.7604 87.5233 31.7987 87.5931 31.8228 87.6692Z" fill="#101A24"/>
</g>
</svg>
