<svg width="247" height="336" viewBox="0 0 247 336" fill="none" xmlns="http://www.w3.org/2000/svg">
<g opacity="0.07">
<path d="M135.52 251.364C136.32 251.498 136.809 250.96 137.382 250.509C138.156 249.952 138.972 249.458 139.823 249.03C140.339 250.069 140.913 251.077 141.54 252.052C142.298 253.07 143.337 253.424 144.052 252.885C144.794 252.355 145.405 251.661 145.839 250.858C146.953 248.328 147.232 245.51 146.635 242.819C145.954 238.64 144.818 234.552 143.246 230.628C143.57 230.834 143.875 231.066 144.16 231.322C144.936 232.365 145.721 233.42 146.597 234.369C147.365 235.17 148.236 235.862 149.189 236.429C150.978 237.485 152.053 237.148 153.088 235.384C153.469 234.7 153.762 233.949 154.308 232.8C155.063 235.164 155.703 237.067 156.263 238.991C156.69 240.43 156.926 241.918 157.41 243.333C158.164 245.477 158.564 247.733 158.593 250.012C158.575 251.839 158.669 253.665 158.873 255.479C158.866 255.991 158.984 256.497 159.217 256.952C159.451 257.407 159.792 257.797 160.212 258.086C160.631 258.376 161.115 258.558 161.622 258.614C162.129 258.671 162.643 258.602 163.119 258.412C163.564 258.323 163.985 258.177 164.514 258.024C164.768 258.797 164.968 259.575 165.267 260.258C166.313 262.63 168.199 262.799 169.704 260.7C170.311 259.879 170.703 258.92 170.845 257.91C170.987 256.9 170.874 255.873 170.517 254.921L169.844 252.21L170.241 252.082C171.256 254.439 172.308 256.77 173.345 259.207C174.719 262.581 176 266.008 177.453 269.36C177.78 270.155 178.372 270.81 179.128 271.213C179.883 271.616 180.756 271.744 181.598 271.574C183.068 271.413 183.889 270.455 184.375 268.461C184.537 267.789 184.773 267.139 185.018 266.349C186.044 266.863 186.832 267.311 187.668 267.646C188.009 267.847 188.403 267.941 188.799 267.916C189.195 267.89 189.575 267.747 189.89 267.504C190.525 266.932 190.359 266.225 190.104 265.45C188.762 261.326 186.325 257.653 183.053 254.826C180.664 252.888 178.593 250.585 176.916 248C178.797 248.722 180.674 249.465 182.567 250.177C183.021 250.439 183.555 250.528 184.071 250.427C184.587 250.327 185.05 250.044 185.378 249.63C186.32 248.581 186.486 247.888 185.72 246.629C185.092 245.735 184.392 244.895 183.625 244.118C183.319 243.826 182.995 243.551 182.655 243.298C182.919 242.894 183.094 242.439 183.17 241.963C183.246 241.487 183.222 241.001 183.098 240.537C182.974 240.072 182.754 239.641 182.452 239.269C182.15 238.897 181.772 238.594 181.345 238.38C178.116 236.1 174.33 235.337 170.641 234.349C167.167 233.656 163.792 232.537 160.592 231.018C160.53 229.815 160.588 228.467 160.347 227.228C160.253 226.139 159.958 225.077 159.477 224.098C158.444 222.379 157.077 220.872 155.989 219.155C155.64 218.811 155.369 218.393 155.196 217.932C155.023 217.471 154.951 216.977 154.987 216.485C156.002 217.154 156.791 218.116 157.25 219.247C158.673 221.846 160.764 222.164 162.32 220.083C162.421 219.974 162.54 219.885 162.672 219.818C162.998 219.951 163.342 220.107 163.714 220.226C165.405 220.845 166.115 219.458 165.832 218.213C165.744 217.766 165.55 217.347 165.265 216.993C164.143 215.662 162.972 214.368 161.789 213.083C161.25 212.486 160.46 212.059 160.609 211.039C161.461 211.153 162.27 211.472 162.971 211.97C163.67 212.468 164.239 213.129 164.628 213.896C166.318 216.599 167.744 219.462 168.884 222.443C169.615 224.262 170.443 226.039 171.367 227.766C172.832 230.295 175.493 230.335 177.217 227.995L177.821 227.18C178.208 227.467 178.608 227.734 179.022 227.979C180.41 228.675 180.841 228.388 181.409 226.862C181.708 226.091 181.753 225.246 181.537 224.451C181.32 223.656 180.854 222.954 180.208 222.449C179.896 222.188 179.654 221.852 179.504 221.473C179.354 221.094 179.301 220.682 179.349 220.276C180.237 220.68 181.076 221.185 181.85 221.78C183.695 223.32 185.337 225.091 186.736 227.051C187.751 228.316 188.872 229.492 190.087 230.564C190.795 231.213 191.707 231.594 192.667 231.641C193.628 231.688 194.576 231.397 195.351 230.819C196.046 230.315 196.564 229.602 196.827 228.783C197.091 227.965 197.086 227.084 196.814 226.272C196.681 225.71 196.602 225.135 196.579 224.556C198.943 222.34 199.016 221.699 197.263 219.215C197.154 219.069 197.037 218.912 196.92 218.754C195.479 216.905 193.526 215.526 191.303 214.791C189.511 214.251 187.84 213.369 186.381 212.196C188.064 211.913 189.07 211.306 189.284 209.914C189.595 207.787 188.019 207.196 186.479 206.652L186.636 205.947C187.012 204.34 186.666 203.748 185.065 203.555C184.108 203.375 183.124 203.383 182.168 203.579C177.463 204.889 172.435 205.763 167.969 207.954C167.6 208.182 167.174 208.298 166.742 208.287C166.31 208.276 165.892 208.139 165.538 207.892L161.807 205.422C162.628 203.726 162.116 202.427 160.628 201.012C161.547 201 162.171 200.796 162.5 200.983C163.485 201.774 164.371 201.259 165.21 200.835C165.814 200.531 166.387 200.168 166.922 199.752L167.061 196.961C168.422 196.746 169.814 196.942 171.059 197.526C173.59 198.671 176.365 199.18 179.144 199.005C180.269 198.767 181.436 198.848 182.514 199.241C183.591 199.632 184.536 200.319 185.243 201.224C185.667 201.794 186.249 202.246 186.709 202.788L194.115 211.574C195.388 213.07 196.944 214.297 198.694 215.184C199.207 215.459 199.785 215.59 200.368 215.564C200.951 215.538 201.516 215.356 202.007 215.036C202.498 214.717 202.896 214.272 203.158 213.748C203.421 213.223 203.54 212.638 203.502 212.054C203.482 211.747 203.538 211.441 203.558 210.933C205.478 211.683 206.586 210.677 207.724 209.46C208.49 208.657 208.496 207.952 207.945 207.212C207.193 206.41 206.382 205.668 205.517 204.991C205.011 204.539 204.465 204.137 203.585 203.437C204.163 203.32 204.751 203.258 205.339 203.251C208.365 203.678 211.384 204.149 214.402 204.618C215.436 204.896 216.52 204.937 217.574 204.738C218.629 204.54 219.627 204.107 220.497 203.472C220.902 203.156 221.23 202.751 221.456 202.289C221.682 201.826 221.799 201.318 221.799 200.805C221.8 200.291 221.682 199.785 221.456 199.325C221.23 198.865 220.902 198.465 220.497 198.154C220 197.791 219.529 197.388 218.947 196.936C219.469 196.543 219.772 196.315 220.004 195.989C220.724 195.358 221.194 194.487 221.327 193.538C221.459 192.589 221.246 191.626 220.726 190.827C219.39 189.184 217.818 188.343 215.788 189.456C214.486 190.209 213.122 190.844 211.71 191.354C209.43 192.107 207.051 192.726 204.766 193.293C204.237 193.371 203.702 193.394 203.169 193.36L203.014 192.947C203.395 192.468 203.821 192.027 204.285 191.629C205.741 190.532 207.291 189.536 208.755 188.451C209.809 187.77 210.784 186.972 211.661 186.072C211.962 185.743 212.176 185.344 212.284 184.912C212.392 184.48 212.392 184.028 212.282 183.597C212.172 183.166 211.957 182.77 211.656 182.446C211.354 182.121 210.977 181.878 210.557 181.738C209.77 181.267 208.885 180.984 207.97 180.909C207.055 180.834 206.134 180.97 205.277 181.306C205.08 181.43 204.855 181.504 204.624 181.518C204.392 181.534 204.161 181.49 203.951 181.393C203.741 181.295 203.559 181.146 203.422 180.96C203.284 180.773 203.196 180.554 203.164 180.324C203.027 179.952 202.772 179.634 202.439 179.422C202.106 179.208 201.713 179.109 201.318 179.14C200.561 179.114 199.821 179.374 199.243 179.87C198.665 180.365 198.291 181.059 198.196 181.813C198.103 182.3 198.085 182.938 197.761 183.24C195.794 185.341 193.555 187.167 191.105 188.67C189.666 189.433 188.233 190.229 186.862 191.109C185.383 192.065 183.593 192.4 181.878 192.044C181.888 191.181 181.942 190.319 182.04 189.461C182.12 189.06 182.464 188.479 182.764 188.424C184.873 188.028 186.61 186.189 188.963 186.783C189.224 186.795 189.483 186.725 189.704 186.583C191.351 185.514 193.051 184.517 194.594 183.334C196.139 182.152 196.147 181.578 194.938 179.953C194.849 179.758 194.795 179.548 194.78 179.334C195.078 179.094 195.405 178.892 195.753 178.733C196.187 178.587 196.587 178.353 196.928 178.047C197.27 177.741 197.546 177.368 197.741 176.952C197.997 176.623 198.149 176.226 198.176 175.81C198.204 175.395 198.106 174.982 197.896 174.625C197.686 174.268 197.373 173.984 196.998 173.81C196.623 173.635 196.203 173.579 195.795 173.649C194.758 173.874 193.757 174.24 192.818 174.737C193.489 173.49 194.297 172.323 195.227 171.257C196.609 169.85 197.619 168.119 198.165 166.223C198.415 165.685 198.522 165.091 198.471 164.501C198.421 163.911 198.217 163.345 197.879 162.861C197.541 162.337 197.034 161.944 196.442 161.75C195.85 161.556 195.209 161.571 194.624 161.793C194.33 161.83 194.033 161.824 193.741 161.777C193.641 161.643 193.596 161.583 193.56 161.535C193.421 160.712 193.289 159.846 193.168 159.048C193.162 158.665 193.059 158.29 192.871 157.958C192.683 157.626 192.414 157.347 192.091 157.147C191.767 156.947 191.397 156.832 191.016 156.812C190.636 156.793 190.256 156.87 189.91 157.035C189.278 157.219 188.701 157.562 188.235 158.032C187.77 158.502 187.431 159.083 187.251 159.72C186.696 161.671 186.256 163.65 185.731 165.616C185.56 166.098 185.351 166.566 185.105 167.015L184.713 166.894C184.628 166.144 184.245 165.222 184.543 164.656C185.436 162.981 184.789 161.424 184.499 159.863C184.421 159.422 184.247 159.006 183.989 158.642C183.731 158.278 183.397 157.978 183.009 157.76C182.621 157.542 182.189 157.413 181.745 157.383C181.3 157.353 180.854 157.422 180.438 157.585C179.783 157.659 179.171 157.952 178.7 158.417C178.228 158.882 177.925 159.491 177.84 160.148C177.83 160.364 177.584 160.567 177.389 160.866C177.051 160.742 176.756 160.625 176.465 160.54C173.726 159.784 172.235 160.604 171.864 163.439C171.702 164.987 171.824 166.549 172.226 168.049C172.849 170.438 173.828 172.747 174.566 175.087C175.293 177.234 175.448 179.539 175.013 181.771C174.853 181.829 174.688 181.871 174.52 181.897C172.203 182.091 169.828 181.646 167.545 182.42C166.124 182.764 164.633 182.622 163.307 182.016C164.196 181.556 164.786 181.281 165.329 180.967C166.157 180.583 166.942 180.112 167.672 179.562C168.119 179.23 168.475 178.791 168.708 178.285C168.94 177.778 169.042 177.222 169.002 176.667C168.866 175.899 167.304 175.352 165.932 175.441C165.103 175.497 164.283 175.489 163.458 175.525C163.401 174.824 163.151 174.155 162.736 173.592C162.32 173.028 161.756 172.593 161.106 172.336C160.456 172.078 159.747 172.008 159.057 172.133C158.368 172.259 157.725 172.574 157.202 173.045C155.999 174.057 154.565 174.754 153.031 175.072C152.772 174.387 152.397 173.754 151.923 173.2C151.381 172.725 150.737 172.383 150.04 172.202C149.344 172.021 148.614 172.005 147.908 172.155C146.847 172.424 145.794 172.706 144.751 173C144.377 173.178 143.971 173.277 143.559 173.291C143.147 173.306 142.736 173.236 142.353 173.085C142.836 172.801 143.344 172.564 143.871 172.377C146.712 171.692 149.602 171.124 152.436 170.353C154.13 169.897 155.78 169.287 157.366 168.532C157.839 168.282 158.216 167.882 158.44 167.395C158.663 166.908 158.72 166.361 158.601 165.841C158.577 165.312 158.373 164.808 158.025 164.414C157.676 164.019 157.203 163.757 156.684 163.67C156.442 163.625 156.201 163.504 155.938 163.456C154.962 163.264 154.874 162.611 155.119 161.821C155.275 161.463 155.451 161.114 155.649 160.778C156.348 159.173 155.485 157.835 154.683 156.603C153.881 155.372 152.716 155.511 151.506 155.742C150.669 155.847 149.861 156.117 149.127 156.537C148.393 156.957 147.748 157.517 147.23 158.188C146.038 159.869 144.499 161.273 142.72 162.304C143.145 161.704 143.427 161.015 143.544 160.29C143.661 159.565 143.61 158.823 143.396 158.123C143.041 156.705 142.43 156.011 141.282 156.631C138.94 157.884 137.476 157.037 136.12 155.239C136.057 155.154 136.07 154.993 136.055 154.947C138.311 151.923 140.557 148.963 142.746 145.951C144.935 142.939 144.688 142.046 141.719 140.346C141.715 139.195 141.596 138.017 140.179 137.588C139.135 137.251 138.003 137.307 136.991 137.745C135.98 138.182 135.16 138.973 134.682 139.97C134.785 138.454 134.861 137.488 134.904 136.528C134.981 135.552 134.998 134.572 134.955 133.594C134.961 132.839 134.745 132.102 134.332 131.474C133.92 130.846 133.33 130.356 132.639 130.067C131.947 129.777 131.184 129.701 130.446 129.847C129.709 129.994 129.03 130.356 128.495 130.89C128.133 131.218 127.796 131.573 127.487 131.952C126.798 131.79 126.113 131.606 125.421 131.465C122.527 130.806 120.534 132.478 120.755 135.321C120.744 136.841 121.248 138.316 122.183 139.506C122.55 139.966 122.804 140.508 122.924 141.086C123.68 144.037 124.391 147.003 125.09 149.979C125.152 150.063 124.898 150.255 124.831 150.343C123.828 148.638 122.892 146.922 121.846 145.287C121.544 144.735 121.061 144.308 120.479 144.077C119.896 143.846 119.25 143.827 118.652 144.021C117.978 144.189 117.382 144.583 116.96 145.137C116.539 145.693 116.32 146.375 116.339 147.07C116.309 147.793 116.387 148.509 116.357 149.233C116.344 149.545 116.315 150.04 116.126 150.144C114.924 150.766 113.987 152.001 112.452 151.871C111.696 153.528 111.579 155.404 112.125 157.133C112.337 157.949 112.385 158.801 112.267 159.639C112.2 160.863 111.672 162.018 110.789 162.869C109.907 163.721 108.736 164.203 107.516 164.22C106.212 164.351 105.356 163.709 104.184 162.566C105.074 162.464 105.533 162.42 105.948 162.392C106.276 162.391 106.599 162.306 106.885 162.142C107.172 161.98 107.412 161.746 107.582 161.463C107.753 161.18 107.849 160.859 107.859 160.529C107.869 160.199 107.795 159.873 107.643 159.582C107.443 158.957 107.08 158.398 106.591 157.965C106.101 157.531 105.505 157.238 104.862 157.115C103.688 156.818 102.544 156.413 101.445 155.905C105.361 155.535 109.13 154.192 112.412 151.996C114.631 149.889 113.133 147.876 111.968 145.953C112.222 145.761 112.429 145.605 112.578 145.398C113.136 144.856 113.499 144.144 113.612 143.374C113.724 142.604 113.579 141.82 113.2 141.145C112.933 140.504 112.475 139.963 111.89 139.595C111.304 139.227 110.619 139.049 109.927 139.087C109.302 139.107 108.69 139.289 108.154 139.616C107.618 139.944 107.175 140.405 106.868 140.955C105.917 142.221 105.02 143.56 104.192 144.864C103.626 145.722 102.896 146.459 102.045 147.033C101.194 147.606 100.238 148.003 99.2349 148.202C100.268 147.045 101.236 146.107 102.032 145.015C102.245 144.705 102.387 144.352 102.448 143.98C102.508 143.609 102.486 143.229 102.383 142.869C102.28 142.508 102.098 142.176 101.851 141.896C101.603 141.615 101.297 141.394 100.953 141.248C100.477 141.068 99.9912 140.916 99.4974 140.793C99.3718 139.837 98.9469 138.947 98.284 138.253C97.621 137.558 96.7543 137.094 95.8089 136.928C95.2061 136.768 94.5742 136.748 93.9608 136.869C93.3473 136.989 92.7682 137.248 92.2671 137.626C91.7661 138.003 91.3562 138.489 91.0682 139.048C90.7801 139.606 90.6216 140.222 90.6044 140.849C90.5681 141.668 90.2908 142.46 89.8075 143.124C89.3242 143.788 88.6567 144.294 87.8893 144.579C86.9783 144.938 86.115 145.411 85.3196 145.985C84.7493 146.432 84.074 146.723 83.36 146.829C82.646 146.936 81.918 146.854 81.2472 146.592C80.1862 146.267 79.1833 145.778 78.2747 145.141C76.2549 143.596 74.3541 141.906 72.3737 140.312C68.5046 137.429 64.4639 134.785 60.2741 132.394C56.7787 130.239 53.203 128.258 49.6798 126.142C46.2948 123.822 42.7257 121.783 39.0101 120.042C36.3351 118.992 33.7482 117.78 31.0123 116.926C26.6431 115.505 22.1141 114.583 17.8169 112.445C17.551 112.8 17.3476 113.196 17.2135 113.619C17.0787 114.883 17.3598 116.154 18.0149 117.237C18.6701 118.319 19.6621 119.154 20.8387 119.613C22.6561 120.325 24.5406 120.874 26.3343 121.605C29.3979 122.874 32.4558 124.185 35.4711 125.566C38.4864 126.948 41.2714 128.275 44.0869 129.693C44.875 130.071 45.6844 130.403 46.5113 130.687C51.4746 132.487 56.2222 134.832 60.6673 137.681C64.3377 140.045 67.84 142.662 71.1494 145.512C73.8649 147.805 76.2193 150.498 78.1325 153.5C79.0968 154.884 80.2732 156.106 81.6189 157.119C84.1992 159.188 86.9891 161.004 89.517 163.131C91.1816 164.708 92.443 166.665 93.195 168.839C93.2764 168.948 93.1032 169.173 92.9899 169.58C92.3753 168.983 91.8816 168.523 91.3967 167.998C90.1407 166.692 88.9759 165.279 87.6567 164.04C84.524 161.101 81.382 158.149 78.1401 155.368C73.1103 151.151 68.3178 146.642 62.8811 142.921C58.6699 140.011 54.2671 137.391 49.7016 135.078C46.512 133.488 43.2427 132.071 39.9433 130.714C38.3539 130.145 36.734 129.666 35.0904 129.279C34.5893 129.157 34.105 128.975 33.6471 128.738C31.6136 127.583 29.5717 126.415 27.5961 125.159C25.8374 124.042 24.1339 122.846 22.4331 121.629C20.7332 120.411 19.3589 119.251 17.7882 118.107C14.3236 115.587 10.7257 113.245 8.02134 109.812C7.80888 109.522 7.52006 109.298 7.18688 109.164C6.85299 109.031 6.48896 108.994 6.13444 109.057C4.6851 109.373 3.15738 109.559 1.42078 109.769C1.43989 110.493 1.49678 111.214 1.59066 111.931C2.00579 113.591 2.94457 115.068 4.26758 116.141C8.37551 119.798 12.8944 122.96 17.7339 125.567C17.6288 125.785 17.5448 126.013 17.4831 126.248C17.0871 129.328 17.1992 131.515 19.8331 132.843C20.1023 133.007 20.4012 133.116 20.7123 133.165C21.0242 133.212 21.3428 133.197 21.6494 133.121C22.4126 133.028 23.1851 133.09 23.9225 133.301C24.5028 133.394 25.0397 133.633 25.6173 133.747C28.3962 134.379 31.2212 134.919 33.9791 135.624C35.3567 135.997 36.6967 136.495 37.9826 137.112C38.8435 137.55 39.6604 138.069 40.4226 138.662C41.1795 139.17 41.8666 139.788 42.6389 140.266C46.6368 142.723 50.4537 145.464 54.0592 148.47C57.8962 151.911 60.7699 156.3 62.3995 161.207C63.2316 163.471 63.8548 165.808 64.2613 168.189C64.6838 170.498 64.4993 172.881 63.7251 175.104C63.0187 177.003 62.4486 178.95 62.0203 180.93C61.527 183.498 62.9334 184.956 65.6027 184.931L67.4746 184.903L67.8813 186.773C68.4254 189.032 69.5819 189.542 71.5339 188.299C72.0648 187.923 72.4892 187.414 72.7643 186.823C73.5109 185.132 73.7138 183.252 73.3455 181.446C73.2101 180.525 73.1654 179.574 73.1238 178.603C73.7468 179.099 74.1949 179.782 74.4042 180.554C75.086 184.014 75.7765 187.487 76.413 190.888C76.8131 193.614 78.6057 195.236 81.0184 194.534C81.9223 194.187 82.7415 193.647 83.4195 192.953C83.8687 192.457 84.2545 191.906 84.5664 191.313C84.7463 191.432 84.9072 191.58 85.0419 191.749C85.7649 193.306 87.1234 193.02 88.1888 191.934C88.6998 191.461 89.0739 190.858 89.2709 190.19C89.4672 189.522 89.4789 188.813 89.3049 188.141C88.8799 185.674 87.7561 183.386 86.0686 181.55C85.7284 181.178 85.4261 180.772 85.1668 180.338C84.2012 179.04 83.2267 177.73 82.3706 176.349C81.8311 175.536 81.3494 174.684 80.9292 173.802C80.7488 173.559 80.9837 173.06 81.0525 172.44C81.8113 172.891 82.539 173.393 83.2294 173.942C83.5623 174.318 83.9782 174.61 84.4445 174.795C84.9102 174.979 85.4134 175.051 85.9134 175.005C86.6285 174.991 87.3243 175.232 87.8767 175.685C89.3898 176.778 90.9061 177.926 90.6486 180.201C90.7034 180.747 90.8439 181.28 91.0656 181.78C91.6944 184.202 91.9868 186.701 91.9345 189.207C91.984 189.653 91.8814 190.105 91.6424 190.487C91.4042 190.869 91.0452 191.16 90.6227 191.312C90.0923 191.541 89.4094 192.226 89.3842 192.624C89.3941 193.197 89.2109 193.758 88.8636 194.216C88.5162 194.673 88.026 195 87.4715 195.143C87.0569 195.339 86.6665 195.582 86.3075 195.868C86.1027 196.009 85.9306 196.193 85.8037 196.407C85.6762 196.621 85.5989 196.861 85.5752 197.109C85.5507 197.357 85.5818 197.606 85.6656 197.84C85.7494 198.073 85.8834 198.285 86.0583 198.46C86.5837 198.928 87.194 199.291 87.8568 199.528C88.6075 199.851 89.4201 200.053 90.4831 200.388C90.215 200.541 89.9293 200.661 89.6323 200.745C87.6904 200.883 85.7157 200.876 83.813 201.192C82.7995 201.427 81.8614 201.918 81.0887 202.62C80.7139 202.844 80.3988 203.158 80.1722 203.532C79.945 203.907 79.8117 204.33 79.7851 204.767C79.7585 205.203 79.8393 205.64 80.0197 206.036C80.1999 206.433 80.4752 206.778 80.82 207.043C81.2927 207.485 81.8109 207.875 82.3663 208.206C82.689 208.426 83.0236 208.629 83.3682 208.814C83.1032 209.146 82.9369 209.329 82.7881 209.535C82.5071 209.892 82.3031 210.302 82.188 210.741C82.0737 211.18 82.0503 211.637 82.1215 212.084C82.192 212.531 82.3548 212.958 82.5986 213.337C82.8428 213.716 83.1634 214.04 83.5393 214.287C84.4662 214.768 85.5104 214.972 86.5515 214.875C88.8418 214.57 91.3219 214.367 93.2299 212.835C93.4 212.707 93.6753 212.746 94.196 212.656C93.6023 213.539 93.1917 214.208 92.7329 214.838C92.442 215.274 92.2568 215.773 92.1903 216.292C92.1235 216.812 92.1774 217.34 92.3485 217.833C92.5896 218.845 93.394 218.805 94.122 219.072C94.6055 219.368 95.0691 219.694 95.5117 220.049C96.1116 220.373 96.8381 220.943 97.395 220.826C98.0474 220.812 98.6868 220.636 99.2559 220.313C99.8255 219.99 100.307 219.53 100.656 218.975C101.068 218.382 101.523 217.818 102.014 217.289C103.635 215.566 104.882 213.524 105.676 211.294C106.204 209.231 106.857 207.207 107.556 204.787C108.458 206 109.071 206.825 109.579 207.787C110.445 209.178 111.641 210.332 113.061 211.144C113.467 211.386 114.284 211.643 114.462 211.451C115.431 210.438 117.017 210.076 117.546 208.598C117.702 208.121 117.919 207.674 118.208 206.945C118.897 208.077 119.871 209.007 121.033 209.64C122.194 210.273 123.504 210.587 124.828 210.55C121.92 212.09 118.816 213.218 115.605 213.903C114.761 214.008 113.945 214.276 113.201 214.692C111.142 215.996 110.573 217.675 112.033 219.356C112.254 219.618 112.459 219.894 112.646 220.181C112.412 220.604 112.223 221.011 111.992 221.413C111.634 221.878 111.442 222.451 111.449 223.037C111.455 223.623 111.659 224.189 112.027 224.641C112.362 225.04 112.805 225.334 113.302 225.489C113.799 225.644 114.331 225.653 114.835 225.516C116.821 224.929 118.858 224.512 120.894 224.017C121.635 225.751 121.635 225.751 123.662 226.058C123.5 226.426 123.333 226.761 123.204 227.122C122.005 230.6 122.533 232.378 125.548 234.498C126.863 235.4 126.839 235.418 126.506 237.109C126.357 237.741 126.342 238.397 126.461 239.034C126.711 240.209 127.402 240.653 128.477 240.165C130.258 239.353 132.094 238.462 132.674 236.341C133.088 234.837 133.358 233.29 133.709 231.777C133.881 230.965 133.724 230.042 134.661 229.393C134.784 229.638 134.82 229.92 134.761 230.189C134.363 232.835 134.029 235.491 133.58 238.119C133.348 239.41 132.821 240.584 132.597 241.887C132.204 243.47 131.769 245.048 131.523 246.653C131.3 247.382 131.311 248.162 131.555 248.883C131.799 249.603 132.262 250.227 132.879 250.665C133.71 251.054 134.605 251.29 135.52 251.364ZM121.355 180.178C123.259 178.743 123.259 178.743 124.007 176.287C125.437 176.86 126.631 177.9 127.397 179.241C128.081 180.301 128.835 181.314 129.653 182.274L130.122 182.904C127.864 183.432 123.856 182.192 121.355 180.178ZM72.822 157.406C69.6486 154.819 66.3992 152.308 63.3437 149.576C59.0641 145.771 54.4808 142.324 49.6393 139.27C48.9184 138.81 48.2617 138.283 47.58 137.774C47.457 137.647 47.3509 137.504 47.2642 137.35C60.1991 142.879 70.9685 151.402 81.0021 160.896L80.8197 161.261C80.4048 161.187 79.9985 161.075 79.6053 160.926C77.7793 160.125 76.1376 159.318 74.4235 158.49C73.8538 158.185 73.3172 157.821 72.822 157.406ZM92.2009 173.279C90.3512 172.192 88.5875 170.966 86.9473 169.779L86.9699 166.45L97.508 176.926C97.3741 177.027 97.2528 177.119 97.1828 177.304C95.2274 176.354 94.0501 174.365 92.2009 173.279Z" fill="white"/>
<path d="M101.051 204.464L103.166 204.764C103.327 205.872 102.213 205.747 101.988 206.106C101.672 207.971 101.472 209.636 101.071 211.262C100.752 212.487 100.417 212.57 99.2405 212.339L100.239 206.987C97.866 207.488 95.8294 208.057 93.6993 208.375C91.5691 208.693 89.6284 208.602 87.5419 208.698C87.3649 207.621 87.707 207.343 88.5268 207.275C90.2996 207.113 92.0092 206.866 94.0512 206.634C93.5781 206.262 93.1285 205.861 92.7039 205.434C92.5328 205.204 92.3227 204.718 92.4389 204.593C92.549 204.452 92.6911 204.337 92.8515 204.259C93.0131 204.18 93.1898 204.139 93.3685 204.139C94.1579 204.435 94.9303 204.776 95.6808 205.16C96.5499 205.565 97.1437 206.821 98.4103 206.056C99.1922 205.58 100.056 205.062 101.051 204.464ZM88.8306 211.475C88.1435 210.933 87.3989 211.077 86.618 211.249C87.3455 211.591 88.0456 211.972 88.8306 211.475ZM109.801 182.637C107.956 182.702 107.273 183.539 107.428 185.427C107.993 185.151 108.496 184.76 108.904 184.28C109.313 183.8 109.618 183.24 109.801 182.637ZM132.837 250.811C132.219 250.372 131.756 249.749 131.512 249.028C131.269 248.308 131.258 247.528 131.48 246.799C131.726 245.194 132.161 243.617 132.555 242.034C132.86 240.763 133.351 239.541 133.538 238.265C133.987 235.636 134.321 232.981 134.719 230.334C134.777 230.065 134.742 229.784 134.619 229.539C133.709 230.225 133.875 231.084 133.666 231.923C133.333 233.46 133.064 235.007 132.632 236.487C132.051 238.609 130.216 239.5 128.434 240.311C127.36 240.8 126.608 240.4 126.419 239.18C126.3 238.542 126.314 237.886 126.463 237.254C126.797 235.564 126.83 235.558 125.506 234.644C122.491 232.525 121.915 230.782 123.162 227.269C123.29 226.907 123.458 226.572 123.62 226.205C121.504 225.906 121.504 225.906 120.852 224.163C118.815 224.657 116.779 225.075 114.793 225.662C114.289 225.799 113.757 225.789 113.26 225.635C112.762 225.48 112.32 225.186 111.985 224.788C111.617 224.335 111.413 223.769 111.406 223.183C111.4 222.597 111.591 222.024 111.949 221.559C112.18 221.157 112.37 220.75 112.604 220.328C112.417 220.04 112.212 219.765 111.99 219.503C110.504 217.784 111.073 216.106 113.158 214.837C113.902 214.422 114.719 214.153 115.562 214.048C118.773 213.364 121.878 212.236 124.786 210.696C123.461 210.733 122.152 210.418 120.99 209.786C119.829 209.153 118.855 208.224 118.166 207.09C117.852 207.838 117.635 208.285 117.503 208.744C116.974 210.221 115.388 210.584 114.42 211.597C114.214 211.753 113.425 211.533 113.018 211.29C111.607 210.459 110.424 209.289 109.575 207.884C109.02 206.959 108.37 206.085 107.553 204.884C106.854 207.304 106.202 209.328 105.673 211.392C104.88 213.621 103.632 215.663 102.012 217.386C101.52 217.916 101.066 218.479 100.653 219.072C100.303 219.627 99.8217 220.087 99.2526 220.41C98.6835 220.733 98.0441 220.909 97.3918 220.923C96.8174 221.015 96.1091 220.47 95.5085 220.147C95.0659 219.792 94.6023 219.465 94.1188 219.169C93.3907 218.903 92.5859 218.941 92.3453 217.93C92.1706 217.415 92.122 216.864 92.2042 216.323C92.2875 215.783 92.499 215.27 92.8211 214.828C93.2798 214.199 93.7267 213.502 94.2835 212.647C93.7634 212.737 93.4887 212.698 93.3185 212.826C91.3173 214.334 88.903 214.524 86.5827 214.89C85.5416 214.987 84.4961 214.783 83.5698 214.302C83.194 214.055 82.874 213.731 82.629 213.352C82.3848 212.972 82.2232 212.546 82.152 212.099C82.0815 211.652 82.1036 211.195 82.2187 210.755C82.3336 210.318 82.5375 209.907 82.8181 209.55C82.9668 209.343 83.1344 209.161 83.3982 208.829C83.0541 208.644 82.7195 208.442 82.3975 208.221C81.8414 207.89 81.3226 207.5 80.8512 207.058C80.5156 206.794 80.2491 206.452 80.0741 206.062C79.8986 205.671 79.8202 205.243 79.8445 204.814C79.8693 204.385 79.9966 203.968 80.2152 203.598C80.4338 203.228 80.7376 202.915 81.1011 202.687C81.8733 201.984 82.8113 201.493 83.8253 201.259C85.7288 200.942 87.7028 200.95 89.6447 200.812C89.9412 200.728 90.2274 200.608 90.4955 200.455C89.4325 200.12 88.6469 199.955 87.8687 199.595C87.2059 199.357 86.5956 198.995 86.0708 198.526C85.8948 198.351 85.7603 198.138 85.6767 197.903C85.5925 197.668 85.5622 197.417 85.5869 197.168C85.612 196.919 85.6919 196.678 85.8214 196.463C85.9501 196.249 86.1247 196.065 86.3324 195.926C86.6907 195.64 87.0814 195.396 87.4965 195.2C88.0497 195.058 88.5411 194.731 88.8885 194.274C89.2358 193.816 89.419 193.255 89.4079 192.681C89.395 192.256 90.1172 191.599 90.6472 191.369C91.076 191.211 91.4379 190.909 91.6729 190.516C91.9066 190.122 91.9997 189.659 91.935 189.207C91.9487 186.693 91.6176 184.191 90.9485 181.774C90.7268 181.274 90.5862 180.741 90.5314 180.195C90.7527 177.947 89.2726 176.772 87.7589 175.679C87.2371 175.254 86.588 175.016 85.9139 175.005C85.3994 175.07 84.8772 175.009 84.3925 174.826C83.9078 174.644 83.4752 174.348 83.1304 173.961C82.4393 173.412 81.7123 172.91 80.9535 172.459C80.884 173.079 80.6979 173.541 80.8302 173.82C81.2504 174.702 81.7315 175.554 82.2709 176.368C83.1758 177.712 84.1259 179.04 85.0673 180.356C85.3264 180.79 85.6287 181.197 85.9696 181.569C87.6571 183.404 88.7809 185.692 89.2059 188.159C89.4077 188.841 89.4157 189.567 89.23 190.257C89.0437 190.945 88.6689 191.569 88.1494 192.059C87.0721 193.154 85.7254 193.431 85.0024 191.874C84.8684 191.704 84.7076 191.556 84.5269 191.438C84.215 192.031 83.8292 192.581 83.3801 193.078C82.7021 193.772 81.8829 194.312 80.979 194.659C78.5663 195.361 76.7736 193.739 76.3735 191.013C75.9034 187.581 75.1316 184.075 74.3654 180.678C74.1554 179.907 73.7073 179.224 73.0844 178.727C73.1622 179.672 73.1618 180.562 73.306 181.571C73.675 183.376 73.4721 185.256 72.7248 186.947C72.4497 187.539 72.0254 188.048 71.4945 188.424C69.5424 189.667 68.3859 189.156 67.8418 186.898L67.4963 184.906L65.6244 184.935C62.9545 184.959 61.5481 183.501 62.0426 180.933C62.4705 178.953 63.0405 177.006 63.747 175.106C64.5204 172.884 64.7052 170.501 64.2827 168.192C63.8695 165.81 63.2398 163.471 62.4 161.207C60.7704 156.3 57.8967 151.911 54.0597 148.47C50.4565 145.469 46.6428 142.732 42.6484 140.278C41.8761 139.8 41.189 139.182 40.432 138.674C39.6699 138.081 38.853 137.562 37.9921 137.124C36.6864 136.513 35.3272 136.022 33.9314 135.66C31.1736 134.955 28.3486 134.415 25.5689 133.784C24.9921 133.669 24.4545 133.431 23.8749 133.337C23.1375 133.126 22.3643 133.065 21.6017 133.157C21.2944 133.234 20.9766 133.249 20.6647 133.201C20.3529 133.153 20.0539 133.044 19.7855 132.879C17.1509 131.552 17.0388 129.365 17.4355 126.284C17.4965 126.05 17.5805 125.822 17.6856 125.603C12.8613 122.982 8.35917 119.807 4.26808 116.141C2.93681 115.08 1.98485 113.613 1.5549 111.959C1.47157 111.232 1.42723 110.501 1.42128 109.769C3.15788 109.559 4.72185 109.346 6.26495 109.13C6.61947 109.066 6.9835 109.104 7.31669 109.237C7.64988 109.371 7.93939 109.595 8.15184 109.885C10.8563 113.317 14.4541 115.66 17.918 118.179C19.4887 119.324 20.993 120.557 22.5637 121.701C24.1344 122.846 25.9679 124.114 27.7259 125.232C29.7015 126.488 31.7441 127.655 33.7769 128.811C34.2349 129.048 34.7198 129.229 35.2202 129.352C36.8639 129.739 38.4844 130.218 40.0738 130.787C43.3461 132.107 46.6425 133.56 49.832 135.151C54.3976 137.463 58.8005 140.084 63.0109 142.994C68.4476 146.715 73.2401 151.224 78.2699 155.441C81.5614 158.185 84.6547 161.173 87.7874 164.112C89.1066 165.352 90.2708 166.765 91.5262 168.071C92.0023 168.584 92.506 169.056 93.1199 169.653C93.2334 169.245 93.3822 169.039 93.3257 168.912C92.5737 166.738 91.3123 164.78 89.6472 163.203C87.1192 161.077 84.3294 159.26 81.7494 157.192C80.4037 156.178 79.2267 154.957 78.2623 153.573C76.3491 150.571 73.9955 147.878 71.2792 145.585C67.9705 142.734 64.4682 140.118 60.7978 137.753C56.3146 134.871 51.5235 132.501 46.5118 130.687C45.7318 130.362 44.9713 129.994 44.2331 129.584C41.3326 128.23 38.5117 126.778 35.6174 125.457C32.7223 124.136 29.5441 122.764 26.4798 121.495C24.6868 120.764 22.8023 120.216 20.9849 119.503C19.8083 119.044 18.8163 118.21 18.1612 117.127C17.506 116.044 17.2242 114.773 17.3597 113.509C17.517 113.109 17.7395 112.737 18.0173 112.408C22.3145 114.546 26.8428 115.468 31.2127 116.889C33.9242 117.761 36.5355 118.954 39.2097 120.006C42.9261 121.746 46.4944 123.786 49.8802 126.105C53.3581 128.236 57 130.205 60.4744 132.357C64.6643 134.748 68.7043 137.393 72.5741 140.275C74.5538 141.869 76.4553 143.559 78.4749 145.104C79.3835 145.741 80.3864 146.23 81.4474 146.555C82.1181 146.817 82.8463 146.899 83.5602 146.792C84.2742 146.686 84.9494 146.395 85.5197 145.948C86.2545 145.401 87.0499 144.941 87.8898 144.579C88.6935 144.311 89.3974 143.801 89.9063 143.12C90.4152 142.439 90.7046 141.618 90.7353 140.77C90.7524 140.143 90.911 139.527 91.199 138.968C91.487 138.41 91.897 137.924 92.398 137.546C92.8991 137.169 93.4782 136.91 94.0916 136.789C94.7051 136.668 95.337 136.689 95.9397 136.849C96.8852 137.015 97.7519 137.479 98.4148 138.173C99.0778 138.868 99.5026 139.757 99.6282 140.713C100.122 140.836 100.608 140.988 101.084 141.169C101.428 141.315 101.734 141.536 101.981 141.816C102.229 142.097 102.411 142.429 102.514 142.79C102.617 143.15 102.639 143.53 102.579 143.901C102.518 144.272 102.376 144.626 102.164 144.936C101.367 146.028 100.362 146.993 99.3655 148.122C100.369 147.924 101.325 147.526 102.176 146.953C103.027 146.381 103.757 145.643 104.323 144.785C105.238 143.471 106.135 142.132 106.999 140.876C107.306 140.327 107.749 139.865 108.285 139.538C108.822 139.21 109.432 139.027 110.058 139.007C110.75 138.97 111.435 139.147 112.021 139.515C112.606 139.884 113.063 140.425 113.33 141.066C113.71 141.741 113.855 142.525 113.743 143.295C113.63 144.064 113.266 144.777 112.709 145.32C112.515 145.466 112.308 145.621 112.099 145.874C113.203 147.842 114.81 149.773 112.543 151.917C109.261 154.112 105.492 155.456 101.575 155.826C102.675 156.333 103.819 156.739 104.993 157.037C105.636 157.159 106.233 157.452 106.721 157.886C107.211 158.32 107.574 158.878 107.774 159.503C107.926 159.794 108.001 160.12 107.99 160.449C107.979 160.779 107.884 161.101 107.714 161.384C107.543 161.666 107.303 161.9 107.017 162.064C106.73 162.226 106.407 162.312 106.079 162.313C105.616 162.378 105.156 162.421 104.316 162.487C105.487 163.629 106.343 164.271 107.647 164.141C108.855 164.121 110.014 163.642 110.892 162.803C111.769 161.962 112.3 160.822 112.379 159.611C112.498 158.773 112.45 157.922 112.238 157.105C111.692 155.376 111.808 153.5 112.564 151.844C114.1 151.974 115.036 150.739 116.239 150.116C116.409 149.988 116.456 149.517 116.47 149.205C116.5 148.482 116.421 147.765 116.451 147.042C116.432 146.347 116.652 145.665 117.073 145.11C117.494 144.555 118.091 144.161 118.764 143.994C119.362 143.799 120.008 143.818 120.591 144.049C121.174 144.281 121.657 144.708 121.958 145.259C123.004 146.894 123.941 148.611 124.943 150.315C125.028 150.251 125.247 150.087 125.202 149.951C124.503 146.975 123.793 144.01 123.037 141.059C122.917 140.481 122.663 139.939 122.296 139.478C121.326 138.311 120.783 136.845 120.755 135.321C120.507 132.441 122.452 130.806 125.31 131.417C126.002 131.558 126.687 131.742 127.376 131.904C127.685 131.525 128.022 131.169 128.384 130.841C128.919 130.309 129.598 129.945 130.335 129.799C131.073 129.652 131.836 129.729 132.527 130.018C133.219 130.308 133.808 130.797 134.221 131.425C134.633 132.053 134.85 132.791 134.844 133.546C134.93 134.541 134.953 135.541 134.914 136.54C134.87 137.5 134.821 138.502 134.691 139.982C135.169 138.985 135.99 138.195 137.001 137.756C138.012 137.319 139.145 137.263 140.188 137.6C141.605 138.029 141.724 139.207 141.729 140.358C144.725 142.019 144.969 142.857 142.75 145.929C140.53 149.003 138.314 151.901 136.058 154.926C136.058 154.926 136.061 155.133 136.123 155.217C137.468 157.025 138.943 157.863 141.285 156.609C142.434 155.99 143.045 156.684 143.399 158.102C143.617 158.805 143.669 159.551 143.551 160.28C143.434 161.01 143.149 161.702 142.72 162.304C144.499 161.273 146.038 159.869 147.23 158.188C148.215 156.853 149.674 155.951 151.301 155.669C152.511 155.439 153.733 155.427 154.478 156.531C155.224 157.635 156.161 159.048 155.444 160.705C155.246 161.042 155.07 161.39 154.914 161.748C154.669 162.539 154.757 163.191 155.733 163.384C155.996 163.432 156.237 163.553 156.479 163.598C156.998 163.684 157.471 163.947 157.82 164.341C158.169 164.736 158.372 165.239 158.396 165.768C158.516 166.291 158.459 166.841 158.233 167.33C158.007 167.819 157.625 168.22 157.149 168.468C155.563 169.224 153.913 169.833 152.219 170.289C149.385 171.061 146.496 171.63 143.654 172.313C143.127 172.501 142.619 172.738 142.136 173.021C142.519 173.172 142.93 173.243 143.342 173.228C143.755 173.214 144.16 173.114 144.534 172.937C145.577 172.643 146.63 172.361 147.691 172.091C148.397 171.941 149.127 171.957 149.824 172.139C150.52 172.32 151.165 172.662 151.706 173.137C152.18 173.691 152.555 174.324 152.814 175.008C154.348 174.691 155.782 173.995 156.985 172.982C157.509 172.511 158.151 172.195 158.84 172.07C159.53 171.945 160.239 172.014 160.889 172.272C161.539 172.53 162.103 172.964 162.519 173.528C162.934 174.092 163.184 174.761 163.24 175.461C164.066 175.427 164.886 175.434 165.714 175.377C167.088 175.289 168.649 175.835 168.784 176.603C168.825 177.158 168.724 177.715 168.491 178.221C168.258 178.727 167.902 179.167 167.455 179.498C166.725 180.049 165.94 180.52 165.111 180.903C164.614 181.278 163.978 181.492 163.09 181.953C164.416 182.559 165.907 182.7 167.328 182.356C169.656 181.644 171.986 182.027 174.303 181.833C174.471 181.809 174.636 181.766 174.797 181.708C175.231 179.475 175.077 177.171 174.348 175.024C173.647 172.656 172.631 170.374 172.009 167.985C171.608 166.486 171.485 164.923 171.646 163.375C172.018 160.541 173.509 159.72 176.248 160.476C176.538 160.561 176.834 160.679 177.172 160.803C177.367 160.505 177.613 160.3 177.623 160.085C177.708 159.429 178.011 158.819 178.483 158.354C178.954 157.889 179.566 157.596 180.221 157.521C180.649 157.329 181.115 157.239 181.582 157.258C182.049 157.277 182.505 157.405 182.913 157.63C183.321 157.856 183.672 158.175 183.936 158.561C184.2 158.946 184.371 159.389 184.436 159.854C184.726 161.414 185.355 162.947 184.48 164.647C184.182 165.213 184.565 166.135 184.65 166.885L185.042 167.006C185.288 166.557 185.497 166.089 185.668 165.607C186.132 163.686 186.633 161.663 187.188 159.711C187.375 159.068 187.724 158.484 188.201 158.015C188.678 157.546 189.267 157.209 189.911 157.035C190.255 156.872 190.633 156.797 191.011 156.816C191.39 156.837 191.757 156.951 192.079 157.15C192.402 157.348 192.669 157.624 192.858 157.954C193.047 158.283 193.15 158.655 193.16 159.036C193.308 159.871 193.431 160.724 193.552 161.522C193.552 161.522 193.633 161.632 193.732 161.765C194.024 161.811 194.321 161.817 194.615 161.781C195.2 161.559 195.842 161.544 196.434 161.738C197.026 161.932 197.533 162.324 197.871 162.849C198.208 163.333 198.413 163.899 198.463 164.489C198.513 165.079 198.407 165.673 198.156 166.211C197.611 168.107 196.6 169.837 195.218 171.244C194.288 172.31 193.48 173.478 192.809 174.724C193.749 174.228 194.75 173.862 195.786 173.636C196.195 173.567 196.614 173.624 196.989 173.797C197.364 173.972 197.677 174.256 197.887 174.613C198.098 174.97 198.195 175.383 198.168 175.798C198.14 176.213 197.988 176.611 197.732 176.94C197.538 177.356 197.262 177.729 196.92 178.035C196.578 178.342 196.178 178.575 195.745 178.721C195.396 178.879 195.069 179.081 194.772 179.322C194.787 179.536 194.84 179.746 194.929 179.941C196.138 181.567 196.169 182.092 194.586 183.322C193.003 184.553 191.342 185.501 189.696 186.571C189.475 186.714 189.216 186.783 188.954 186.77C186.613 186.168 184.837 187.979 182.755 188.412C182.456 188.467 182.112 189.048 182.031 189.449C181.921 190.316 181.855 191.187 181.833 192.059C183.548 192.415 185.338 192.08 186.817 191.124C188.187 190.243 189.621 189.448 191.06 188.685C193.51 187.183 195.749 185.356 197.716 183.254C198.068 182.989 198.058 182.315 198.151 181.829C198.246 181.073 198.619 180.38 199.197 179.884C199.776 179.39 200.516 179.129 201.273 179.155C201.668 179.125 202.062 179.223 202.394 179.436C202.727 179.65 202.981 179.967 203.119 180.339C203.15 180.569 203.239 180.788 203.376 180.974C203.514 181.161 203.696 181.31 203.906 181.408C204.116 181.506 204.347 181.549 204.579 181.534C204.81 181.518 205.034 181.445 205.231 181.321C206.089 180.986 207.01 180.85 207.925 180.924C208.84 181 209.725 181.283 210.512 181.753C210.933 181.888 211.312 182.128 211.617 182.449C211.921 182.77 212.14 183.163 212.254 183.592C212.368 184.021 212.374 184.473 212.27 184.906C212.167 185.339 211.958 185.74 211.662 186.072C210.809 186.975 209.858 187.78 208.828 188.472C207.373 189.569 205.823 190.565 204.359 191.65C203.88 192.055 203.442 192.506 203.05 192.995L203.205 193.408C203.738 193.443 204.274 193.42 204.802 193.341C207.136 192.738 209.466 192.155 211.747 191.403C213.159 190.893 214.523 190.258 215.824 189.504C217.854 188.391 219.414 189.242 220.762 190.875C221.284 191.677 221.496 192.643 221.361 193.594C221.226 194.544 220.752 195.416 220.028 196.047C219.724 196.275 219.421 196.503 218.972 196.994C219.554 197.445 220.024 197.848 220.521 198.212C220.936 198.524 221.272 198.929 221.502 199.396C221.733 199.863 221.851 200.378 221.849 200.901C221.846 201.423 221.721 201.938 221.485 202.405C221.249 202.872 220.909 203.278 220.49 203.59C219.621 204.226 218.623 204.659 217.569 204.857C216.514 205.055 215.43 205.015 214.396 204.737C211.377 204.267 208.358 203.797 205.334 203.37C204.745 203.376 204.157 203.438 203.579 203.556C204.459 204.255 205.005 204.657 205.511 205.109C206.375 205.786 207.187 206.529 207.939 207.33C208.55 208.024 208.526 208.781 207.719 209.578C206.58 210.796 205.472 211.801 203.552 211.052C203.532 211.559 203.476 211.866 203.496 212.173C203.534 212.757 203.415 213.342 203.152 213.866C202.889 214.39 202.492 214.835 202.001 215.155C201.511 215.475 200.944 215.657 200.362 215.682C199.779 215.709 199.201 215.577 198.688 215.303C196.938 214.416 195.382 213.188 194.109 211.693L186.703 202.907C186.279 202.336 185.661 201.912 185.237 201.343C184.531 200.438 183.585 199.75 182.508 199.359C181.43 198.967 180.263 198.885 179.138 199.124C176.359 199.298 173.584 198.79 171.052 197.644C169.822 197.022 168.432 196.783 167.061 196.961L167.079 199.938C166.545 200.353 165.971 200.716 165.366 201.019C164.482 201.383 163.597 201.898 162.656 201.168C162.376 200.944 161.753 201.149 160.785 201.196C162.273 202.612 162.797 203.901 161.965 205.607L165.695 208.078C166.049 208.324 166.467 208.461 166.899 208.472C167.331 208.483 167.757 208.367 168.126 208.139C172.628 205.921 177.572 205.111 182.325 203.764C183.281 203.568 184.264 203.56 185.221 203.739C186.823 203.933 187.168 204.524 186.793 206.132L186.636 206.837C188.176 207.38 189.755 208.027 189.441 210.099C189.227 211.491 188.16 212.143 186.538 212.38C187.997 213.554 189.667 214.435 191.46 214.976C193.682 215.711 195.636 217.089 197.077 218.939C197.194 219.096 197.311 219.254 197.42 219.4C199.164 221.872 199.101 222.525 196.736 224.741C196.759 225.32 196.837 225.894 196.971 226.456C197.243 227.269 197.248 228.149 196.984 228.968C196.721 229.787 196.203 230.501 195.508 231.004C194.733 231.582 193.784 231.872 192.824 231.826C191.864 231.779 190.952 231.399 190.244 230.748C189.029 229.676 187.907 228.501 186.893 227.235C185.494 225.277 183.852 223.505 182.007 221.964C181.222 221.382 180.374 220.89 179.478 220.5C179.43 220.906 179.484 221.318 179.633 221.697C179.784 222.077 180.026 222.412 180.338 222.673C180.984 223.179 181.45 223.881 181.666 224.675C181.882 225.471 181.838 226.316 181.538 227.086C180.97 228.612 180.54 228.899 179.151 228.204C178.738 227.958 178.337 227.691 177.951 227.404L177.346 228.22C175.577 230.574 172.925 230.547 171.496 227.99C170.573 226.263 169.744 224.486 169.014 222.668C167.823 219.629 166.336 216.718 164.574 213.976C164.185 213.208 163.616 212.546 162.916 212.049C162.216 211.551 161.406 211.231 160.554 211.117C160.405 212.138 161.178 212.54 161.735 213.162C162.918 214.447 164.089 215.742 165.211 217.072C165.496 217.427 165.69 217.845 165.778 218.292C166.06 219.537 165.332 220.899 163.66 220.305C163.288 220.187 162.944 220.03 162.618 219.897C162.486 219.964 162.367 220.054 162.266 220.162C160.71 222.243 158.618 221.926 157.196 219.326C156.737 218.195 155.948 217.233 154.933 216.564C154.897 217.056 154.968 217.55 155.142 218.011C155.315 218.472 155.585 218.89 155.935 219.234C157.05 220.912 158.344 222.473 159.423 224.178C159.904 225.157 160.199 226.218 160.293 227.307C160.484 228.582 160.476 229.895 160.538 231.097C163.737 232.616 167.112 233.734 170.587 234.428C174.285 235.428 178.061 236.179 181.29 238.459C181.718 238.673 182.095 238.976 182.397 239.348C182.7 239.719 182.92 240.152 183.044 240.616C183.167 241.08 183.192 241.566 183.116 242.042C183.04 242.518 182.864 242.972 182.601 243.377C182.941 243.63 183.264 243.904 183.571 244.197C184.338 244.974 185.038 245.814 185.666 246.708C186.459 248.003 186.266 248.66 185.324 249.71C184.996 250.123 184.532 250.406 184.016 250.507C183.501 250.607 182.967 250.518 182.513 250.257C180.62 249.544 178.742 248.801 176.862 248.079C178.539 250.664 180.61 252.967 182.999 254.905C186.271 257.732 188.708 261.405 190.05 265.53C190.259 266.243 190.425 266.95 189.836 267.583C189.52 267.826 189.14 267.97 188.744 267.995C188.348 268.02 187.955 267.926 187.613 267.725C186.777 267.389 185.99 266.942 184.964 266.428C184.718 267.218 184.483 267.869 184.32 268.541C183.883 270.497 182.978 271.444 181.544 271.654C180.702 271.823 179.829 271.696 179.074 271.292C178.318 270.889 177.726 270.234 177.398 269.44C175.954 266.099 174.674 262.673 173.291 259.286C172.299 256.91 171.247 254.579 170.187 252.161L169.79 252.289L170.541 254.979C170.899 255.931 171.012 256.958 170.87 257.968C170.728 258.978 170.336 259.937 169.729 260.758C168.215 262.845 166.329 262.676 165.292 260.316C164.983 259.62 164.766 258.819 164.539 258.082C164.009 258.234 163.588 258.381 163.143 258.47C162.663 258.647 162.146 258.701 161.641 258.631C161.136 258.56 160.657 258.365 160.245 258.063C159.834 257.762 159.503 257.363 159.283 256.901C159.062 256.44 158.958 255.931 158.98 255.418C158.775 253.603 158.681 251.778 158.699 249.951C158.67 247.672 158.271 245.416 157.517 243.271C157.033 241.857 156.797 240.37 156.37 238.931C155.809 237.006 155.17 235.103 154.415 232.739C153.868 233.888 153.575 234.639 153.195 235.324C152.196 237.136 151.121 237.472 149.296 236.368C148.343 235.802 147.471 235.109 146.703 234.308C145.816 233.369 145.079 232.277 144.267 231.261C143.982 231.005 143.676 230.773 143.353 230.568C144.925 234.491 146.061 238.579 146.742 242.758C147.305 245.466 146.983 248.291 145.824 250.812C145.39 251.616 144.78 252.309 144.038 252.839C143.31 253.387 142.283 253.025 141.526 252.007C140.898 251.031 140.325 250.023 139.808 248.985C138.958 249.413 138.141 249.907 137.368 250.463C136.786 250.902 136.245 251.499 135.505 251.318C134.592 251.309 133.689 251.137 132.837 250.811ZM20.5341 129.306C20.7909 129.823 21.1624 130.274 21.6201 130.625C22.0777 130.976 22.6094 131.216 23.1749 131.329L31.9531 133.46C30.0748 131.392 23.6823 129.186 20.5341 129.306ZM160.078 232.769C159.081 232.422 158.374 232.387 157.632 233.248C157.937 234.268 158.232 235.275 158.588 236.314C160.172 240.813 161.167 245.503 161.546 250.267C161.595 251.706 161.623 253.143 161.804 254.558C162.015 256.292 162.417 256.501 164.123 256.047C165.458 255.704 165.905 255.897 166.39 257.16C166.579 257.643 166.607 258.189 166.867 258.692C167.129 259.196 167.531 259.839 167.937 260.537C168.518 260.078 168.956 259.46 169.2 258.76C169.443 258.059 169.483 257.305 169.313 256.586C169.027 255.438 168.796 254.287 168.507 253.161C168.332 252.782 168.248 252.366 168.264 251.947C168.28 251.528 168.395 251.119 168.6 250.752C168.804 250.385 169.092 250.073 169.44 249.839C169.788 249.605 170.185 249.458 170.6 249.408C171.066 250.212 171.63 251.074 172.059 251.98C172.488 252.888 172.973 254.151 173.406 255.243C174.631 258.314 175.819 261.412 177.098 264.48C177.697 265.922 178.541 267.387 179.258 268.834C179.656 269.65 180.413 269.573 181.132 269.598C181.851 269.624 182.244 269.082 182.401 268.378C182.558 267.673 182.806 266.861 183.066 266.116C183.123 265.758 183.272 265.42 183.498 265.135C183.724 264.851 184.019 264.63 184.354 264.493C184.69 264.357 185.054 264.31 185.411 264.357C185.769 264.404 186.108 264.545 186.394 264.763L188.151 265.598C188.061 264.974 187.904 264.362 187.684 263.773C186.22 261.009 184.374 258.468 182.201 256.225C180.91 254.87 179.497 253.607 178.23 252.235C176.962 250.861 176.06 249.648 174.988 248.335C174.685 248.051 174.492 247.665 174.446 247.249C174.4 246.832 174.504 246.413 174.738 246.064C175.364 245.176 176.148 245.721 176.852 246.005C178.657 246.727 180.468 247.482 182.264 248.191C182.668 248.42 183.14 248.494 183.596 248.401C184.051 248.308 184.459 248.054 184.746 247.685C184.162 247.027 183.653 246.369 183.075 245.82C182.497 245.272 181.878 245 181.354 244.525C181.029 244.298 180.8 243.958 180.711 243.571C180.622 243.184 180.68 242.776 180.872 242.427C181.65 240.8 181.58 240.834 180.275 239.791C177.324 237.529 173.754 237.133 170.264 235.978C166.773 234.822 163.45 233.918 160.078 232.769ZM167.092 210.185C166.243 210.163 165.408 209.448 164.584 209.028C163.584 208.558 162.617 208.023 161.688 207.425C160.578 206.619 159.268 206.133 157.899 206.02C157.071 206.039 156.246 205.934 155.451 205.707C152.091 204.32 148.765 202.852 145.433 201.425C145.193 201.337 144.947 201.27 144.696 201.223C145.544 201.934 146.479 202.533 147.479 203.006C148.372 203.33 149.179 203.85 149.842 204.53C150.505 205.21 151.006 206.031 151.31 206.934C151.419 207.361 151.691 207.727 152.067 207.953C154.932 209.259 156.609 211.819 158.647 213.974C158.999 214.447 159.445 214.868 158.749 215.79C156.011 213.764 154.377 210.32 151.251 209.401C150.006 210.093 149.079 210.602 148.164 211.103L150.239 215.216C151.176 216.575 151.611 218.221 151.47 219.873C150.055 218.837 149.835 217.319 149.126 216.188C148.417 215.057 147.642 213.634 147 212.49C146.059 212.65 145.353 212.821 144.679 212.857C142.74 212.973 141.573 211.658 140.432 210.378C139.607 209.396 138.606 208.577 137.481 207.965C136.92 208.992 136.86 209.038 137.242 209.526C138.875 211.722 140.381 214.051 142.87 215.412C143.406 215.618 143.93 215.855 144.439 216.122C146.191 217.358 147.982 218.544 149.603 219.935C151.187 221.274 152.655 222.745 153.991 224.332C154.63 225.142 154.997 226.135 155.04 227.17C155.082 228.205 154.799 229.23 154.228 230.097C154.574 230.435 154.958 230.729 155.374 230.975C156.741 231.591 158.737 230.712 158.73 229.43C158.919 227.734 158.525 226.028 157.613 224.595C156.458 223.042 155.303 221.489 154.233 219.873C153.667 219.28 153.284 218.533 153.133 217.724C152.981 216.915 153.066 216.077 153.378 215.313C153.975 214.029 154.62 213.827 155.842 214.554C157.059 215.437 158.007 216.641 158.583 218.035C158.728 218.423 158.974 218.764 159.294 219.025C159.614 219.285 159.998 219.456 160.406 219.519C160.914 218.777 161.37 218.092 161.842 217.377L163.588 217.765C163.524 217.51 163.429 217.264 163.306 217.031C160.831 214.467 158.353 211.924 155.899 209.363C155.234 208.672 154.487 207.948 155.286 206.758C155.738 206.991 156.216 207.172 156.709 207.296C159.68 207.581 162.492 208.761 164.774 210.683C166.865 212.742 168.462 215.254 169.444 218.028C170.606 220.787 171.895 223.488 173.057 226.246C173.53 227.365 174.243 227.662 174.963 227.46C175.675 226.646 176.44 225.88 177.253 225.167C178.235 224.427 178.883 225.832 180.18 225.896C179.721 224.973 179.421 224.291 179.04 223.651C178.658 223.011 177.948 222.183 177.594 221.351C177.241 220.52 177.232 219.032 177.826 218.584C178.676 217.944 179.518 218.161 180.367 218.563C182.099 219.459 183.646 220.675 184.927 222.149C186.643 223.998 188.268 225.954 189.875 227.885C190.281 228.398 190.786 228.823 191.359 229.135C191.933 229.447 192.564 229.64 193.215 229.703C194.318 229.838 194.83 229.584 195.115 228.517C195.269 227.821 195.312 227.105 195.242 226.397C195.149 225.812 195.017 225.235 194.846 224.669C194.776 224.468 194.746 224.253 194.759 224.039C194.772 223.825 194.827 223.615 194.922 223.422C195.016 223.229 195.148 223.057 195.31 222.916C195.471 222.775 195.658 222.666 195.862 222.599C196.142 222.453 196.414 222.293 196.677 222.117C196.256 220.768 195.472 219.564 194.411 218.638C192.352 216.885 189.968 215.556 187.394 214.726C186.438 214.326 185.527 213.826 184.675 213.235C184.408 213.113 184.2 212.889 184.097 212.612C183.993 212.335 184.004 212.028 184.125 211.757C184.442 211.219 184.894 210.774 185.436 210.467C185.752 210.229 186.349 210.498 186.767 210.373C187.155 210.213 187.518 209.998 187.843 209.732C187.622 209.31 187.336 208.925 186.995 208.592C186.654 208.337 186.119 208.382 185.699 208.224C184.377 207.744 184.272 207.502 184.656 206.058C184.702 205.891 184.621 205.706 184.568 205.405C183.916 205.364 183.262 205.388 182.614 205.476C180.45 205.952 178.295 206.44 176.2 207.033C174.106 207.628 171.756 208.489 169.522 209.227C168.722 209.45 167.9 210.202 167.092 210.185ZM165.089 197.897C165.035 197.825 164.874 197.813 164.639 197.726C164.528 198.187 164.417 198.649 164.279 199.303C165.422 199.084 165.404 198.55 165.08 197.886L165.089 197.897ZM155.974 193.635C152.66 193.634 149.355 193.796 146.041 193.794C145.197 193.793 144.364 193.623 143.587 193.295C143.139 193.027 142.815 192.591 142.685 192.082C142.617 191.736 143.067 191.17 143.431 190.896C143.907 190.557 144.449 190.323 145.021 190.209C146.468 189.915 147.935 189.698 149.46 189.458C149.758 188.893 150.072 188.297 150.38 187.743C149.668 187.544 148.972 187.29 148.3 186.982C147.518 186.568 147.845 185.735 147.751 185.049C147.7 184.636 147.566 184.239 147.356 183.882C147.146 183.524 146.864 183.214 146.529 182.972C146.194 182.729 145.813 182.558 145.408 182.47C145.004 182.382 144.585 182.379 144.178 182.46C143.472 182.587 142.752 182.613 142.04 182.537C141.626 182.468 141.201 182.513 140.809 182.668C140.417 182.823 140.075 183.082 139.817 183.417C138.171 185.127 136.016 186.252 133.682 186.62C130.108 187.271 126.428 186.6 123.324 184.733C121.915 183.917 120.582 182.976 119.341 181.923C118.313 181.05 117.54 179.91 116.565 178.98C115.921 178.546 115.225 178.192 114.494 177.927C114.696 178.398 114.937 178.849 115.215 179.277C116.47 180.584 117.723 181.911 119.067 183.132C120.106 184.071 121.397 184.764 122.376 185.75C123.584 186.941 124.552 188.369 126.552 187.979C126.706 187.957 126.893 188.157 127.077 188.226C129.112 189.003 131.153 189.812 133.206 190.537C133.63 190.656 134.083 190.628 134.491 190.457C137.479 189.343 140.339 187.906 143.02 186.171C143.129 186.089 143.371 186.21 143.583 186.24C143.615 186.461 143.741 186.707 143.662 186.805C141.793 189.254 138.874 190.013 136.169 191.465C138.464 193.111 141.052 194.302 143.796 194.975C147.645 195.671 151.367 197.011 155.366 196.838C155.712 196.858 156.054 196.91 156.39 196.994C156.413 197.279 156.485 197.452 156.442 197.522C156.175 197.875 155.877 198.213 155.604 198.532C156.299 200.205 156.299 200.205 155.358 200.95L154.767 199.977C154.546 199.578 154.299 199.195 154.027 198.831C153.886 198.63 153.704 198.46 153.495 198.331C153.286 198.204 153.052 198.12 152.809 198.086C152.565 198.051 152.317 198.067 152.079 198.131C151.841 198.196 151.619 198.309 151.426 198.463C151.109 198.839 150.857 199.266 150.679 199.725L149.561 198.883C149.123 198.43 148.613 198.053 148.051 197.769C146.127 197.193 144.154 196.806 142.215 196.26C141.219 195.962 140.244 195.595 139.298 195.164C138.311 194.753 137.343 194.29 136.398 193.81C136.736 194.905 137.214 195.95 137.822 196.92C138.326 197.827 138.737 198.786 139.165 199.693C139.438 200.345 139.765 200.972 140.143 201.568C141.19 202.975 142.322 204.318 143.283 205.789C143.374 205.973 143.414 206.178 143.401 206.384C143.388 206.589 143.322 206.789 143.209 206.961C142.724 207.327 142.277 207.21 141.938 206.652C141.258 205.535 140.577 204.44 139.873 203.342L137.821 200.252C136.624 198.465 135.473 196.664 134.204 194.932C133.618 194.144 132.467 193.742 132.702 192.429C132.727 192.259 132.297 191.884 132.037 191.815C130.518 191.426 128.986 191.123 127.155 190.723C129.555 193.95 131.747 196.897 133.94 199.844C135.302 201.676 136.646 203.483 138.212 205.181C139.777 206.878 141.416 208.445 143.072 210.111C143.309 210.414 143.631 210.639 143.995 210.758C144.36 210.877 144.752 210.885 145.123 210.781L146.157 208.583C146.688 208.712 147.051 208.818 147.419 208.88C147.725 209.004 148.065 209.007 148.374 208.89C148.684 208.773 148.938 208.544 149.088 208.248C149.247 207.956 149.306 207.619 149.257 207.29C149.208 206.962 149.052 206.659 148.814 206.43C148.263 205.881 147.642 205.406 146.969 205.018C145.413 204.071 143.832 203.142 142.218 202.296C141.833 202.116 141.524 201.803 141.349 201.414C141.175 201.025 141.145 200.586 141.265 200.174C141.288 199.956 141.358 199.745 141.47 199.555C141.583 199.366 141.734 199.203 141.914 199.078C142.095 198.953 142.3 198.868 142.516 198.831C142.731 198.792 142.952 198.802 143.163 198.858C144.25 199.034 145.315 199.323 146.341 199.72C147.425 200.133 148.435 200.754 149.467 201.149C151.562 202.031 153.645 202.923 155.78 203.68C157.157 204.244 158.689 204.319 160.121 203.893C158.316 201.466 158.642 200.275 161.134 199.173L161.28 199.063C163.389 198.157 163.611 196.853 161.839 195.463C160.143 194.211 158.076 193.563 155.965 193.623L155.974 193.635ZM121.075 199.523C121.35 200.211 121.457 200.955 121.388 201.695C121.32 202.435 121.078 203.148 120.68 203.777L123.817 202.701C123.434 200.226 123.621 198.646 126.969 199.304C127.797 199.475 128.648 199.932 129.557 199.398C128.261 195.416 120.801 187.068 115.545 183.666C114.926 184.132 114.489 184.613 115.272 185.385C115.663 185.822 116.013 186.292 116.319 186.793C116.721 187.225 116.978 187.775 117.053 188.363C117.127 188.952 117.016 189.551 116.735 190.075C116.323 190.575 115.767 190.935 115.145 191.105C114.522 191.275 113.864 191.249 113.26 191.027L107.589 189.129L107.291 189.468C107.458 189.867 107.693 190.234 107.986 190.553C110.104 192.452 112.54 193.961 115.182 195.011C116.243 195.485 117.275 196.022 118.272 196.62C119.512 197.235 120.501 198.259 121.075 199.523ZM113.523 178.224L113.648 177.884L108.998 174.763L108.256 176.742L113.523 178.224ZM129.32 178.721C130.015 180.523 131.137 182.127 132.588 183.394C132.391 182.43 131.999 181.518 131.437 180.714C130.875 179.911 130.154 179.232 129.32 178.721ZM134.485 183.119C135.285 182.516 135.955 182.144 136.922 181.51L133.215 180.064L132.99 180.346L134.485 183.119ZM123.972 176.239C123.296 178.792 123.296 178.792 121.319 180.13C123.821 182.144 127.828 183.383 129.989 182.853L129.521 182.223C128.702 181.263 127.949 180.25 127.265 179.19C126.523 177.867 125.365 176.829 123.972 176.239ZM151.679 190.228C151.558 190.195 151.432 190.192 151.308 190.215C151.185 190.239 151.069 190.291 150.968 190.366C149.724 191.492 148.177 191.22 146.725 191.405C146.429 191.479 146.143 191.592 145.877 191.742L145.927 192.063L154.699 191.947L154.761 191.521C153.759 191.064 152.724 190.614 151.679 190.228ZM165.325 194.067C164.509 193.81 163.853 193.284 163.236 194.032C164.395 195.184 164.395 195.184 165.325 194.067ZM159.914 190.024C157.355 189.358 155.204 188.783 153.014 188.256C152.879 188.227 152.673 188.382 152.327 188.528C153.973 189.483 155.76 190.167 157.623 190.558C158.172 190.712 158.906 190.272 159.914 190.024ZM184.267 194.389C182.123 194.433 179.98 194.25 177.833 194.239C176.515 194.248 175.184 194.342 173.887 194.431L173.832 194.358C173.655 193.432 172.891 193.27 172.126 193.107C171.361 192.945 170.628 192.646 170.902 191.588C171.435 191.338 171.952 191.118 172.462 190.886L172.37 190.483C169.361 190.914 166.301 190.765 163.355 190.044C162.549 189.994 161.741 190.014 160.938 190.104C160.916 190.252 160.886 190.39 160.876 190.53C162.349 191.4 163.924 192.082 165.567 192.56C167.342 193.115 169.13 193.66 170.882 194.234C171.848 194.566 172.793 194.895 173.775 194.306L173.836 194.26C174.347 194.546 174.89 194.772 175.454 194.934C178.049 195.497 180.678 195.901 183.258 196.493C184.141 196.675 184.956 197.094 185.617 197.706C187.087 199.111 188.405 200.669 189.548 202.353C191.982 205.807 194.76 209.004 197.837 211.894C198.367 212.449 199.046 212.84 199.793 213.019C200.54 213.197 201.323 213.156 202.051 212.902C201.969 212.283 201.826 211.785 201.812 211.283C201.737 210.969 201.75 210.64 201.85 210.332C201.95 210.024 202.133 209.749 202.379 209.539C202.625 209.328 202.923 209.19 203.242 209.139C203.56 209.089 203.885 209.127 204.182 209.252C204.379 209.327 204.59 209.358 204.8 209.346C205.011 209.334 205.217 209.277 205.405 209.179C205.593 209.082 205.759 208.947 205.892 208.782C206.026 208.617 206.123 208.426 206.179 208.221C205.371 207.543 204.53 206.87 203.695 206.155C203.239 205.795 202.801 205.411 202.385 205.004C202.095 204.759 201.883 204.434 201.775 204.068C201.668 203.703 201.669 203.314 201.779 202.947C201.889 202.582 202.102 202.255 202.393 202.008C202.684 201.761 203.04 201.604 203.418 201.557C204.433 201.333 205.477 201.275 206.508 201.386C208.237 201.598 209.935 202.099 211.666 202.365C213.45 202.659 215.249 202.851 217.055 202.942C217.831 202.946 218.592 202.722 219.244 202.296C219.509 202.162 219.739 201.966 219.912 201.722C220.085 201.48 220.196 201.198 220.236 200.903C220.276 200.608 220.243 200.307 220.141 200.029C220.039 199.75 219.87 199.501 219.649 199.304C219.244 198.88 218.807 198.488 218.341 198.131C217.152 197.041 217.15 196.53 218.244 195.252C218.705 194.708 219.1 194.112 219.422 193.476C219.539 193.18 219.545 192.853 219.437 192.555C219.122 192.034 218.646 191.631 218.08 191.408C217.514 191.185 216.89 191.154 216.304 191.32C214.838 191.894 213.547 192.526 212.134 192.967C209.826 193.682 207.447 194.301 205.147 194.899C204.592 195.052 204.021 195.139 203.446 195.157C203.087 195.227 202.716 195.185 202.381 195.041C202.046 194.896 201.763 194.653 201.568 194.344C201.372 194.035 201.274 193.674 201.285 193.306C201.297 192.94 201.417 192.584 201.632 192.285C201.855 191.801 202.184 191.373 202.592 191.032C204.097 189.898 205.601 188.765 207.105 187.632C208.145 186.953 209.138 186.205 210.077 185.393C210.873 184.604 210.673 183.827 209.635 183.398C209.005 183.08 208.318 182.891 207.613 182.844C206.908 182.796 206.2 182.891 205.53 183.122C205.185 183.314 204.804 183.433 204.412 183.473C204.02 183.512 203.625 183.469 203.251 183.348C202.877 183.227 202.532 183.03 202.238 182.769C201.943 182.508 201.706 182.188 201.541 181.831C200.463 182.919 199.526 184.14 198.753 185.463C198.064 186.414 197.267 187.281 196.378 188.048C194.51 189.455 192.558 190.775 190.623 192.118C188.775 193.493 186.566 194.288 184.276 194.402L184.267 194.389ZM180.208 189.365C178.459 189.075 177.371 190.31 176.095 191.215C177.467 191.355 178.687 192.461 180.135 191.71L180.208 189.365ZM174.001 189.367C173.813 189.51 173.644 189.676 173.496 189.86L173.731 190.176C174.458 189.855 175.17 189.565 175.922 189.226C176.994 188.759 178.042 188.234 179.12 187.8C180.198 187.367 181.216 187.055 182.269 186.715C183.822 186.055 185.443 185.571 187.1 185.27C190.004 184.976 191.868 183.155 193.949 181.474L193.388 180.439C192.656 179.099 192.84 178.354 194.192 177.6C194.54 177.414 194.903 177.255 195.276 177.125C195.636 176.982 195.945 176.736 196.167 176.418C196.388 176.099 196.511 175.723 196.52 175.336C195.163 175.013 195.167 174.992 194.463 175.446C193.76 175.901 193.408 176.241 192.886 176.634C192.549 176.939 192.151 177.167 191.72 177.305C191.171 177.4 190.608 177.313 190.115 177.057C189.861 176.847 189.7 176.544 189.668 176.214C189.635 175.885 189.733 175.555 189.941 175.296C190.104 175.008 190.282 174.729 190.473 174.46C191.258 173.58 191.994 172.659 192.679 171.699C194.021 169.61 195.236 167.502 196.488 165.291C197.027 164.337 196.744 163.829 195.684 163.625C195.05 163.534 194.406 163.523 193.767 163.593C193.432 163.68 193.081 163.687 192.744 163.612C192.407 163.537 192.093 163.383 191.827 163.163C191.562 162.942 191.352 162.66 191.215 162.342C191.079 162.024 191.02 161.678 191.043 161.331C190.967 160.668 190.813 160.028 190.697 159.339C188.911 159.814 189.033 161.198 188.735 162.274C188.361 163.654 188.234 165.113 187.86 166.492C187.359 168.364 185.867 170.227 183.325 169.303C183.225 168.583 183.067 167.888 183.01 167.174C182.871 165.385 182.77 163.57 182.62 161.79C182.527 160.876 182.383 159.792 181.158 159.824C179.934 159.858 180.018 160.836 179.754 161.678C179.325 163.06 178.683 163.393 177.248 163.169C176.795 163.103 176.347 163.011 175.906 162.892C174.504 162.509 173.777 162.982 173.868 164.428C173.963 165.59 174.183 166.738 174.522 167.852C175.214 170.36 176.417 172.69 177.163 175.194C177.795 177.287 178.06 179.476 177.944 181.665C177.792 184.845 176.907 187.651 174.009 189.379L174.001 189.367ZM155.104 177.579C154.11 178.328 153.017 178.64 152.026 177.664C151.286 178.222 150.679 178.679 149.934 179.127C150.642 180.486 149.913 181.338 148.649 182.082C151.407 182.608 154.268 182.118 156.709 180.703C157.983 179.744 159.362 178.951 160.708 178.088L161.042 178.537C159.085 181.658 155.869 182.907 152.424 183.951C152.982 184.318 153.593 184.598 154.235 184.782C158.681 186.131 163.226 187.137 167.829 187.789C169.039 187.971 170.276 187.711 171.316 187.056C171.912 186.785 172.449 186.396 172.893 185.912C173.336 185.428 173.678 184.859 173.897 184.24C172.713 183.667 171.368 183.519 170.083 183.82C168.667 184.054 167.29 184.468 165.871 184.647C164.384 184.862 162.881 184.929 161.383 184.848C160.346 184.777 160.043 184.116 160.057 183.065C160.085 182.603 160.241 182.157 160.506 181.777C160.771 181.397 161.135 181.097 161.559 180.911C162.804 180.219 164.08 179.542 165.32 178.816C165.866 178.405 166.581 178.094 166.312 177.122L162.561 177.526C160.78 177.675 160.382 177.141 160.982 175.403C161.042 175.144 161.087 174.883 161.118 174.619C159.756 174.705 158.448 175.196 157.36 176.03C156.572 176.473 155.844 177.021 155.104 177.579ZM140.331 159.296C137.554 160.424 137.337 160.36 135.738 157.93C135.675 157.846 135.527 157.825 135.264 157.701C134.617 158.51 133.282 158.191 132.739 159.395C130.767 163.223 127.466 166.195 123.464 167.744C123.173 167.964 122.87 168.192 122.625 168.244L124.252 172.697C125.079 173.172 126.3 173.898 127.54 174.572C129.592 175.676 131.671 176.741 133.738 177.815C135.348 178.827 137.198 179.391 139.101 179.452C140.06 179.494 141.008 179.656 141.924 179.938C142.443 180.076 142.927 180.676 143.445 180.685C144.908 180.566 146.37 180.241 147.853 179.994C147.956 179.713 148.017 179.418 148.035 179.119C147.983 178.592 148.111 178.062 148.398 177.616C148.685 177.169 149.114 176.833 149.614 176.662C150.129 176.463 150.383 175.609 150.727 175.104C149.466 173.688 148.161 174.047 146.793 174.396C145.356 174.798 143.891 175.091 142.411 175.275C142.086 175.346 141.748 175.327 141.435 175.218C141.122 175.109 140.845 174.915 140.636 174.657C140.427 174.4 140.293 174.089 140.249 173.758C140.206 173.428 140.254 173.091 140.389 172.785C140.479 172.33 140.697 171.909 141.016 171.572C141.334 171.234 141.742 170.994 142.19 170.88C144.003 170.366 145.882 169.99 147.678 169.452C150.444 168.692 153.181 167.918 155.887 167.052C156.027 166.987 156.148 166.888 156.24 166.765C156.334 166.642 156.396 166.498 156.423 166.347C156.4 166.194 156.347 166.047 156.266 165.916C156.185 165.785 156.077 165.672 155.951 165.585C155.666 165.435 155.364 165.319 155.051 165.241C152.751 164.362 152.361 163.482 153.133 161.008C153.231 160.707 153.414 160.419 153.524 160.108C153.634 159.88 153.685 159.628 153.673 159.375C153.662 159.122 153.587 158.876 153.457 158.661C153.326 158.445 153.144 158.265 152.926 158.139C152.709 158.012 152.463 157.943 152.211 157.936C151.604 157.911 150.999 158.034 150.447 158.294C149.896 158.555 149.415 158.945 149.045 159.432C146.837 161.833 144.458 164.08 142.087 166.339C141.525 166.788 140.897 167.146 140.226 167.4C139.809 167.56 139.363 167.628 138.919 167.6C138.474 167.572 138.041 167.449 137.649 167.238C137.258 167.027 136.916 166.734 136.647 166.379C136.379 166.023 136.189 165.613 136.093 165.177C135.862 163.951 136.861 163.462 137.406 162.616C138.308 163.829 139.047 162.838 139.781 162.398C140.96 161.719 142.223 161.051 141.98 159.171C141.645 159.102 141.442 159.008 141.276 159.039C140.947 159.077 140.624 159.156 140.313 159.272L140.331 159.296ZM110.116 166.824C113.46 167.668 116.96 167.721 120.338 166.977C121.8 166.645 123.199 166.076 124.481 165.294C127.491 163.527 129.905 160.891 131.406 157.731C131.624 157.326 131.889 156.947 132.196 156.605C133.105 155.485 134.019 154.399 134.928 153.279C135.296 152.832 135.645 152.36 136.007 151.879C137.825 149.488 139.664 147.1 141.464 144.684C141.789 144.131 142.058 143.548 142.269 142.942C140.978 142.021 139.141 141.664 139.724 139.521C137.541 138.952 136.662 139.425 136.346 141.215C136.176 142.232 136.156 143.25 136.031 144.329C135.989 144.707 135.815 145.06 135.539 145.323C135.263 145.586 134.904 145.742 134.525 145.765C134.1 145.855 133.656 145.777 133.288 145.548C132.92 145.317 132.654 144.953 132.547 144.531C132.421 143.915 132.411 143.28 132.518 142.66C133.056 139.77 133.34 136.838 133.367 133.901C133.359 133.416 133.223 132.943 132.972 132.529C132.721 132.117 132.365 131.779 131.94 131.551C131.457 131.48 130.962 131.549 130.516 131.751C130.069 131.954 129.688 132.28 129.42 132.692C128.027 134.612 127.9 134.67 125.535 134.086C124.544 133.848 123.733 133.929 123.331 134.762L123.953 137.075C124.003 137.452 124.093 137.821 124.224 138.177C125.682 140.947 126.707 143.93 127.261 147.018C127.523 148.233 127.628 149.477 127.572 150.72C127.512 152.166 126.872 152.705 125.356 153.033C124.82 153.238 124.228 153.225 123.705 152.997C123.181 152.769 122.768 152.343 122.555 151.812C121.834 150.462 121.211 149.039 120.47 147.611C120.16 147.125 119.817 146.664 119.441 146.227C119.859 149.944 118.55 152.18 115.587 153.465C114.746 153.835 114.695 154.479 115.051 155.289C115.451 155.928 115.7 156.651 115.781 157.403C115.861 158.155 115.771 158.917 115.518 159.631C114.875 161.835 113.55 163.782 111.737 165.186C111.139 165.672 110.596 166.221 110.116 166.824ZM85.0912 154.863C86.9218 156.075 88.828 157.167 90.7986 158.134C94.115 159.742 97.5081 161.199 99.9421 164.191C100.276 164.64 101.382 164.677 102.058 164.491C102.733 164.304 102.745 163.556 102.756 162.885C102.798 160.677 103.244 160.284 105.44 160.334C105.597 160.313 105.752 160.274 105.9 160.215C105.681 158.903 104.684 158.784 103.757 158.479C102.529 158.082 101.33 157.6 100.167 157.038C99.8575 156.869 99.6086 156.606 99.4561 156.287C99.3036 155.968 99.2545 155.607 99.3156 155.257C99.4096 154.868 99.6152 154.515 99.9069 154.242C100.198 153.969 100.562 153.787 100.955 153.719C101.401 153.655 101.851 153.613 102.301 153.595C103.525 153.488 104.74 153.294 105.938 153.013C107.176 152.597 108.385 152.097 109.557 151.516C112.408 150.259 112.491 149.76 110.675 147.267C109.773 146.055 109.848 145.393 110.913 144.381C111.022 144.299 111.119 144.226 111.228 144.144C112.084 143.31 112.24 142.398 111.643 141.75C111.465 141.535 111.242 141.362 110.989 141.244C110.737 141.125 110.461 141.065 110.182 141.066C109.902 141.066 109.627 141.129 109.373 141.249C109.12 141.369 108.896 141.543 108.717 141.76C107.79 142.86 106.942 144.024 106.178 145.243C104.848 147.375 102.86 149.012 100.52 149.903C99.9645 150.122 99.3625 150.19 98.7739 150.1C96.9972 149.85 96.4701 148.581 97.6127 147.191C98.2295 146.442 99.0087 145.835 99.686 145.117C100.136 144.627 100.519 144.074 101.251 143.124C100.084 143.057 99.4075 142.962 98.7664 142.99C96.6463 143.092 96.5981 143.053 96.5252 140.893C96.4877 139.673 96.0238 139.227 94.8595 139.29C94.4306 139.275 94.0086 139.409 93.6642 139.668C93.3197 139.928 93.0736 140.298 92.967 140.716C92.8318 141.223 92.7277 141.737 92.6554 142.257C92.5624 143.042 92.2857 143.794 91.8478 144.453C91.41 145.112 90.8235 145.658 90.1365 146.047C88.7971 146.791 87.4215 147.487 86.073 148.219C84.5548 149.027 82.8017 149.265 81.1317 148.887C79.4618 148.51 77.9853 147.543 76.9708 146.161C75.4518 144.14 73.5901 142.403 71.4704 141.031C67.9389 138.6 64.3445 136.236 60.7464 133.969C57.2866 131.863 53.8086 129.732 50.4028 127.699C46.8843 125.479 43.2273 123.486 39.4537 121.734C37.6642 120.981 35.9595 120.013 34.1239 119.352C30.537 118.042 26.901 116.844 23.274 115.659C22.2446 115.318 21.1778 115.156 20.1237 114.909L19.9184 115.499C20.1005 115.698 20.3185 115.861 20.5605 115.981C21.051 116.064 21.536 116.179 22.0105 116.327C23.381 116.998 24.6991 117.803 26.0898 118.477C28.5528 119.65 31.0578 120.753 33.5363 121.895L42.6952 126.219C44.6332 127.144 46.537 128.151 48.5413 128.988C53.4583 131.061 58.1944 133.538 62.702 136.395C64.4264 137.456 66.0967 138.605 67.7043 139.837C70.1036 141.815 72.3267 143.812 74.544 145.927C75.9958 147.293 77.1622 148.989 78.6839 150.246C80.7282 151.909 82.8674 153.451 85.0912 154.863ZM100.956 166.853C100.579 166.637 100.176 166.47 99.7552 166.358C100.094 168.468 102.515 168.821 102.722 170.728C102.776 170.801 103.19 170.848 103.407 170.988C105.298 172.155 105.473 173.765 103.664 174.768C103.881 175.346 104.288 175.83 104.819 176.139C105.349 176.449 105.97 176.567 106.578 176.472C107.215 175.216 107.016 173.625 108.571 172.662C109.452 173.058 110.464 173.45 111.436 173.968C113.203 174.945 114.639 176.646 116.983 176.336C117.225 176.305 117.493 176.691 117.768 176.806C118.675 177.259 119.622 177.63 120.597 177.911C120.867 177.932 121.14 177.892 121.394 177.792C121.648 177.693 121.876 177.537 122.062 177.337C122.5 176.78 122.012 176.277 121.524 175.849C121.135 175.522 120.779 175.155 120.464 174.755C119.409 173.336 119.623 172.682 121.393 172.162C121.606 172.07 121.812 171.965 122.012 171.848C121.163 169.383 120.3 168.86 117.741 169.085C115.715 169.432 113.643 169.364 111.649 168.885C109.424 168.159 107.238 167.307 105.073 166.458C104.349 166.172 103.694 165.775 103.001 166.676C104.463 167.676 106.115 168.364 107.855 168.696C110.123 169.225 112.268 170.176 114.182 171.501C115.195 172.252 116.326 172.857 117.445 173.547C117.34 174.857 116.712 175.31 115.717 174.736C115.455 174.544 115.211 174.328 114.99 174.09C113.065 172.443 110.842 171.182 108.441 170.375C105.757 169.651 103.224 168.459 100.956 166.853ZM99.4552 172.469C100.013 172.049 100.571 171.628 101.206 171.056C101.159 170.931 101.1 170.81 101.032 170.695C99.101 168.1 97.2673 165.431 95.3333 162.856C94.8319 162.266 94.2271 161.772 93.5491 161.399C92.2308 160.594 90.7224 159.839 89.2135 159.082C88.8197 158.907 88.4089 158.773 87.9875 158.681C89.0923 159.986 90.3447 161.158 91.7195 162.172C93.4422 163.542 94.6855 165.428 95.2722 167.558C95.9374 169.246 96.7468 170.871 97.6925 172.415C98.2366 173.274 98.6452 173.212 99.4431 172.478L99.4552 172.469ZM99.2371 175.738C101.181 178.835 102.454 179.427 104.169 177.966L101.304 174.446C100.607 174.857 99.9158 175.302 99.2246 175.748L99.2371 175.738ZM97.1864 177.283C97.3202 177.182 97.3965 177.03 97.5115 176.905L86.9704 166.45L86.9566 169.791C88.5611 170.93 90.3517 172.192 92.2014 173.279C94.0506 174.365 95.2279 176.354 97.1138 177.338L97.1864 177.283ZM63.2591 149.64C66.3146 152.372 69.564 154.883 72.7374 157.47C73.2454 157.878 73.794 158.232 74.3752 158.526C76.053 159.382 77.7671 160.211 79.4719 161.027C79.8658 161.176 80.2721 161.287 80.6863 161.362L80.8694 160.996C70.796 151.551 60.0657 142.98 47.1315 137.45C47.2175 137.605 47.3236 137.748 47.4473 137.874C48.1284 138.383 48.7857 138.91 49.5066 139.37C54.3638 142.41 58.9631 145.845 63.2591 149.64ZM83.3205 171.849C83.5279 172.128 83.8779 172.319 84.146 172.553C84.1289 171.956 83.9211 171.383 83.5537 170.917C82.6513 169.704 82.8167 169.238 84.1923 168.543C84.4468 168.351 84.7709 168.278 85.1863 168.097C85.0517 167.35 84.7625 166.641 84.337 166.016C83.9114 165.392 83.3586 164.865 82.7152 164.47C81.3638 163.595 79.833 162.988 78.4028 162.211C76.1882 161.127 74.0324 159.928 71.9441 158.617C70.3996 157.585 69.2302 155.986 67.7283 154.884C65.0096 152.882 62.6672 150.369 59.5281 148.949C59.2233 148.741 58.9715 148.464 58.7934 148.14C58.398 147.503 57.925 146.918 57.3856 146.399C55.4375 144.952 53.4655 143.675 51.4604 142.251C47.4772 139.442 43.485 136.62 39.4654 133.913C36.9262 132.23 34.2229 130.784 31.5867 129.25C26.2428 126.017 21.0866 122.483 16.1411 118.666C13.446 116.646 10.8516 114.456 8.21104 112.357C6.99362 111.382 6.06852 111.359 4.35058 112.256C5.85123 113.586 7.34232 114.829 8.75522 116.168C14.1472 121.228 20.6417 124.512 27.1163 127.924C30.9516 129.975 34.6337 132.33 38.3619 134.593C39.1252 135.059 39.7725 135.726 40.5329 136.213C42.6019 137.418 44.6804 138.71 46.6558 140.042C46.9971 140.234 47.3266 140.448 47.6415 140.681C49.2274 141.871 50.8496 143.033 52.3957 144.272C55.1809 146.414 57.9418 148.573 60.4723 150.982C61.7277 152.199 62.7788 153.612 63.5851 155.167C63.9818 156.205 64.2263 157.295 64.3094 158.406L66.4709 168.361C66.8842 170.217 66.8973 172.143 66.509 174.01C66.1882 175.615 65.9094 177.225 65.6218 178.823L64.9274 183.132C65.5869 183.052 65.9644 183.05 66.331 182.983C68.5518 182.559 69.1643 183.025 69.3548 185.266C69.4061 185.871 69.5669 186.468 69.6889 187.115C70.881 186.936 71.5177 186.495 71.5911 185.474C71.6647 184.453 71.83 183.25 71.7464 182.196C71.7234 180.435 71.5579 178.685 71.5742 176.876C71.5672 176.482 71.6967 176.097 71.9406 175.787C72.1844 175.477 72.527 175.26 72.9099 175.175C73.2934 175.09 73.6931 175.14 74.0419 175.318C74.39 175.496 74.6659 175.791 74.8217 176.151C75.4812 177.421 76.0537 178.735 76.5359 180.084C77.2361 182.527 77.6678 185.041 78.2866 187.528C78.7327 189.273 79.3032 190.982 79.7784 192.536C80.9223 192.98 81.5648 192.723 82.009 191.896L82.7893 190.399C83.7369 188.646 84.7984 188.545 86.1441 190.049L86.936 190.91C87.2314 190.617 87.4383 190.245 87.5324 189.84C87.6258 189.434 87.6028 189.01 87.4652 188.619C87.1872 187.553 86.8193 186.513 86.3645 185.511C84.8257 182.725 83.0185 180.1 80.9684 177.671C80.0043 176.605 79.3179 175.315 78.9697 173.915C78.8768 173.536 78.9019 173.135 79.0429 172.769C79.1828 172.402 79.4317 172.088 79.7557 171.866C80.2446 171.421 80.8803 171.173 81.5385 171.17C82.1974 171.166 82.832 171.409 83.3205 171.849ZM92.5706 199.554L92.1327 196.42C90.7311 196.776 89.5298 197.094 88.1608 197.52C89.3764 199.027 91.1145 198.436 92.5831 199.545L92.5706 199.554ZM103.666 199.201L103.486 200.358C103.098 202.865 102.764 203.079 100.296 202.535C100.077 202.48 99.8485 202.475 99.627 202.521C99.4058 202.566 99.197 202.661 99.0162 202.799C97.8658 203.949 96.7456 203.488 95.626 202.873C94.9085 202.467 94.2753 201.998 93.5607 201.495C91.9515 202.86 89.9241 203.625 87.8249 203.659C86.1241 203.918 84.344 203.764 82.9587 204.751C83.3708 205.684 83.869 206.576 84.4477 207.414C85.2961 208.555 85.6363 209.547 84.6397 210.753L86.5003 211.243C85.8704 212.229 84.7627 210.943 84.0799 211.704C84.5165 212.775 84.5861 212.894 85.4623 212.953C87.4742 213.134 89.4958 212.672 91.2365 211.63C92.5361 210.882 93.8903 210.235 95.2877 209.696C96.0685 209.372 96.9375 209.115 97.5812 210.03C97.816 210.424 97.9168 210.884 97.8674 211.341C97.8179 211.798 97.6217 212.228 97.3075 212.565C97.0444 212.857 96.7272 213.096 96.3739 213.268C95.8518 213.571 95.3932 213.974 95.0268 214.456C94.6599 214.937 94.3911 215.485 94.2367 216.07L97.7416 218.9C97.7416 218.9 97.6084 219 97.7416 218.9C100.864 216.074 103.839 213.152 104.659 208.73C104.776 207.821 105.011 206.932 105.359 206.083C106.864 203.17 105.375 201.32 103.675 199.289L103.666 199.201ZM116.74 204.588C116.709 204.057 116.888 203.533 117.237 203.131C117.587 202.73 118.08 202.482 118.608 202.442C118.877 202.384 119.141 202.306 119.399 202.206C119.646 201.619 119.676 200.964 119.483 200.358C119.29 199.754 118.887 199.24 118.347 198.91C117.614 198.258 116.773 197.739 115.862 197.376C112.8 196.135 109.922 194.484 107.307 192.465C106.868 192.185 106.493 191.817 106.203 191.384C105.914 190.951 105.715 190.462 105.623 189.947C105.481 189.593 105.447 189.204 105.526 188.829C105.604 188.454 105.792 188.11 106.066 187.842C106.338 187.574 106.684 187.392 107.059 187.321C107.434 187.249 107.821 187.292 108.17 187.443C108.679 187.567 109.179 187.729 109.665 187.925C110.828 188.318 111.978 188.795 113.144 189.09C113.88 189.291 114.761 189.763 115.47 188.756C115.359 188.452 115.209 188.165 115.023 187.901C114.599 187.331 114.014 186.901 113.517 186.386C113.02 185.87 112.404 185.143 112.84 184.152C113.667 182.337 113.226 181.362 111.455 180.483C110.084 179.811 108.795 180.291 107.46 180.558C104.298 181.321 101 181.266 97.8753 180.398C97.2118 180.203 96.5944 179.876 96.0619 179.436C93.9887 177.743 91.9912 175.973 89.9538 174.252C89.6226 174.06 89.266 173.914 88.8943 173.821C89.0949 174.291 89.404 174.706 89.7961 175.033C91.0003 176.397 92.6409 177.433 93.1566 179.296C93.6132 180.859 93.9354 182.458 94.1206 184.078C94.5601 188.232 94.77 192.408 95.207 196.507C95.4311 197.916 95.8611 199.283 96.4825 200.563C96.7517 201.23 97.4693 201.712 98.2461 201.127C98.6568 200.69 99.2043 200.408 99.7962 200.328C100.388 200.247 100.988 200.373 101.495 200.685C101.628 200.585 101.762 200.484 101.883 200.393L101.56 198.176C101.405 197.629 101.31 197.066 101.276 196.497C101.339 194.954 102.44 194.371 103.685 195.231C104.264 195.651 104.765 196.171 105.166 196.765C107.187 199.634 109.134 202.557 111.227 205.447C111.973 206.512 112.866 207.464 113.88 208.275C115.218 209.31 115.984 209.018 116.487 207.428C116.686 206.495 116.772 205.54 116.74 204.588ZM118.534 205.829L119.653 204.153C118.48 204.28 118.432 204.903 118.543 205.841L118.534 205.829ZM119.671 222.498C120.48 222.072 121.343 221.76 122.235 221.569C122.871 221.515 123.51 221.522 124.143 221.59L123.687 223.826C126.625 222.483 129.873 218.731 130.012 216.449C129.424 216.963 128.765 217.389 128.056 217.714C125.777 218.391 123.47 218.955 121.14 219.461C120.692 219.571 120.131 219.275 119.367 219.112C119.648 218.789 119.883 218.428 120.064 218.039C120.582 216.191 120.74 216.072 122.214 217.062C123.059 217.638 123.558 217.469 123.894 216.648C124.23 215.827 124.945 215.516 125.559 216.113C126.466 216.849 127.194 216.452 128.087 216.101C129.723 215.169 131.134 213.886 132.22 212.344C133.456 211.001 134.218 209.289 134.39 207.473C133.502 207.858 133.131 209.216 131.868 208.333L132.757 206.754C131.62 205.225 130.298 207.698 129.211 206.492C129.307 206.166 129.472 205.865 129.696 205.611C129.919 205.356 130.195 205.152 130.504 205.015C130.813 204.878 131.148 204.81 131.485 204.816C131.822 204.822 132.153 204.902 132.455 205.051C133.379 205.376 134.282 205.775 135.175 206.162L135.422 205.807C134.323 204.457 133.261 203.08 132.124 201.78C131.978 201.656 131.808 201.564 131.625 201.51C131.441 201.456 131.248 201.441 131.057 201.466C129.603 201.597 128.13 201.78 126.405 202.057C126.529 202.306 126.629 202.567 126.701 202.837C126.965 204.134 126.667 204.623 125.423 204.936C125.165 204.977 124.906 205.002 124.645 205.01C122.776 205.246 122.302 205.678 122.527 206.871C122.752 208.065 123.357 208.139 125.027 207.864C125.912 207.672 126.812 207.57 127.716 207.561C128.662 207.586 129.448 208.565 129.1 209.244C128.602 210.297 127.925 211.255 127.1 212.076C126.274 212.703 125.346 213.178 124.358 213.479C122.001 214.383 119.573 215.191 117.199 216.071C116.189 216.325 115.294 216.919 114.664 217.753C114.723 217.929 114.804 218.097 114.904 218.254C116.172 219.551 116.168 220.462 114.918 221.631C114.612 221.866 114.354 222.158 114.155 222.49C113.991 222.803 113.807 223.395 113.94 223.522C114.099 223.656 114.284 223.755 114.484 223.813C114.683 223.871 114.892 223.887 115.099 223.86C116.693 223.693 118.245 223.235 119.68 222.511L119.671 222.498ZM133.495 227.925C133.639 227.482 133.938 227.105 134.336 226.864C134.735 226.623 135.205 226.535 135.662 226.615C136.707 226.774 136.868 227.599 137.061 228.495C137.253 229.39 137.246 230.247 137.337 231.182C137.576 231.134 137.803 231.037 138.003 230.896C138.204 230.755 138.373 230.574 138.5 230.364C138.627 230.154 138.709 229.92 138.742 229.677C138.775 229.435 138.756 229.188 138.688 228.953C138.626 228.167 138.513 227.386 138.349 226.615C138.046 224.595 137.505 222.621 136.737 220.732C136.131 221.189 135.543 221.442 135.001 221.756C135.194 222.576 135.69 223.395 134.476 223.875L134.127 223.228L133.703 222.659C132.259 223.746 132.077 223.883 132.104 224.81C132.241 226.826 130.566 227.576 129.608 228.809C129.451 228.928 129.046 228.892 128.737 228.936C128.705 228.562 128.511 228.046 128.675 227.885C129.13 227.521 129.627 227.215 130.157 226.976C130.321 226.228 130.487 225.46 130.674 224.694C130.85 223.643 131.308 222.659 132 221.848C132.691 221.037 133.589 220.43 134.596 220.093C135.998 219.661 136.2 219.245 136.078 217.784L135.892 216.032C135.802 215.097 136.244 214.725 137.254 214.836L137.591 217.477L140.037 219.136L142.333 218.788L142.096 220.708C143.289 221.701 144.215 222.896 145.906 222.191C146.051 222.081 146.699 222.672 146.761 222.984C146.823 223.297 146.585 223.969 146.483 224.444C147.25 225.474 147.99 226.469 149.555 226.028L149.626 227.981C148.843 227.87 148.117 227.963 147.698 227.654C146.619 226.839 145.716 225.779 144.661 224.945C142.941 223.318 140.972 221.977 138.829 220.973C138.732 222.924 139.208 224.855 140.198 226.529C140.802 226.28 141.475 226.255 142.094 226.458C142.712 226.661 143.238 227.078 143.577 227.636C144.38 228.715 145.192 229.807 145.994 230.886C147.126 232.218 148.333 233.483 149.608 234.675C149.828 234.851 150.086 234.969 150.363 235.022C150.639 235.074 150.924 235.058 151.194 234.976C151.498 234.747 151.648 234.008 151.684 233.471C151.646 232.894 151.567 232.321 151.449 231.755C151.386 230.933 151.178 230.067 151.489 229.264C151.801 228.462 152.594 228.205 153.325 227.559C153.204 226.989 153.259 226.096 152.849 225.647C151.429 224.036 149.878 222.546 148.211 221.193C146.474 219.851 144.47 218.862 142.628 217.657C140.147 215.94 138.029 213.749 136.392 211.208C134.8 213.28 133.365 215.468 132.099 217.753C130.569 221.169 128.516 224.326 126.014 227.107C125.301 227.885 124.901 228.901 124.896 229.956C124.866 230.249 124.895 230.544 124.983 230.825C125.072 231.105 125.216 231.364 125.409 231.584C125.602 231.806 125.838 231.983 126.103 232.108C126.368 232.233 126.655 232.301 126.949 232.308C129.01 232.535 129.208 232.953 128.834 234.995L128.172 238.635C129.264 238.19 130.211 237.446 130.904 236.489C131.598 235.531 132.01 234.398 132.095 233.22C132.238 232.242 132.432 231.281 132.656 230.337C132.864 229.51 133.145 228.703 133.495 227.925ZM136.181 249.351C136.805 249.012 137.396 248.612 137.943 248.157C140.217 246.557 141.087 246.81 142.205 249.356C142.289 249.671 142.437 249.966 142.639 250.221C143.022 250.525 143.43 250.793 143.86 251.023C145.269 248.169 145.63 244.914 144.881 241.833C143.872 237.258 142.561 232.757 140.955 228.361C140.874 228.253 140.672 228.159 140.524 228.062C140.376 227.965 140.378 228.171 140.354 228.19C140.28 228.7 140.205 229.21 140.151 229.724C139.824 233.076 139.862 236.358 141.864 239.279C142.071 239.558 142.201 240.293 142.108 240.345C141.032 240.909 141.463 242.023 141.037 242.874C140.729 243.288 140.372 243.665 139.977 243.994L139.604 240.49C138.997 240.947 138.644 241.364 138.132 241.844C137.144 240.11 138.583 239.271 139.15 238.276L138.575 233.864C138.162 234.024 137.754 234.161 137.206 234.366L137.153 232.513L136.754 232.511C136.579 233.208 136.475 233.921 136.443 234.638C136.518 236.605 136.186 238.568 135.47 240.405C135.011 241.773 134.456 243.062 134.136 244.514C133.819 245.581 133.654 246.687 133.644 247.799C133.642 248.092 133.715 248.38 133.857 248.634C133.997 248.889 134.202 249.103 134.45 249.255C134.698 249.407 134.982 249.491 135.273 249.501C135.564 249.511 135.853 249.444 136.111 249.309L136.181 249.351ZM103.511 191.842C104.435 192.83 105.83 193.559 105.624 194.963C107.107 196.269 108.333 197.484 109.701 198.535C111.069 199.586 112.526 200.475 113.766 201.302C114.298 200.693 114.78 200.121 115.51 199.269C114.697 198.991 114.085 198.601 113.495 198.648C112.95 198.669 112.409 198.574 111.904 198.37C111.401 198.166 110.946 197.857 110.57 197.464C109.771 196.797 108.851 196.298 108.765 195.038C108.742 194.828 108.468 194.637 108.323 194.444C106.35 192.579 104.313 190.783 102.401 188.874C101.705 187.984 101.1 187.026 100.595 186.014C102.07 186.189 103.089 186.388 104.101 186.401C105.114 186.414 106.231 186.897 107.277 185.579L103.877 185.056C104.145 184.475 104.359 183.974 104.765 183.043C103.965 183.342 103.454 183.368 103.29 183.605C102.881 184.166 102.3 184.579 101.637 184.777C100.974 184.976 100.265 184.95 99.6205 184.704C98.9449 183.642 98.296 182.541 97.5415 181.501C97.4042 181.345 97.2284 181.228 97.0323 181.16C96.8362 181.092 96.6256 181.077 96.4209 181.115C96.1368 181.216 95.9103 181.802 95.8969 182.19C95.9264 183.495 96.4075 184.746 97.2583 185.726C98.2494 187.083 98.7604 188.737 98.7091 190.425C98.6512 192.001 98.7871 193.584 98.8256 195.163L99.2707 195.226C100.672 193.394 99.9914 191.106 100.556 189.09C101.486 190.036 102.574 190.863 103.511 191.842ZM172.573 215.161C172.799 215.464 173.159 215.949 173.083 216.177C172.374 217.998 174.22 219.106 174.238 220.758C174.243 220.943 174.81 221.121 175.13 221.296C175.321 221 175.479 220.683 175.603 220.354C175.638 220.093 175.61 219.829 175.521 219.582L173.854 213.854C174.46 213.899 175.06 214.013 175.64 214.194C177.417 214.955 179.229 215.711 180.927 216.645C184.188 218.485 187.486 220.373 190.689 222.313C191.314 222.694 191.862 223.075 192.805 222.612C192.334 220.884 190.46 220.782 189.346 219.539C189.845 219.523 190.087 219.492 190.323 219.504C190.909 219.554 191.659 219.671 191.734 218.857C191.81 218.043 190.901 217.914 190.347 218.009C189.383 218.17 188.43 218.394 187.496 218.681L182.746 215.426C183.054 214.873 183.546 214.389 183.481 214.021C183.333 213.262 182.668 213.082 181.924 213.302C181.494 213.437 181.06 213.592 180.625 213.694C180.189 213.795 179.689 213.963 179.309 213.833C178.002 213.399 176.706 212.879 175.049 212.178C176.603 211.595 177.738 211.137 178.886 210.745C180.033 210.354 181.026 210.136 182.056 209.739C182.81 209.455 183.368 208.958 182.982 207.982C181.244 208.496 179.634 208.952 178.017 209.45C177.571 209.542 177.14 209.7 176.739 209.921C175.654 210.542 174.409 210.821 173.168 210.719C172.509 210.723 171.856 210.685 171.26 210.699C170.132 210.811 169.829 211.549 170.54 212.453C171.25 213.356 171.923 214.287 172.573 215.161ZM168.349 238.442C167.952 238.648 167.504 238.729 167.063 238.673C166.054 238.354 165.089 237.911 164.189 237.355C163.919 237.16 163.592 237.061 163.258 237.072C162.925 237.084 162.603 237.206 162.345 237.42C161.738 237.877 161.987 238.466 162.345 238.972C163.228 240.497 163.632 242.255 163.507 244.021C163.556 245.384 163.638 246.742 163.726 248.133C163.698 248.583 163.82 249.03 164.072 249.401C164.325 249.773 164.694 250.049 165.121 250.186L165.31 247.488C165.863 247.545 166.323 247.577 166.782 247.609C166.775 247.134 166.721 246.661 166.622 246.198C166.457 245.768 166.215 245.373 165.906 245.033C165.435 244.39 165.103 243.655 164.932 242.873C164.762 242.092 164.757 241.283 164.918 240.497L170.505 247.398C170.929 247.524 171.32 247.738 171.655 248.027C172.865 249.374 173.983 250.801 175.003 252.299C177.127 255.639 179.121 259.057 181.185 262.442C181.47 262.744 181.79 263.012 182.137 263.239C182.396 261.984 182.177 260.748 183.734 260.143C183.117 259.316 182.358 258.606 181.493 258.046C179.977 257.302 178.777 256.04 178.106 254.485C176.25 251.189 173.985 248.144 171.366 245.425C170.049 244.164 168.848 242.778 167.632 241.423C167.363 240.981 167.15 240.506 166.997 240.01C167.634 240.23 167.909 240.345 168.211 240.42C171.286 240.97 174.25 242.016 176.989 243.517C177.393 243.78 178.016 243.651 178.633 243.717C178.629 243.178 178.43 242.66 178.073 242.26C177.716 241.86 177.226 241.605 176.694 241.543C176.197 241.45 175.753 241.173 175.451 240.767C175.148 240.36 175.009 239.854 175.061 239.347C175.061 239.347 174.853 239.221 174.623 239.09C174.175 239.429 173.753 239.879 173.34 240.266L170.404 239.373L170.543 237.244C169.4 237.896 168.9 238.216 168.397 238.406L168.349 238.442ZM90.1503 211.238L89.0333 211.493L90.1513 211.672L90.1503 211.238ZM181.949 183.435C182.298 182.636 182.887 181.966 183.632 181.516C184.377 181.067 185.242 180.862 186.105 180.929C187.107 180.758 188.076 180.43 188.978 179.957C189.329 179.801 189.666 179.616 189.988 179.405C188.582 177.796 186.763 179.753 185.25 178.584C186.491 176.74 187.713 174.948 188.885 173.139C189.235 172.691 189.446 172.151 189.49 171.585C189.423 170.396 189.823 169.225 190.604 168.324C191.349 167.289 192.036 166.203 192.754 165.133L192.384 164.635C191.923 164.982 191.185 165.085 190.884 165.519C189.4 167.176 188.268 169.118 187.556 171.225C187.315 172.247 186.931 173.23 186.417 174.147C185.933 175.255 185.163 176.215 184.186 176.925L183.026 172.82C183.41 172.191 184.789 172.06 183.956 170.89C183.306 170.982 182.692 171.048 182.108 171.128C181.719 169.578 181.034 168.121 180.09 166.837C179.186 167.708 179.373 168.57 179.711 169.432C180.414 171.193 181.212 172.9 181.764 174.737C182.49 176.934 182.94 179.169 181.245 181.241C180.915 181.648 180.696 182.133 180.607 182.648C180.618 182.834 180.669 183.014 180.757 183.177C180.845 183.339 180.968 183.48 181.117 183.589C181.263 183.634 181.417 183.642 181.567 183.612C181.716 183.581 181.856 183.515 181.974 183.417L181.949 183.435ZM79.5697 169.149C80.2376 169.308 80.742 169.249 80.9904 168.514C80.9729 168.404 80.9304 168.3 80.864 168.211C80.7982 168.122 80.711 168.052 80.6113 168.004C79.889 168 79.5427 168.374 79.5697 169.149ZM146.63 165.32C145.648 165.757 144.407 166.048 144.612 167.825C146.287 166.998 147.808 166.269 149.423 165.487C148.398 164.008 147.475 164.93 146.63 165.32ZM133.246 163.233C132.972 164.443 132.855 165.686 132.56 166.892C131.915 169.536 130.393 170.417 127.825 169.891C127.448 169.793 127.06 169.741 126.671 169.739C126.499 169.724 126.327 169.752 126.169 169.818C126.009 169.884 125.868 169.988 125.757 170.119C125.646 170.252 125.567 170.408 125.528 170.577C125.49 170.745 125.492 170.92 125.534 171.087C126.994 171.686 128.541 172.048 130.117 172.158C130.747 172.184 131.366 172.319 131.948 172.558C133.309 173.293 134.608 174.149 135.936 174.967C136.469 175.303 137.038 175.915 137.589 175.103C138.139 174.29 137.494 173.906 136.936 173.513C136.622 173.286 136.296 173.077 135.959 172.886C135.301 172.511 134.628 172.166 133.889 171.758C134.441 171.228 134.83 170.86 135.386 170.309C134.773 170.146 134.404 170.083 134.057 169.947C133.768 169.831 133.489 169.694 133.221 169.536L135.343 161.522C135.093 161.49 134.839 161.51 134.597 161.58C134.354 161.65 134.128 161.768 133.932 161.929C133.736 162.088 133.574 162.287 133.456 162.511C133.338 162.735 133.267 162.981 133.246 163.233ZM137.351 171.043C139.155 170.516 140.554 170.106 141.974 169.623C142.108 169.522 142.209 169.2 142.404 168.826C140.604 168.289 139.414 169.337 138.076 169.701C137.804 169.793 137.717 170.313 137.351 171.043ZM94.5447 158.208C95.6997 158.208 95.9061 157.315 96.3627 156.478L93.5227 152.94C94.8103 152.992 95.905 153.038 97.0869 153.075C98.4959 153.076 99.9041 152.989 101.303 152.813C101.871 152.775 102.414 152.559 102.858 152.199C103.301 151.838 103.622 151.348 103.778 150.797C100.094 152.039 96.1145 152.047 92.4394 150.822C93.1448 149.585 93.9421 148.402 94.8244 147.285C95.6838 146.353 97.1036 145.946 97.6752 144.399C97.309 144.372 96.9413 144.371 96.5746 144.395C96.317 144.432 96.0629 144.49 95.8149 144.57C95.2814 144.158 95.5003 143.104 94.5494 143.48C93.5984 143.855 94.0072 144.456 94.0897 144.999C94.1599 145.385 94.2792 145.759 94.445 146.113C93.6463 146.999 93.0478 147.696 92.3526 148.39C90.95 149.787 89.4753 151.087 87.2339 150.543C86.9862 150.536 86.7391 150.574 86.5047 150.657C86.5546 151.793 87.4069 151.87 88.0692 151.844C89.4551 152.035 90.7251 152.714 91.6539 153.762C91.4846 154.476 91.3247 155.05 91.1221 155.923L92.8696 155.192C94.5248 155.687 93.8106 157.323 94.5447 158.208ZM108.657 148.22C107.225 148.428 105.906 149.128 104.924 150.199C107.258 150.258 107.958 149.901 108.657 148.22ZM120.512 162.758C122.158 162.351 123.628 161.41 124.693 160.082L126.6 160.991L126.398 158.455C126.859 158.108 127.357 157.733 127.842 157.368L128.987 158.398C130.516 157.909 129.26 156.754 129.516 156.107L132.428 153.913C130.574 153.152 129.76 154.806 128.126 155.053C129.662 153.2 130.514 150.873 130.536 148.469C131.001 147.872 132.324 148.124 132.176 146.78L131.213 146.198C131.033 145.065 130.925 144.03 130.73 143.004C130.535 141.978 130.633 141.449 131.488 140.995C131.991 140.729 132.349 140.346 131.899 139.664L130.083 139.895L129.304 137.397C130.275 136.666 131.571 136.22 131.435 134.638C129.984 134.519 129.98 136.169 129.118 136.383L127.823 135.863C127.67 136.314 127.573 136.782 127.533 137.255C127.631 137.705 127.773 138.143 127.957 138.563C128.651 141.049 129.854 143.456 129.414 146.172C129.243 147.266 129.006 148.372 128.851 149.435C128.401 152.091 127.307 154.597 125.668 156.735C125.124 157.405 124.544 158.044 123.93 158.649C123.351 156.929 124.108 155.147 122.643 153.941C122.331 154.213 121.951 154.392 121.544 154.458C121.137 154.523 120.721 154.472 120.343 154.311C120.12 154.214 119.665 154.595 119.086 154.86L122.089 157.141L122.462 160.645C121.793 160.865 121.181 161.061 120.5 161.291C119.986 160.599 119.534 159.993 119.074 159.374C118.614 158.756 117.91 158.699 117.45 159.557L119.121 161.931C118.282 162.075 117.504 162.468 116.888 163.061C116.272 163.653 115.846 164.417 115.667 165.253C116.31 165.044 116.938 164.791 117.548 164.498C118.469 163.813 119.456 163.221 120.494 162.733L120.512 162.758ZM78.6472 168.519C78.1618 167.408 78.1524 167.396 78.5983 166.341C78.8299 165.788 78.9284 165.335 78.0588 165.082L76.4578 166.95C74.9626 166.074 73.5331 165.088 72.1819 164.002C71.399 163.305 70.4927 162.341 70.8628 161.21C69.9605 159.997 68.9665 159.043 68.197 157.957C67.6646 157.241 67.2413 157.257 66.5287 157.775L67.3304 159.159C67.9842 160.045 68.5885 160.967 69.1396 161.922C69.598 162.766 69.9094 163.683 70.0601 164.635C70.169 165.698 70.1677 166.772 70.0562 167.836C70.0666 168.745 69.9194 169.65 69.6224 170.51C68.8779 172.055 69.3494 173.63 68.9856 175.457C69.4288 175.371 69.8264 175.126 70.1034 174.767C70.381 174.409 70.5179 173.961 70.4901 173.51C70.55 172.676 70.6673 171.848 70.8414 171.03C70.984 170.28 71.2319 169.544 71.3588 168.747C71.4863 167.952 71.511 167.706 71.5832 167.216L80.0206 181.944L78.5781 184.128C79.6625 185.204 79.9139 183.633 80.8747 183.704C81.0928 184.016 81.2868 184.344 81.4545 184.686C81.5781 185.119 81.7283 185.543 81.9063 185.955C82.0956 186.209 82.4793 186.318 82.7781 186.49C82.9079 186.193 83.0137 185.884 83.0963 185.57C83.1455 185.229 82.9843 184.783 83.1486 184.546C83.9854 183.253 83.9988 182.864 82.6888 182.224C81.8924 181.805 81.245 181.149 80.8371 180.344C78.9031 177.032 76.9443 173.814 74.9778 170.431C74.5194 169.501 74.1077 168.548 73.7428 167.576C75.6821 167.383 76.8132 169.54 78.6472 168.519ZM88.8668 211.448C88.8668 211.448 88.9519 211.383 89.0007 211.347L88.8668 211.448ZM196.042 205.41C196.966 206.627 198.025 207.735 199.198 208.711C199.361 208.929 199.894 208.755 200.238 208.76C200.284 208.415 200.273 208.065 200.206 207.724C200.025 207.378 199.79 207.063 199.511 206.79L196.761 203.601C197.416 203.108 198.395 203.865 198.751 202.537C197.915 202.202 197.073 201.908 196.191 201.513C195.796 201.337 195.261 201.229 195.048 200.917C194.145 199.704 193.401 198.372 192.391 196.786C193.938 197.135 195.052 197.487 196.222 197.686C197.035 197.653 197.842 197.821 198.573 198.174C199.304 198.527 199.937 199.054 200.417 199.711C200.624 199.99 201.165 200.056 201.551 200.219L201.948 199.2C202.007 199.024 202.031 198.854 202.108 198.626C203.611 198.687 205.095 198.799 206.561 198.81C208.826 198.826 211.091 198.843 213.353 198.728C213.842 198.675 214.313 198.511 214.731 198.248C215.149 197.986 215.503 197.632 215.766 197.213L213.384 197.116L213.555 195.87C213.405 195.753 213.229 195.675 213.041 195.64C212.854 195.606 212.661 195.617 212.478 195.673C212.296 195.729 212.129 195.829 211.992 195.962C211.855 196.096 211.751 196.26 211.69 196.442C211.486 196.819 211.17 197.122 210.786 197.31C210.402 197.497 209.97 197.559 209.551 197.486C208.771 197.484 207.992 197.439 207.217 197.351C205.359 197.143 203.491 196.922 201.638 196.671C199.438 196.436 197.138 196.067 194.902 195.708C194.197 195.498 193.511 195.231 192.849 194.908C194.283 193.96 195.393 193.237 196.454 192.552L198.176 192.806L198.11 190.604C198.878 189.627 199.507 188.283 201.206 189.218C201.379 189.243 201.557 189.219 201.719 189.151C201.881 189.082 202.022 188.97 202.126 188.827C202.166 188.653 202.16 188.472 202.11 188.301C202.059 188.131 201.965 187.976 201.837 187.853C201.272 187.505 200.675 187.214 200.053 186.982C199.374 187.494 198.84 187.896 198.318 188.289C196.228 190.034 194.168 191.794 192.06 193.515C191.703 193.903 191.24 194.176 190.73 194.297C190.219 194.419 189.685 194.383 189.196 194.196C188.994 194.102 188.71 194.203 188.483 194.204C188.23 195.568 188.248 195.593 189.235 196.003C189.733 196.215 190.388 196.383 190.671 196.814C192.537 199.704 194.191 202.641 196.042 205.41ZM213.286 199.631C213.623 199.926 214.002 200.171 214.411 200.354C214.764 200.447 215.182 200.246 215.57 200.182C215.399 199.799 215.338 199.259 215.051 199.077C214.91 198.961 214.742 198.882 214.562 198.849C214.382 198.816 214.197 198.828 214.022 198.885C213.849 198.944 213.691 199.044 213.566 199.178C213.44 199.313 213.35 199.477 213.304 199.655L213.286 199.631Z" fill="#101A24"/>
</g>
</svg>
