<svg width="449" height="602" viewBox="0 0 449 602" fill="none" xmlns="http://www.w3.org/2000/svg">
<g opacity="0.1">
<path d="M414.065 256.905C413.441 255.43 411.7 254.976 410.354 254.79C407.078 254.167 403.832 253.867 400.679 253.895C391.91 254.306 382.954 254.167 373.872 253.479C371.184 253.297 368.569 253.469 365.887 253.321C358.047 252.904 350.151 252.388 342.297 251.907C339.428 252.124 336.291 251.453 333.38 249.997C335.893 249.848 338.083 249.783 340.231 249.606C343.454 249.339 346.72 249.107 349.824 248.609C353.886 247.981 357.78 247.055 361.844 246.348C369.086 245.07 376.369 243.906 383.575 242.625C387.31 241.971 390.912 241.021 394.618 240.318C398.325 239.614 402.693 238.995 406.671 238.218C407.268 238.185 407.802 238.009 408.218 237.707C408.635 237.405 408.921 236.987 409.046 236.496C409.172 236.004 409.134 235.456 408.935 234.906C408.736 234.356 408.384 233.822 407.914 233.359C406.765 231.656 405.18 230.138 403.323 228.962C401.466 227.787 399.405 226.998 397.357 226.678C394.45 226.379 391.589 226.306 388.805 226.459C380.125 226.752 372.485 229.234 364.357 230.648C357.032 231.895 350.11 233.9 343.715 236.627C342.455 237.051 341.144 237.396 339.789 237.662L339.308 236.974C343.021 234.64 346.432 232.06 350.51 230.024C355.893 227.363 361.724 225.228 367.299 222.804C371.127 221.155 374.89 219.416 378.587 217.587C379.718 217.043 380.626 216.25 381.25 215.263C381.873 214.276 382.196 213.119 382.198 211.872C382.293 209.805 381.165 208.67 378.651 208.201C377.93 208.033 377.215 207.976 376.539 208.034C374.052 208.364 371.586 208.739 369.14 209.157C363.619 210.304 358.565 212.246 354.149 214.92C349.137 217.642 344.351 220.683 339.817 223.902C334.041 227.878 328.53 232.096 322.89 236.21C316.878 240.611 310.82 245.135 302.955 247.219C299.773 248.161 296.871 249.518 294.326 251.253C292.625 252.111 290.807 252.825 288.889 253.387C289.382 252.474 290.141 251.728 291.11 251.204C297.187 247.473 301.567 242.278 306.484 237.521C310.287 233.846 314.472 230.495 319.007 227.493C323.204 224.722 327.15 221.693 331.227 218.691L342.4 210.377C343.526 209.618 344.373 208.599 344.88 207.392C345.388 206.184 345.544 204.818 345.338 203.388C344.957 200.745 343.538 199.239 340.609 199.102C338.695 198.922 336.917 199.243 335.497 200.026C331.942 202.167 328.244 204.138 324.969 206.507C322.233 208.532 319.668 210.718 317.284 213.056C315.376 214.931 313.468 216.807 311.769 218.826C309.794 221.076 308.007 223.452 305.983 225.636C301.975 229.911 297.926 234.124 293.833 238.275C292.249 240.22 290.285 241.876 288 243.196C288.292 241.82 288.877 240.565 289.729 239.486C294.058 234.302 297.941 228.783 302.665 223.868C307.39 218.953 311.695 213.135 316.03 207.635C317.763 205.429 319.158 202.974 320.552 200.598C321.071 199.699 321.277 198.634 321.151 197.5C321.025 196.366 320.571 195.201 319.831 194.111C319.568 193.583 319.173 193.086 318.68 192.664C318.186 192.241 317.611 191.907 317.003 191.69C316.396 191.472 315.775 191.379 315.197 191.418C314.618 191.457 314.1 191.628 313.686 191.914C312.171 192.701 310.792 193.642 309.569 194.723C306.438 197.8 303.438 200.983 300.709 204.361C297.126 208.812 293.772 213.423 290.606 218.161C288.58 221.119 286.928 224.33 285.125 227.418C283.727 229.951 282.569 232.599 281.193 235.151C278.41 240.013 275.779 244.998 272.58 249.575C270.898 252.349 268.463 254.625 265.425 256.26C265.022 256.55 264.496 256.704 263.911 256.702C263.325 256.701 262.705 256.544 262.128 256.252C261.133 255.828 260.098 255.588 259.103 255.553C258.109 255.518 257.181 255.688 256.391 256.05C255.451 256.356 254.504 256.629 253.613 257.002C250.683 258.023 247.871 259.212 245.19 260.562C238.453 264.477 231.961 268.54 225.278 272.633C225.278 272.633 224.945 272.495 224.649 272.361C227.206 270.199 229.933 268.189 232.818 266.343C238.664 263.141 243.731 259.099 247.871 254.329C249.608 252.029 251.151 249.597 252.486 247.046C252.788 246.579 252.865 245.99 252.707 245.374C252.548 244.757 252.162 244.15 251.611 243.651C251.245 243.175 250.916 242.682 250.629 242.179L265.516 236.868C268.992 235.792 272.121 234.216 274.802 232.189C276.702 230.629 277.039 228.866 275.323 226.957C273.121 224.517 271.539 222.476 267.997 223.017C262.733 223.78 257.768 225.129 253.203 227.038C248.432 229.099 243.568 231.056 238.731 233.064C237.031 233.769 235.303 234.423 233.695 235.23C230.137 236.975 226.625 238.776 223.161 240.633C221.176 241.696 219.428 242.95 217.463 244.03C215.852 245.325 213.953 246.344 211.832 247.052C215.096 243.443 218.826 240.204 222.976 237.372C225.392 235.965 227.716 234.455 230.131 233.047C230.975 232.528 231.974 232.164 232.882 231.697C235.19 230.55 237.383 229.283 239.806 228.256C243.458 226.677 247.389 225.405 250.985 223.727C254.123 222.266 256.875 220.488 259.933 218.799L276.724 209.41C278.36 208.269 280.202 207.343 282.211 206.646C283.83 206.298 285.266 205.648 286.44 204.733C288.059 203.373 289.331 201.891 290.949 200.609C293.92 198.153 293.779 194.23 294.786 190.842C294.823 190.599 294.794 190.337 294.7 190.075C294.531 189.401 294.165 188.732 293.639 188.133C293.114 187.535 292.449 187.031 291.71 186.67C291.034 186.303 290.293 186.126 289.612 186.167C288.932 186.209 288.353 186.466 287.977 186.896C286.994 187.864 286.01 188.831 284.868 189.722C282.259 192.287 279.807 195.006 277.027 197.43C270.723 201.943 263.977 206.015 256.833 209.621C251.882 212.554 246.719 215.233 241.589 217.993C240.429 218.629 239.184 219.195 237.961 219.78C238.356 218.811 238.969 217.958 239.773 217.263C240.417 216.751 240.917 216.115 241.251 215.385C242.218 212.729 243.89 210.44 246.16 208.663C248.991 205.945 252.161 203.516 255.633 201.402C259.323 199.05 263.377 197.154 267.232 194.99C270.267 193.283 273.366 191.628 276.179 189.713C279.703 187.427 282.913 184.826 285.78 181.94C289.87 177.688 294.748 174.052 298.466 169.47C302.182 164.886 306.733 161.573 309.431 156.561C310.162 155.147 311.404 154.042 312.316 152.72C313.6 151.063 314.741 149.307 315.734 147.465C316.155 146.452 316.038 145.219 315.405 144.035C314.773 142.851 313.679 141.813 312.362 141.148C310.631 140.208 308.756 139.659 306.951 139.563C305.147 139.468 303.488 139.83 302.168 140.608C296.725 143.995 292.086 148.19 288.388 153.071C284.719 157.451 281.265 162.007 277.725 166.493L268.212 178.629C267.587 179.245 266.945 179.875 266.448 180.595C266.255 180.45 266.069 180.298 265.89 180.14C266.511 178.452 267.268 176.831 268.153 175.283C271.382 170.409 273.217 164.774 276.922 160.127C280.213 156.001 282.417 151.203 285.446 146.756C288.475 142.309 291.019 138.378 294.118 134.363C297.446 129.738 300.434 124.89 303.07 119.839C303.45 119.048 303.701 118.19 303.817 117.285C303.846 116.02 303.491 114.68 302.785 113.392C302.08 112.103 301.046 110.908 299.782 109.918C296.905 108.208 293.659 107.398 290.734 107.66C287.808 107.922 285.433 109.234 284.111 111.319C281.885 115.482 279.923 119.808 278.216 124.233C275.203 131.992 272.544 139.905 269.669 147.722C268.281 151.523 266.792 155.269 265.303 159.015C265.045 159.599 264.747 160.161 264.413 160.702L263.698 160.36L264.942 152.794C265.899 147.676 267.051 142.636 267.761 137.451C268.308 133.044 268.558 128.582 268.655 124.076C269.062 118.522 268.043 112.628 265.666 106.783C265.308 105.824 264.692 104.896 263.878 104.085C263.063 103.273 262.075 102.605 261.005 102.141C259.935 101.677 258.818 101.433 257.757 101.432C256.695 101.429 255.725 101.67 254.934 102.131C251.95 103.82 249.853 106.394 248.894 109.538C248.04 112.438 247.832 115.588 248.277 118.849C248.833 123.834 248.742 128.72 249.009 133.603C249.623 142.631 250.266 151.709 251.114 160.739C251.618 167.714 251.058 174.469 249.447 180.83C249.236 181.596 248.97 182.336 248.647 183.047L245.445 168.825C245.014 166.891 244.654 164.962 244.273 163.016L240.311 143.159L236.924 125.676C236.808 124.844 236.422 123.993 235.81 123.224C235.199 122.454 234.389 121.799 233.473 121.332C231.411 120.266 229.937 120.941 228.713 121.873C225.765 124.172 223.885 127.362 223.291 131.072C222.461 135.283 222.569 139.802 223.608 144.415C224.427 148.397 225.509 152.396 226.85 156.392C228.241 160.207 230.249 164.152 231.581 168.026C233.428 173.367 234.872 178.756 236.509 184.032C236.592 184.614 236.594 185.183 236.516 185.728C235.898 185.283 235.433 184.694 235.21 184.071C232.677 176.873 228.942 169.765 224.139 163.002C219.295 156.078 214.983 148.975 211.242 141.755C210.022 139.707 209.074 137.6 208.416 135.481C207.98 134.565 207.297 133.702 206.435 132.981C206.278 132.802 206.089 132.644 205.878 132.515C205.668 132.386 205.441 132.29 205.21 132.232C204.98 132.174 204.75 132.155 204.536 132.176C204.321 132.198 204.126 132.259 203.96 132.356C202.359 132.831 201.022 133.679 200.064 134.83C199.106 135.98 198.555 137.4 198.456 138.967C198.381 141.444 198.864 144.04 199.881 146.618C201.36 150.774 202.499 155.108 206.814 158.602C206.986 158.743 207.011 158.95 207.154 159.12C209.55 162.336 212.151 165.503 214.327 168.78C219.767 176.783 224.075 185.124 227.126 193.565C228.388 197.277 228.535 200.962 229.439 204.676C230.357 208.807 229.615 212.699 227.341 215.675C224.682 219.565 221.526 223.132 218.514 226.788C216.267 229.539 213.825 232.133 211.656 234.922C209.159 238.113 206.89 241.465 204.536 244.746C204.521 243.968 204.66 243.23 204.948 242.561C207.16 236.75 209.451 230.978 211.569 225.145C212.326 223.011 212.907 220.798 213.31 218.52C213.768 216.213 213.804 213.856 214.175 211.558C214.591 208.593 214.246 205.411 213.159 202.216C212.073 199.022 210.269 195.884 207.865 193.003C207.058 192.041 206.116 191.154 205.07 190.374C203.973 189.472 202.648 188.848 201.31 188.604C199.973 188.359 198.701 188.51 197.702 189.03C195.877 190.088 196.377 191.918 197.13 193.925C197.734 195.421 198.074 196.93 198.134 198.392C198.185 202.751 198.07 207.08 197.955 211.411C197.837 216.169 197.632 220.934 197.514 225.692C197.444 228.584 197.621 231.544 197.399 234.393C197.485 236.329 197.01 238.125 196.016 239.62L195.804 235.961C195.64 233.145 195.495 230.346 195.288 227.495C194.971 223.241 194.109 218.866 194.271 214.761C194.433 210.656 194.442 206.856 194.096 202.632C193.591 197.695 191.299 192.599 187.547 188.065C186.559 186.842 185.174 185.864 183.652 185.317C182.392 184.871 181.106 184.647 179.883 184.663C178.66 184.677 177.527 184.93 176.56 185.404C173.842 186.297 173.561 186.766 174.354 189.584C175.004 191.884 175.867 194.17 176.597 196.508C178.113 201.284 179.3 206.114 181.106 210.913C183.184 215.938 184.919 220.99 186.303 226.038C187.763 231.333 188.505 236.593 188.51 241.701C188.41 246.982 187.707 252.121 187.021 257.245C186.574 259.737 185.974 262.175 185.221 264.545C185.014 265.248 184.739 265.919 184.398 266.554C182.662 269.349 180.491 271.86 177.925 274.038C174.617 277.292 171.608 280.791 168.385 284.114C165.162 287.437 162.139 290.253 159.024 293.316C157.817 294.503 156.422 295.564 155.085 296.646C153.113 297.917 151.333 299.383 149.767 301.022C146.609 305.095 141.319 307.162 137.709 310.787C137.709 310.787 137.709 310.787 137.347 310.679C137.363 310.453 137.401 310.233 137.464 310.024C138.837 307.202 140.255 304.417 141.57 301.575C142.138 300.322 142.329 298.896 142.982 297.713C144.379 295.179 146.165 292.882 147.424 290.29C150.292 284.903 152.546 279.179 154.163 273.183C154.985 269.589 155.879 266.002 157.091 262.567C157.811 260.412 158.006 258.042 157.665 255.581C157.416 253.313 157.13 251.041 156.748 248.746C156.611 247.606 156.294 246.447 155.809 245.298C155.474 244.491 154.914 243.719 154.187 243.063C153.46 242.406 152.591 241.889 151.671 241.565C150.751 241.24 149.812 241.12 148.952 241.216C148.091 241.312 147.339 241.621 146.774 242.111C145.164 243.493 143.821 245.1 142.775 246.893C141.346 249.861 140.632 253.183 140.666 256.702C140.228 261.466 139.999 266.294 140.127 271.197C140.274 275.45 139.779 279.551 138.653 283.401C137.185 288.642 135.166 293.641 132.617 298.347C131.888 299.683 131.239 301.057 130.53 302.41C130.35 300.468 130.419 298.572 130.733 296.757C131.221 292.408 131.932 288.189 132.31 283.833C132.615 279.898 132.84 275.924 132.686 271.858C132.534 267.792 131.774 263.82 131.546 259.827C131.266 256.249 130.451 252.592 129.119 248.945C128.931 248.326 128.661 247.708 128.312 247.108C127.784 246.243 126.996 245.474 126.055 244.908C125.115 244.343 124.069 244.008 123.063 243.951C120.851 243.649 120.438 244.867 120.199 246.147C119.654 249.08 119.088 251.998 118.969 255.092C118.701 259.457 118.852 263.951 118.743 268.313C118.633 271.361 118.262 274.357 118.058 277.381C117.854 280.405 117.841 283.666 117.585 286.782C117.16 292.227 116.395 297.583 116.181 303.093C116.067 311.113 114.487 318.733 111.499 325.684C110.156 328.425 108.071 330.725 105.377 332.436C100.982 335.365 96.742 338.449 92.4376 341.481C92.095 341.818 91.5525 341.965 91.1164 342.199C91.6389 340.804 92.2947 339.475 93.0781 338.222C96.0402 331.442 100.351 325.385 101.776 317.833C102.346 314.759 103.77 312.006 104.159 308.837C105.263 300.159 105.629 291.256 105.253 282.192C105.089 280.966 104.52 279.712 103.617 278.578C103.31 278.125 102.906 277.712 102.433 277.369C101.961 277.026 101.432 276.763 100.886 276.598C100.34 276.433 99.7905 276.371 99.2788 276.416C98.7671 276.462 98.3051 276.613 97.9277 276.86C96.0892 277.683 94.8054 279.121 94.2868 280.942C93.2291 285.656 91.8459 290.266 90.8246 294.983C89.3072 302.085 88.0786 309.287 86.5689 316.342C86.409 316.821 86.1966 317.276 85.9346 317.701C84.6797 312.977 83.8518 308.414 83.0976 303.856C82.6709 301.336 82.6228 298.831 82.013 296.296C81.4644 294.455 80.6919 292.62 79.7096 290.824C78.1573 287.382 75.7407 284.104 72.6653 281.27C70.2883 279.197 68.4257 278.938 67.2104 280.869C65.994 282.799 64.9858 285.221 63.9164 287.433C63.7529 287.594 63.9562 287.974 63.9148 288.208C63.5743 291.649 64.0546 295.303 65.3312 298.963C67.2868 306.324 69.783 313.695 71.9726 321.059C72.8135 323.639 73.4505 326.219 73.8771 328.78C74.4505 333.323 74.6889 337.808 75.0695 342.462C75.2209 342.585 75.705 342.767 76.2893 343.082C75.8333 348.287 74.938 353.268 70.5135 356.496C70.5415 355.429 70.6374 354.379 70.7997 353.352C70.8056 348.396 70.7009 343.43 70.5607 338.462C70.5388 337.163 70.3121 335.824 69.8886 334.481C69.7711 333.923 69.4965 333.362 69.0908 332.85C68.6851 332.338 68.1611 331.89 67.566 331.55C66.9724 331.209 66.3269 330.986 65.6894 330.9C65.0529 330.816 64.4449 330.871 63.9218 331.062C63.0289 331.259 62.2207 331.596 61.5297 332.061C60.4658 332.734 59.4974 333.505 58.6345 334.364C57.7798 335.108 57.124 336.015 56.6951 337.045C55.62 340.388 55.2506 344.017 55.6017 347.791C56.2717 354.006 56.1796 360.088 55.3262 365.934C55.1302 366.548 55.1945 367.258 55.5077 367.959C56.5526 369.562 55.7005 370.207 54.7428 370.955C52.0501 373.021 49.4217 375.141 46.7719 377.242C45.0593 378.656 42.9126 379.646 40.4721 380.147C42.8145 375.409 44.6075 370.784 46.2398 366.083C47.8736 361.383 49.8418 356.392 51.3847 351.511C52.242 348.257 52.2492 344.694 51.4066 341.044C51.3663 340.159 50.9739 339.229 50.2943 338.408C49.6163 337.587 48.6893 336.92 47.6676 336.519C46.5632 336.066 45.4177 335.845 44.3395 335.875C43.2614 335.906 42.2864 336.188 41.5076 336.695C39.0618 338.191 37.4131 340.444 36.7788 343.162C35.739 348.052 35.0174 353.094 34.1002 358.057C33.4544 361.632 32.9837 365.19 32.0245 368.725C29.8593 375.362 27.1753 381.76 23.987 387.883C23.5303 389.237 22.846 390.483 21.9514 391.585C19.2834 394.208 16.6151 396.831 13.5166 399.103C10.8313 401.051 7.98006 402.833 4.97573 404.444C3.07632 405.575 2.60559 406.773 5.56099 409.748C9.14397 413.421 13.4438 413.952 17.5094 414.829L18.8475 412.354C19.6404 411.452 20.1601 410.361 20.3759 409.149C20.2818 407.858 20.7575 406.715 21.7069 405.946C24.6282 403.421 27.6357 400.967 30.5137 398.408C34.6431 394.698 38.5433 390.748 42.8662 387.195C45.8815 384.694 49.3984 382.63 52.7008 380.389C53.058 380.038 53.6657 379.943 54.5441 379.506L53.7864 385.163C53.4327 387.717 53.2371 390.346 52.6653 392.803C51.724 396.861 51.309 401.214 47.8714 404.014C47.47 404.306 47.2179 404.726 47.1452 405.218C47.0729 405.71 47.1867 406.251 47.469 406.77C48.5985 409.142 50.6075 411.296 53.115 412.824C55.8833 414.707 57.2982 414.708 58.8231 412.706C60.0768 411.048 60.8586 409.273 62.054 407.674C64.4256 403.765 67.3083 400.18 70.6597 396.97C70.9961 396.728 71.2372 396.399 71.3585 396.011C71.7607 394.577 72.6389 393.372 73.9026 392.517C75.1652 391.662 76.7691 391.191 78.5466 391.15C86.8045 390.517 95.4866 391.093 104.275 392.859C109.212 393.616 114.159 394.245 119.073 394.714C123.987 395.184 128.646 395.284 133.444 395.712C138.408 396.22 143.162 395.826 147.41 394.556C148.536 394.242 149.491 393.679 150.2 392.909C150.908 392.139 151.351 391.181 151.495 390.113C151.802 388.458 151.271 387.704 149.238 386.878C145.904 385.579 142.467 384.969 139.239 385.102C134.854 385.198 130.324 384.854 125.944 384.982C119.792 385.111 113.948 386.136 107.467 385.274C105.604 385.015 103.826 384.985 101.957 384.694L101.701 384.056C102.355 383.73 103.064 383.473 103.819 383.29C105.734 382.941 107.697 382.69 109.7 382.536C113.892 382.283 118.198 382.229 122.441 382.043C126.683 381.857 130.736 381.625 134.854 381.444C142.062 381.051 149.321 380.724 156.45 380.291C157.884 380.196 159.181 379.795 160.239 379.12C160.68 378.89 161 378.536 161.164 378.097C161.328 377.658 161.33 377.152 161.168 376.637C161.006 376.122 160.688 375.619 160.25 375.184C159.812 374.75 159.271 374.403 158.69 374.182C157.032 373.398 155.317 372.793 153.593 372.384C146.059 370.752 138.587 370.079 131.424 370.387C122.87 370.371 114.686 371.439 107.107 373.558C102.723 374.888 98.2189 376.067 93.7572 377.281C92.9791 377.504 92.1024 377.593 91.0625 377.764C92.7276 375.315 94.1307 373.162 95.6634 371.113C96.0558 370.435 96.7154 369.935 97.5549 369.679C103.589 368.622 109.707 367.714 115.762 366.674C119.884 365.988 123.933 365.296 128.024 364.369C129.341 364.014 130.508 363.431 131.468 362.647C131.841 362.383 132.119 362.032 132.281 361.618C132.442 361.203 132.485 360.738 132.405 360.252C132.324 359.767 132.122 359.274 131.814 358.809C131.506 358.343 131.099 357.917 130.621 357.56C129.666 356.726 128.539 356.07 127.35 355.654C126.161 355.238 124.95 355.076 123.83 355.184C120.318 355.696 116.764 356.095 113.195 356.51C111.884 356.594 110.549 356.615 109.196 356.572C110.231 354.957 111.797 353.71 113.754 352.944C118.563 351.293 122.129 348.073 123.88 343.802C126.414 343.67 129.136 343.585 131.81 343.433C136.537 342.951 141.461 342.965 146.486 343.473C149.533 343.921 152.536 344.064 155.564 344.336C159.969 344.764 164.371 344.924 168.826 345.689C172.681 346.347 176.406 346.169 179.663 345.171C180.356 345.047 180.932 344.729 181.32 344.258C181.708 343.787 181.89 343.184 181.843 342.525C181.568 340.986 180.747 339.431 179.496 338.083C178.245 336.735 176.628 335.663 174.878 335.02C172.038 334.388 169.207 333.962 166.414 333.747C162.773 333.458 159.411 333.397 155.823 333.366C156.608 332.914 157.555 332.659 158.589 332.619C166.469 332.611 174.225 332.53 182.038 332.469C188.014 332.436 193.945 332.368 199.93 332.209C201.361 332.129 202.661 331.75 203.734 331.102C204.127 330.91 204.424 330.615 204.597 330.245C204.77 329.876 204.812 329.444 204.721 328.995C204.628 328.545 204.405 328.093 204.071 327.684C203.738 327.274 203.309 326.92 202.823 326.659C202.096 326.171 201.3 325.795 200.483 325.554C197.851 324.706 195.204 323.989 192.557 323.406C183.38 321.703 174.335 321.205 165.73 321.926C156.5 322.603 147.744 324.442 138.807 325.84C136.026 326.252 133.219 326.885 130.442 327.409C132.13 326.074 133.978 324.892 135.968 323.873C137.297 323.107 138.414 322.086 139.82 321.438C145.156 318.979 150.626 316.658 155.96 314.199C158.726 312.491 162.188 311.612 165.988 311.653C167.049 311.652 168.079 311.559 169.065 311.375C170.992 311.075 172.981 310.905 175.014 310.865C176.696 311.013 178.397 311.28 180.104 311.664C182.102 311.859 184.118 312.151 186.138 312.539C193.259 314.244 200.353 316.09 207.5 317.845C207.995 317.94 208.488 318.01 208.976 318.057C213.305 318.907 217.707 319.494 222.05 320.678C227.633 322.379 233.258 323.255 238.663 323.263C241.125 323.126 243.816 323.498 246.318 323.475C248.076 323.487 249.772 323.289 251.489 323.188C252.877 323.046 254.072 322.523 254.924 321.686C255.775 320.849 256.245 319.735 256.274 318.484C256.478 317.471 256.146 316.637 254.675 316.187C253.98 315.933 253.337 315.511 252.834 314.98C251.444 313.598 249.616 312.618 247.743 312.249C246.422 311.922 245.101 311.595 243.764 311.362C237.464 309.977 231.194 309.208 225.081 309.073C215.984 309.46 206.551 308.791 197.002 307.082C196.963 306.889 196.938 306.681 196.877 306.471C201.077 306.519 205.258 306.471 209.494 306.601C214.612 306.753 219.812 307.134 224.952 307.304C229.121 307.461 233.233 307.518 237.376 307.546C245.512 307.934 253.491 307.735 261.236 306.953C263.548 306.614 265.831 306.304 268.117 305.836C269.097 305.596 269.88 305.064 270.359 304.317C270.838 303.569 270.988 302.641 270.79 301.661C270.412 300.677 269.747 299.731 268.868 298.929C267.99 298.127 266.931 297.5 265.81 297.117C263.08 296.269 260.328 295.689 257.613 295.39C250.753 295.073 244.099 295.486 237.788 296.62C230.397 297.697 223.032 298.902 215.54 299.922C209.913 300.695 204.268 301.293 198.533 301.709C190.897 302.486 183.462 303.721 176.277 305.407C175.306 305.55 174.305 305.63 173.281 305.643C173.595 305.359 173.944 305.106 174.326 304.887C181.701 302.859 187.502 299.091 193.895 295.941C197.751 294.045 201.665 292.17 205.727 290.576C211.481 288.679 217.831 287.743 224.519 287.808C229.562 287.684 234.601 287.451 239.7 287.428C244.649 287.235 249.757 287.545 254.934 288.352C260.02 289.31 265.112 289.952 270.155 290.874C271.22 291.078 272.258 291.061 273.182 290.826C274.106 290.591 274.889 290.144 275.466 289.521C275.862 289.223 276.084 288.781 276.093 288.27C276.104 287.759 275.9 287.211 275.519 286.723C274.589 285.158 273.243 283.734 271.623 282.602C270.004 281.469 268.172 280.672 266.32 280.292C261.834 279.332 257.356 278.57 252.904 278.008C250.258 277.85 247.647 277.834 245.085 277.958C242.942 277.898 240.77 277.789 238.583 277.695C238.094 277.648 237.601 277.577 237.107 277.483C237.593 276.898 238.273 276.468 239.09 276.231C244.23 274.66 249.54 273.307 254.488 271.498C258.709 269.981 263.342 268.907 266.262 265.765C266.801 265.272 267.493 264.922 268.291 264.738C270.25 264.108 272.505 263.983 274.842 264.371C279.679 265.042 284.569 266.321 289.357 268.168C291.722 269.132 294.013 270.438 296.36 271.574C299.626 272.993 302.695 274.929 305.37 277.262C306.031 277.817 306.735 278.329 307.474 278.791C311.096 281.342 314.783 283.868 318.366 286.496C324.205 290.776 329.592 295.653 335.879 299.414C336.901 300.016 337.974 300.521 339.071 300.919C340.779 301.561 342.503 302.109 344.221 302.626C345.828 303.156 347.449 303.581 349.066 303.897C349.527 303.989 349.978 303.988 350.383 303.894C350.787 303.801 351.134 303.618 351.397 303.359C351.66 303.101 351.832 302.774 351.898 302.405C351.964 302.035 351.923 301.633 351.779 301.23C351.507 298.978 350.557 296.666 349.025 294.527C347.493 292.389 345.432 290.496 343.048 289.041C340.644 287.535 338.136 286.132 335.807 284.554C326.615 278.341 316.928 272.858 306.915 268.199C304.64 267.147 302.297 266.201 299.984 265.226C300.861 264.975 301.841 264.906 302.862 265.027C311.002 265.994 319.237 267.73 327.421 270.206C332.16 271.68 336.924 272.878 341.678 273.792C347.525 274.62 353.419 275.325 359.209 276.403C362.028 276.711 364.708 276.424 367.026 275.565C367.329 275.508 367.592 275.383 367.793 275.2C367.995 275.015 368.128 274.78 368.183 274.511C368.238 274.241 368.213 273.947 368.109 273.651C368.006 273.354 367.827 273.066 367.589 272.808C364.324 268.937 360.942 265.106 355.439 263.862C353.913 263.506 352.39 263.269 350.888 263.152C345.41 262.813 339.992 262.684 334.481 262.183C330.803 261.73 327.099 261.082 323.391 260.242C313.445 258.62 303.641 258.082 294.21 258.639C292.086 258.676 289.992 258.685 287.788 258.763C289.649 257.358 291.841 256.287 294.283 255.588C299.542 254.188 305.328 253.746 311.352 254.283C314.851 254.549 318.397 255.074 321.954 255.852C324.756 256.502 327.581 256.394 330.388 256.806C334.744 257.437 339.095 258.305 343.436 258.95C349.494 259.842 355.564 260.799 361.62 261.422C368.678 262.22 375.656 262.71 382.641 263.233C386.558 263.559 390.485 263.491 394.497 263.841C399.323 264.291 403.971 263.99 408.23 262.951C410.067 262.453 411.767 261.743 413.294 260.835C413.906 260.441 414.308 259.853 414.446 259.15C414.584 258.447 414.451 257.664 414.065 256.905ZM70.8096 373.148C75.1291 372.461 79.434 371.71 83.7743 371.04C84.4156 371.054 85.079 371.161 85.7371 371.355C85.1039 372.287 84.6805 373.013 84.1554 373.684C83.5137 374.411 82.8172 375.096 82.068 375.735L65.2102 390.567C65.176 390.139 65.1919 389.722 65.2591 389.32C66.4273 384.535 67.6602 379.803 68.7559 375.012C68.824 374.52 69.0496 374.089 69.4102 373.761C69.7714 373.434 70.2542 373.223 70.8096 373.148Z" fill="white"/>
<path d="M297.703 221.782C297.345 222.482 297.109 223.255 295.79 223.199C295.048 221.761 295.961 220.979 296.439 220.161C298.175 216.632 300.44 213.405 303.191 210.546C303.947 209.701 304.474 208.696 304.75 207.581C305.473 205.7 306.657 204.062 308.24 202.759C308.97 202.04 309.865 201.162 311.688 202.193C310.406 203.453 309.244 204.596 308.066 205.754C307.419 206.469 306.925 207.294 306.597 208.203C305.299 211.568 302.418 213.858 300.488 216.761C299.461 218.39 298.614 220.113 297.703 221.782ZM281.573 140.194C283.858 135.703 286.345 131.323 288.689 126.854C289.968 124.358 291.089 121.786 292.412 119.326C293.03 118.06 293.727 116.832 294.426 115.605C292.942 114.395 292.237 114.893 291.769 115.664C291.096 116.751 290.402 117.82 289.851 118.98C288.416 121.939 287.097 124.938 285.661 127.896C283.651 132.076 281.564 136.218 279.518 140.395C278.846 141.751 278.283 143.195 277.59 144.534C276.009 147.48 274.37 150.407 272.831 153.389C272.635 154.028 272.559 154.716 272.605 155.43L273.299 155.754C274.435 154.35 275.464 152.872 276.385 151.327C278.158 147.651 279.743 143.849 281.573 140.194ZM413.295 260.838C411.791 261.761 410.112 262.489 408.295 263.007C404.013 264.033 399.342 264.316 394.497 263.844C390.484 263.493 386.558 263.562 382.574 263.262C375.589 262.74 368.59 262.232 361.531 261.434C355.49 260.796 349.404 259.854 343.347 258.962C339.006 258.316 334.655 257.448 330.298 256.818C327.491 256.405 324.666 256.514 321.864 255.864C318.306 255.086 314.76 254.561 311.261 254.294C305.237 253.758 299.451 254.2 294.192 255.6C291.83 256.303 289.709 257.358 287.902 258.727C290.032 258.723 292.126 258.714 294.324 258.604C303.722 258.069 313.486 258.62 323.389 260.245C327.136 261.019 330.873 261.595 334.578 261.972C340.09 262.473 345.508 262.601 350.986 262.941C352.487 263.058 354.011 263.295 355.537 263.651C361.04 264.895 364.422 268.727 367.687 272.597C367.926 272.855 368.105 273.144 368.208 273.44C368.311 273.736 368.337 274.031 368.282 274.3C368.227 274.569 368.093 274.805 367.892 274.989C367.691 275.172 367.428 275.298 367.125 275.355C364.838 276.227 362.188 276.538 359.394 276.262C353.543 275.243 347.709 274.48 341.862 273.651C337.107 272.738 332.343 271.539 327.605 270.065C319.377 267.584 311.1 265.849 302.92 264.892C301.899 264.772 300.919 264.84 300.042 265.092C302.355 266.067 304.698 267.013 306.973 268.065C317.011 272.738 326.719 278.239 335.93 284.472C338.26 286.051 340.768 287.454 343.172 288.959C345.556 290.415 347.617 292.307 349.149 294.446C350.681 296.585 351.631 298.896 351.903 301.149C352.048 301.552 352.088 301.954 352.023 302.323C351.956 302.693 351.785 303.019 351.522 303.278C351.259 303.537 350.912 303.719 350.507 303.813C350.102 303.907 349.651 303.908 349.19 303.816C347.573 303.5 345.953 303.075 344.345 302.545C342.627 302.028 340.902 301.48 339.195 300.837C338.097 300.44 337.026 299.934 336.003 299.333C329.716 295.572 324.328 290.694 318.49 286.414C314.906 283.786 311.218 281.261 307.597 278.708C306.858 278.248 306.153 277.735 305.492 277.18C302.763 274.802 299.625 272.837 296.287 271.413C293.941 270.276 291.649 268.97 289.284 268.007C284.496 266.16 279.607 264.881 274.769 264.21C272.431 263.821 270.177 263.948 268.217 264.578C267.419 264.76 266.727 265.111 266.189 265.604C263.269 268.746 258.635 269.819 254.415 271.338C249.465 273.146 244.155 274.498 239.014 276.07C238.199 276.307 237.518 276.737 237.032 277.323C237.527 277.416 238.02 277.487 238.508 277.535C240.695 277.629 242.866 277.738 245.01 277.797C247.572 277.672 250.183 277.689 252.829 277.847C257.282 278.409 261.76 279.172 266.247 280.131C268.097 280.51 269.931 281.309 271.55 282.442C273.17 283.574 274.515 284.998 275.445 286.563C275.826 287.051 276.03 287.599 276.02 288.109C276.01 288.62 275.788 289.063 275.392 289.361C274.815 289.983 274.032 290.431 273.109 290.666C272.185 290.901 271.147 290.917 270.081 290.713C264.995 289.756 259.903 289.114 254.859 288.192C249.684 287.384 244.574 287.074 239.626 287.268C234.655 287.396 229.556 287.688 224.513 287.811C217.819 287.751 211.463 288.691 205.705 290.595C201.601 292.153 197.729 294.064 193.873 295.958C187.479 299.11 181.634 302.922 174.303 304.906C173.922 305.124 173.572 305.377 173.259 305.662C174.282 305.649 175.283 305.569 176.255 305.425C183.44 303.739 190.875 302.505 198.511 301.727C204.247 301.311 209.921 300.684 215.518 299.941C222.966 298.964 230.332 297.759 237.768 296.638C244.082 295.498 250.742 295.08 257.608 295.394C260.323 295.692 263.075 296.272 265.806 297.12C266.927 297.504 267.985 298.131 268.864 298.933C269.743 299.735 270.408 300.681 270.785 301.665C270.984 302.645 270.833 303.573 270.355 304.321C269.876 305.068 269.093 305.599 268.113 305.84C265.912 306.378 263.458 306.547 261.232 306.957C253.486 307.739 245.506 307.938 237.37 307.55C233.227 307.522 229.115 307.465 224.946 307.308C219.806 307.138 214.605 306.757 209.487 306.605C205.251 306.475 201.071 306.523 196.87 306.475C196.931 306.685 196.956 306.893 196.995 307.086C206.544 308.795 215.978 309.464 225.075 309.077C231.164 309.12 237.421 309.797 243.721 311.095C245.058 311.327 246.379 311.654 247.699 311.981C249.573 312.349 251.4 313.33 252.791 314.713C253.294 315.243 253.937 315.665 254.633 315.92C256.147 316.404 256.479 317.238 256.232 318.216C256.202 319.467 255.732 320.581 254.881 321.418C254.03 322.255 252.834 322.777 251.446 322.92C249.73 323.022 248.033 323.219 246.275 323.206C243.73 323.195 241.038 322.823 238.62 322.995C233.214 322.987 227.59 322.112 222.006 320.409C217.653 319.352 213.326 318.692 208.932 317.789C208.443 317.743 207.95 317.672 207.456 317.577C200.323 315.807 193.199 313.991 186.093 312.271C184.072 311.883 182.057 311.591 180.058 311.396C178.351 311.012 176.65 310.744 174.968 310.596C172.935 310.636 170.948 310.807 169.019 311.106C168.036 311.319 167.005 311.438 165.94 311.463C162.141 311.423 158.678 312.302 155.913 314.01C150.577 316.469 145.108 318.79 139.773 321.249C138.366 321.898 137.249 322.918 135.919 323.683C133.93 324.703 132.082 325.885 130.393 327.22C133.11 326.754 135.933 326.107 138.758 325.65C147.696 324.254 156.453 322.414 165.681 321.737C174.287 321.016 183.334 321.515 192.51 323.217C195.157 323.8 197.805 324.517 200.437 325.366C201.254 325.607 202.051 325.982 202.777 326.47C203.262 326.732 203.693 327.085 204.026 327.495C204.359 327.905 204.583 328.357 204.674 328.806C204.767 329.255 204.724 329.686 204.55 330.057C204.378 330.426 204.08 330.721 203.687 330.913C202.615 331.561 201.314 331.94 199.885 332.021C193.942 332.215 187.903 332.195 181.992 332.28C174.112 332.288 166.248 332.282 158.542 332.431C157.506 332.469 156.56 332.725 155.776 333.177C159.245 333.326 162.798 333.275 166.367 333.558C169.16 333.773 171.991 334.199 174.831 334.832C176.582 335.475 178.197 336.547 179.449 337.896C180.7 339.244 181.522 340.798 181.796 342.336C181.843 342.995 181.661 343.599 181.274 344.07C180.885 344.54 180.308 344.858 179.616 344.982C176.359 345.982 172.634 346.159 168.778 345.501C164.323 344.735 159.92 344.576 155.516 344.147C152.487 343.875 149.485 343.732 146.438 343.284C141.412 342.777 136.49 342.763 131.761 343.244C129.088 343.396 126.365 343.481 123.83 343.613C122.08 347.885 118.513 351.104 113.704 352.755C111.748 353.522 110.181 354.768 109.147 356.384C110.5 356.427 111.834 356.406 113.146 356.322C116.715 355.908 120.269 355.509 123.781 354.995C124.921 354.869 126.163 355.028 127.382 355.452C128.601 355.877 129.753 356.553 130.725 357.415C131.203 357.773 131.61 358.2 131.918 358.665C132.226 359.129 132.427 359.623 132.507 360.108C132.588 360.593 132.547 361.059 132.384 361.473C132.222 361.887 131.945 362.238 131.57 362.503C130.611 363.287 129.445 363.871 128.127 364.225C124.096 365.093 119.986 365.844 115.865 366.531C109.809 367.57 103.691 368.479 97.6575 369.536C96.8172 369.79 96.1576 370.29 95.7663 370.969C94.2336 373.017 92.8304 375.171 91.1648 377.621C92.2333 377.42 93.1112 377.331 93.86 377.137C98.3219 375.923 102.827 374.744 107.211 373.414C114.788 371.294 122.974 370.227 131.528 370.244C138.691 369.936 146.164 370.608 153.698 372.24C155.422 372.649 157.136 373.254 158.795 374.038C159.375 374.258 159.917 374.606 160.355 375.04C160.793 375.475 161.111 375.978 161.273 376.493C161.435 377.009 161.433 377.514 161.269 377.954C161.105 378.393 160.784 378.747 160.344 378.976C159.285 379.651 157.988 380.052 156.554 380.148C149.365 380.638 142.107 380.964 134.958 381.301C130.81 381.511 126.646 381.733 122.543 381.899C118.44 382.064 114.017 382.158 109.803 382.393C107.799 382.546 105.835 382.798 103.921 383.145C103.166 383.328 102.457 383.586 101.804 383.912L102.059 384.549C103.887 384.727 105.7 384.839 107.569 385.129C114.051 385.992 119.894 384.967 126.046 384.838C130.411 384.725 134.942 385.068 139.343 384.958C142.57 384.825 146.008 385.435 149.343 386.734C151.376 387.56 151.905 388.315 151.6 389.969C151.456 391.039 151.012 391.995 150.303 392.765C149.594 393.535 148.64 394.099 147.513 394.412C143.272 395.642 138.537 396.005 133.601 395.478C128.788 395.064 124.019 394.955 119.229 394.48C114.439 394.005 109.155 393.475 104.265 392.865C95.5034 391.16 86.857 390.64 78.6421 391.323C76.8634 391.363 75.2595 391.835 73.9968 392.69C72.733 393.544 71.8559 394.75 71.4526 396.184C71.3313 396.572 71.0913 396.901 70.7537 397.143C67.4022 400.353 64.5194 403.938 62.1478 407.847C60.8929 409.505 60.1107 411.28 58.9168 412.88C57.3918 414.881 55.9769 414.88 53.2096 412.997C50.7009 411.469 48.6918 409.315 47.5623 406.943C47.28 406.424 47.1673 405.883 47.2389 405.39C47.3111 404.899 47.5633 404.479 47.9647 404.187C51.4036 401.388 51.8185 397.034 52.7588 392.975C53.3305 390.518 53.5262 387.889 53.8799 385.336L54.6376 379.678C53.7603 380.116 53.2381 380.281 52.7942 380.562C49.4918 382.802 45.9758 384.867 42.9594 387.367C38.6367 390.92 34.736 394.871 30.6075 398.582C27.7282 401.14 24.7206 403.594 21.7997 406.118C21.2579 406.486 20.8382 406.969 20.5646 407.537C20.2905 408.105 20.167 408.747 20.203 409.427C19.9882 410.64 19.4675 411.73 18.6745 412.632L17.3374 415.108C13.2706 414.231 9.00031 413.67 5.38861 410.027C2.5406 407.14 2.91848 405.84 4.80222 404.722C7.80731 403.113 10.6591 401.33 13.3445 399.382C16.3783 397.057 19.1115 394.486 21.7796 391.864C22.6742 390.761 23.3585 389.516 23.8141 388.161C27.0599 381.964 29.7872 375.485 31.982 368.759C32.8814 365.283 33.4119 361.667 34.0573 358.092C35.0826 353.216 35.7394 348.121 36.7364 343.196C37.3718 340.447 39.0416 338.169 41.5248 336.671C42.3037 336.164 43.2787 335.881 44.3569 335.851C45.4351 335.82 46.5806 336.042 47.6851 336.494C48.7079 336.896 49.6338 337.562 50.3123 338.383C50.9915 339.205 51.3844 340.134 51.4242 341.019C52.2669 344.67 52.2596 348.232 51.4027 351.486C49.7999 356.426 47.9019 361.233 46.2587 366.059C44.614 370.886 42.8171 375.399 40.4904 380.124C42.9299 379.623 45.0767 378.633 46.7893 377.219C49.4397 375.117 52.0677 372.998 54.7609 370.93C55.6107 370.096 56.5703 369.538 55.5254 367.935C55.2122 367.235 55.1483 366.524 55.3439 365.91C56.1846 360.072 56.267 354 55.5897 347.796C55.2542 344.038 55.6326 340.427 56.7109 337.1C57.1398 336.07 57.7957 335.163 58.6504 334.418C59.5132 333.559 60.4817 332.789 61.5461 332.114C62.2367 331.65 63.0453 331.313 63.9378 331.116C64.461 330.925 65.0691 330.87 65.7066 330.955C66.343 331.04 66.9886 331.264 67.5826 331.604C68.1773 331.945 68.7017 332.392 69.1075 332.904C69.5128 333.417 69.7873 333.978 69.9048 334.536C70.331 335.895 70.5552 337.25 70.5693 338.563C70.7094 343.532 70.813 348.497 70.8087 353.453C70.646 354.481 70.5501 355.531 70.5221 356.598C74.9039 353.335 75.7993 348.354 76.298 343.183C75.7142 342.867 75.2582 342.657 75.0782 342.564C74.6976 337.909 74.4591 333.425 73.8857 328.881C73.4591 326.321 72.8221 323.74 71.9812 321.16C69.7915 313.796 67.2957 306.424 65.3395 299.063C64.0629 295.403 63.5826 291.749 63.9231 288.308C63.9645 288.074 63.8259 287.747 63.9252 287.532C64.9942 285.321 65.9187 283.019 67.2188 280.969C68.5179 278.918 70.2024 279.273 72.6539 281.273C75.7484 284.115 78.1812 287.406 79.7413 290.862C80.7237 292.659 81.4973 294.494 82.0448 296.335C82.6546 298.87 82.7027 301.375 83.1294 303.895C83.8848 308.453 84.7116 313.016 85.9665 317.74C86.2285 317.315 86.441 316.86 86.6019 316.382C88.025 309.256 89.3173 302.106 90.8567 295.022C91.7924 290.234 93.2623 285.695 94.3191 280.98C94.8376 279.159 96.1215 277.721 97.9601 276.898C98.336 276.657 98.7925 276.508 99.2996 276.463C99.8063 276.419 100.349 276.479 100.888 276.639C101.428 276.801 101.952 277.058 102.423 277.394C102.893 277.73 103.297 278.136 103.607 278.582C104.51 279.715 105.079 280.969 105.243 282.195C105.619 291.26 105.253 300.163 104.149 308.841C103.673 311.939 102.336 314.763 101.766 317.838C100.341 325.389 96.1153 331.516 93.0675 338.226C92.284 339.479 91.6282 340.809 91.1057 342.204C91.5418 341.97 92.0196 341.77 92.427 341.486C96.7315 338.454 100.971 335.37 105.367 332.44C108.061 330.729 110.146 328.43 111.489 325.688C114.478 318.737 116.057 311.117 116.171 303.096C116.385 297.587 117.151 292.231 117.575 286.785C117.831 283.669 117.864 280.505 118.048 277.384C118.232 274.263 118.623 271.364 118.733 268.316C118.901 263.895 118.751 259.401 118.96 255.094C119.143 252.053 119.709 249.135 120.19 246.149C120.428 244.87 120.842 243.651 123.053 243.954C124.059 244.011 125.105 244.346 126.046 244.911C126.986 245.477 127.775 246.245 128.303 247.11C128.652 247.711 128.922 248.328 129.11 248.948C130.442 252.594 131.257 256.252 131.536 259.83C131.764 263.823 132.566 267.909 132.677 271.861C132.788 275.814 132.636 279.871 132.302 283.835C131.858 288.14 131.341 292.517 130.724 296.761C130.409 298.575 130.341 300.472 130.521 302.414C131.229 301.061 131.879 299.687 132.608 298.351C135.157 293.645 137.176 288.645 138.644 283.405C139.77 279.555 140.265 275.452 140.118 271.2C139.99 266.297 140.219 261.469 140.657 256.705C140.623 253.185 141.337 249.863 142.767 246.896C143.812 245.102 145.156 243.495 146.766 242.113C147.331 241.623 148.083 241.315 148.943 241.219C149.804 241.122 150.742 241.243 151.662 241.567C152.582 241.892 153.451 242.409 154.178 243.065C154.906 243.721 155.466 244.493 155.801 245.301C156.286 246.449 156.602 247.609 156.74 248.748C157.121 251.044 157.408 253.315 157.657 255.583C157.998 258.045 157.803 260.415 157.083 262.57C155.827 265.97 154.933 269.557 154.154 273.186C152.51 279.138 150.235 284.818 147.353 290.161C146.093 292.753 144.308 295.05 142.911 297.585C142.258 298.768 142.066 300.194 141.5 301.448C140.183 304.289 138.765 307.074 137.392 309.896C137.33 310.106 137.291 310.325 137.275 310.551C137.426 310.674 137.608 310.688 137.637 310.659C141.29 307.069 146.537 304.967 149.696 300.894C151.262 299.255 153.041 297.789 155.014 296.518C156.351 295.436 157.724 294.357 158.953 293.188C162.068 290.125 165.198 287.048 168.315 283.986C171.43 280.923 174.589 277.198 177.855 273.91C180.42 271.732 182.592 269.22 184.328 266.425C184.669 265.79 184.944 265.119 185.151 264.416C185.928 262.038 186.551 259.593 187.017 257.089C187.746 252.08 188.403 246.984 188.502 241.703C188.606 236.588 187.964 231.31 186.587 225.984C185.205 220.936 183.469 215.884 181.392 210.859C179.54 206.104 178.354 201.274 176.882 196.454C176.153 194.115 175.289 191.83 174.639 189.53C173.846 186.711 174.084 186.207 176.845 185.35C177.812 184.876 178.946 184.622 180.169 184.608C181.392 184.593 182.677 184.816 183.938 185.262C185.46 185.809 186.844 186.787 187.832 188.011C191.586 192.544 193.878 197.641 194.382 202.578C194.666 206.67 194.717 210.681 194.557 214.707C194.398 218.732 195.182 223.261 195.573 227.44C195.781 230.292 195.925 233.091 196.091 235.907L196.303 239.566C197.296 238.071 197.771 236.276 197.685 234.339C197.907 231.49 197.731 228.53 197.8 225.638C197.918 220.88 198.124 216.114 198.241 211.357C198.356 207.026 198.472 202.696 198.421 198.337C198.36 196.876 198.02 195.367 197.415 193.87C196.634 191.893 196.089 190.107 197.988 188.975C198.987 188.455 200.259 188.305 201.597 188.549C202.934 188.793 204.259 189.417 205.356 190.319C206.402 191.099 207.345 191.986 208.152 192.949C210.556 195.829 212.359 198.967 213.446 202.162C214.532 205.357 214.878 208.538 214.462 211.503C214.047 213.845 214.011 216.203 213.597 218.467C213.194 220.744 212.612 222.956 211.855 225.09C209.802 230.977 207.446 236.697 205.234 242.508C204.947 243.177 204.808 243.916 204.822 244.693C207.177 241.411 209.445 238.06 211.943 234.868C214.112 232.08 216.554 229.486 218.801 226.734C221.813 223.077 224.969 219.511 227.628 215.62C229.903 212.644 230.645 208.752 229.725 204.622C228.821 200.907 228.69 197.207 227.413 193.511C224.381 185.055 220.088 176.699 214.658 168.68C212.482 165.404 209.956 162.162 207.485 159.021C207.313 158.881 207.318 158.643 207.146 158.502C202.845 154.994 201.691 150.674 200.212 146.519C199.194 143.939 198.711 141.343 198.787 138.867C198.886 137.3 199.437 135.88 200.394 134.729C201.353 133.579 202.689 132.73 204.292 132.256C204.456 132.158 204.652 132.098 204.866 132.076C205.081 132.055 205.311 132.073 205.541 132.131C205.772 132.19 205.999 132.286 206.209 132.414C206.42 132.543 206.609 132.701 206.766 132.881C207.57 133.581 208.207 134.405 208.619 135.276C209.276 137.394 210.226 139.502 211.444 141.55C215.187 148.771 219.497 155.873 224.342 162.797C229.145 169.56 232.88 176.668 235.413 183.868C235.636 184.49 236.101 185.079 236.72 185.523C236.797 184.978 236.795 184.409 236.713 183.828C235.12 178.507 233.571 173.221 231.783 167.822C230.393 164.006 228.384 160.061 227.053 156.187C225.712 152.19 224.629 148.191 223.811 144.21C222.771 139.596 222.665 135.078 223.494 130.866C224.088 127.156 225.968 123.966 228.916 121.668C230.182 120.77 231.613 120.06 233.677 121.127C234.592 121.593 235.402 122.249 236.013 123.018C236.625 123.787 237.011 124.638 237.127 125.47L240.544 142.924L244.506 162.781C244.887 164.728 245.247 166.657 245.679 168.592L248.996 182.855C249.319 182.143 249.586 181.403 249.795 180.637C251.407 174.275 251.967 167.521 251.463 160.547C250.55 151.462 249.972 142.437 249.358 133.409C249.005 128.456 249.096 123.569 248.627 118.655C248.179 115.4 248.383 112.255 249.229 109.358C250.186 106.214 252.285 103.641 255.269 101.951C256.06 101.491 257.03 101.25 258.091 101.251C259.152 101.253 260.27 101.497 261.34 101.961C262.41 102.425 263.397 103.093 264.213 103.905C265.028 104.716 265.642 105.644 266.002 106.604C268.378 112.448 269.396 118.342 268.99 123.897C268.459 128.558 268.317 133.108 267.771 137.436C267.061 142.621 265.909 147.661 264.952 152.78L263.642 160.372L264.357 160.714C264.692 160.174 264.989 159.611 265.247 159.027C266.736 155.281 268.225 151.535 269.613 147.733C272.488 139.916 275.147 132.003 278.16 124.244C279.868 119.819 281.829 115.493 284.057 111.33C285.373 109.229 287.755 107.905 290.693 107.64C293.631 107.376 296.893 108.194 299.779 109.917C301.043 110.898 302.078 112.083 302.791 113.363C303.505 114.644 303.872 115.977 303.859 117.24C303.743 118.145 303.492 119.003 303.111 119.795C300.452 124.845 297.44 129.692 294.086 134.313C290.901 138.257 288.147 142.473 285.415 146.707C282.682 150.94 280.241 155.893 276.89 160.078C273.185 164.724 271.348 170.359 268.121 175.234C267.238 176.823 266.49 178.487 265.883 180.22C266.063 180.378 266.249 180.53 266.443 180.676C267.068 180.06 267.71 179.43 268.206 178.709L277.719 166.573C281.259 162.087 284.713 157.531 288.383 153.15C292.081 148.269 296.72 144.073 302.163 140.687C303.483 139.909 305.142 139.547 306.947 139.643C308.751 139.738 310.627 140.287 312.357 141.227C313.652 141.887 314.73 142.908 315.361 144.074C315.991 145.239 316.124 146.456 315.731 147.465C314.738 149.307 313.597 151.063 312.313 152.721C311.402 154.042 310.159 155.147 309.428 156.562C306.73 161.574 301.9 165.008 298.462 169.47C295.025 173.933 289.995 177.793 285.776 181.94C282.91 184.827 279.699 187.428 276.175 189.714C273.362 191.629 270.262 193.284 267.227 194.991C263.342 197.185 259.218 198.996 255.628 201.403C252.156 203.517 248.986 205.946 246.155 208.664C243.885 210.441 242.212 212.731 241.246 215.386C240.912 216.117 240.411 216.752 239.768 217.264C238.963 217.96 238.351 218.812 237.955 219.782C239.179 219.197 240.424 218.63 241.583 217.995C246.713 215.234 251.877 212.556 256.828 209.622C263.918 205.957 270.601 201.827 276.844 197.258C279.71 194.904 282.076 192.115 284.685 189.55C285.669 188.583 286.761 187.704 287.795 186.725C288.172 186.295 288.749 186.037 289.429 185.995C290.11 185.954 290.852 186.132 291.528 186.498C292.266 186.859 292.932 187.364 293.458 187.962C293.982 188.56 294.348 189.23 294.519 189.903C294.612 190.166 294.642 190.428 294.604 190.67C293.597 194.059 293.724 197.996 290.768 200.438C289.148 201.799 287.875 203.281 286.257 204.562C285.084 205.476 283.647 206.126 282.029 206.475C280.019 207.171 278.178 208.098 276.541 209.239L259.623 218.713C256.648 220.362 253.835 222.197 250.675 223.641C247.079 225.32 243.148 226.591 239.496 228.171C237.073 229.198 234.88 230.465 232.571 231.612C231.664 232.078 230.663 232.442 229.821 232.961C227.406 234.369 225.082 235.879 222.666 237.287C218.516 240.118 214.785 243.358 211.521 246.966C213.643 246.259 215.541 245.241 217.153 243.944C219.117 242.865 220.865 241.61 222.85 240.548C226.315 238.691 229.827 236.889 233.385 235.145C234.993 234.337 236.721 233.683 238.421 232.979C243.258 230.971 248.122 229.012 252.894 226.952C257.458 225.044 262.425 223.694 267.688 222.932C271.231 222.39 272.813 224.431 275.014 226.871C276.731 228.781 276.394 230.544 274.493 232.104C271.85 234.112 268.769 235.68 265.346 236.762L250.459 242.074C250.745 242.577 251.074 243.068 251.441 243.545C251.992 244.045 252.377 244.652 252.536 245.267C252.695 245.884 252.617 246.472 252.316 246.94C250.979 249.491 249.438 251.923 247.701 254.223C243.56 258.994 238.493 263.037 232.646 266.237C229.762 268.084 227.035 270.093 224.477 272.256C224.714 272.449 225.04 272.554 225.106 272.528C231.73 268.492 238.208 264.446 245.02 260.456C247.701 259.107 250.513 257.918 253.443 256.896C254.333 256.524 255.281 256.25 256.221 255.945C257.047 255.564 258.025 255.395 259.07 255.45C260.117 255.505 261.201 255.785 262.233 256.264C262.81 256.555 263.429 256.712 264.016 256.714C264.601 256.715 265.127 256.561 265.53 256.272C268.568 254.636 271.003 252.361 272.684 249.586C275.899 244.995 278.51 239.992 281.299 235.161C282.718 232.645 283.877 229.997 285.23 227.428C286.969 224.287 288.621 221.078 290.712 218.171C293.943 213.486 297.296 208.874 300.815 204.371C303.544 200.993 306.609 197.862 309.676 194.733C310.899 193.652 312.278 192.711 313.793 191.924C314.208 191.658 314.722 191.504 315.29 191.476C315.857 191.447 316.461 191.544 317.053 191.759C317.645 191.974 318.205 192.299 318.688 192.709C319.171 193.118 319.563 193.6 319.829 194.113C320.515 195.174 320.93 196.3 321.038 197.393C321.147 198.486 320.946 199.513 320.452 200.386C319.014 202.806 317.618 205.261 315.93 207.423C311.595 212.923 307.43 218.563 302.565 223.657C297.699 228.75 293.957 234.091 289.628 239.275C288.775 240.354 288.191 241.609 287.9 242.986C290.183 241.665 292.147 240.008 293.732 238.064C297.907 233.961 301.957 229.748 305.882 225.424C307.906 223.241 309.694 220.865 311.668 218.614C313.433 216.647 315.212 214.667 317.184 212.844C319.568 210.506 322.133 208.32 324.869 206.295C328.209 203.979 331.907 202.008 335.397 199.814C336.817 199.031 338.596 198.709 340.509 198.889C343.439 199.027 344.858 200.533 345.239 203.176C345.453 204.631 345.292 206.02 344.768 207.245C344.245 208.469 343.371 209.496 342.211 210.253L331.038 218.567C327.02 221.511 323.074 224.539 318.818 227.369C314.33 230.415 310.196 233.807 306.445 237.52C301.57 242.312 297.147 247.473 291.07 251.203C290.101 251.729 289.343 252.474 288.849 253.387C290.767 252.824 292.585 252.111 294.286 251.253C296.832 249.517 299.734 248.16 302.916 247.218C310.856 245.06 316.839 240.61 322.851 236.209C328.491 232.096 334.003 227.877 339.779 223.901C344.378 220.734 349.099 217.641 354.111 214.919C358.528 212.245 363.582 210.302 369.103 209.156C371.534 208.726 374.001 208.351 376.503 208.032C377.178 207.975 377.893 208.032 378.615 208.2C381.129 208.669 382.257 209.803 382.161 211.87C382.163 213.115 381.845 214.271 381.228 215.259C380.611 216.246 379.71 217.041 378.587 217.589C374.857 219.373 371.067 221.099 367.218 222.768C361.643 225.192 355.812 227.327 350.429 229.988C346.426 231.951 342.939 234.605 339.227 236.939L339.708 237.626C341.063 237.361 342.374 237.016 343.633 236.592C350.029 233.864 356.951 231.859 364.277 230.612C372.405 229.198 380.015 226.745 388.725 226.423C391.509 226.27 394.371 226.343 397.278 226.642C399.326 226.962 401.387 227.751 403.244 228.926C405.101 230.102 406.687 231.62 407.835 233.323C408.306 233.787 408.658 234.32 408.856 234.87C409.055 235.42 409.093 235.969 408.968 236.46C408.842 236.951 408.556 237.369 408.14 237.671C407.723 237.973 407.189 238.149 406.592 238.182C402.614 238.959 398.539 239.522 394.539 240.282C390.539 241.041 387.23 241.935 383.495 242.589C376.274 243.885 368.991 245.049 361.763 246.313C357.714 247.005 353.85 247.902 349.743 248.573C346.639 249.072 343.373 249.304 340.15 249.571C338.002 249.748 335.898 249.882 333.299 249.961C336.21 251.417 339.346 252.09 342.216 251.872C350.07 252.353 357.967 252.868 365.807 253.285C368.488 253.434 371.104 253.261 373.792 253.443C382.9 254.147 391.883 254.299 400.679 253.898C403.813 253.883 407.037 254.192 410.288 254.819C411.649 254.99 413.375 255.46 414 256.934C414.383 257.682 414.521 258.455 414.395 259.151C414.269 259.848 413.886 260.436 413.295 260.838ZM91.0819 334.22C90.9744 334.133 90.845 334.027 90.663 334.013L90.1304 335.349C90.1304 335.349 90.3246 335.507 90.4321 335.595L91.0819 334.22ZM89.8517 319.221C89.0651 323.592 88.3787 328.02 87.6484 332.411C87.5237 333.115 87.4569 333.838 87.3686 334.543C87.6355 334.537 87.881 334.477 88.0884 334.368C88.2948 334.258 88.4577 334.102 88.5649 333.91C89.72 331.42 90.8752 328.931 91.8931 326.382C92.8745 324.092 93.7043 321.726 94.381 319.295C95.4177 315.18 96.2019 310.967 97.0878 306.808C98.1959 301.464 99.8527 296.354 99.1341 290.406C99.2126 289.633 99.4324 288.909 99.7871 288.256C100.742 289.514 101.295 290.902 101.372 292.23C101.304 297.081 100.671 301.783 99.4844 306.27C98.8015 309.843 97.7133 313.272 96.7649 316.681C96.1576 319.135 95.6506 321.645 95.0792 324.101C94.96 324.218 95.2227 324.54 95.3424 324.771L93.5961 326.913L92.6573 330.545L92.4782 330.721L92.3433 330.852L91.0676 332.493C91.2864 332.597 91.5008 332.708 91.7104 332.829L92.2835 330.911L92.4485 330.75L92.5974 330.604C93.1848 329.716 93.7437 328.857 94.2674 327.917C94.3716 327.815 93.7994 327.294 93.5367 326.972C95.213 327.026 95.3806 326.01 95.2826 324.831C95.7446 324.513 96.1352 324.128 96.4458 323.687C97.2889 321.426 98.1123 319.148 98.8182 316.828C99.8364 313.314 100.831 309.781 101.732 306.226C103.174 299.13 103.67 291.705 103.211 284.077C103.131 283.018 102.91 281.938 102.551 280.857C102.337 279.985 102.048 278.838 100.788 278.723C100.367 278.711 99.9723 278.782 99.6345 278.933C99.2973 279.085 99.0249 279.312 98.8354 279.597C96.4733 283.31 94.976 287.527 94.4075 292.073C94.2447 293.898 94.1028 295.74 93.8079 297.537C92.9597 302.6 92.0645 307.645 91.1244 312.67C90.9294 314.951 90.2341 317.065 89.8517 319.221ZM82.4257 343.195C83.0699 338.92 82.9603 334.415 82.1017 329.818C81.6233 327.778 81.273 325.746 81.0513 323.732C80.3015 317.7 78.8377 311.581 76.6822 305.474C76.1313 303.657 75.1058 301.801 74.4392 299.944C73.3468 297.149 72.63 294.526 71.7693 291.813L72.8223 291.707C75.1815 295.616 75.662 299.708 77.5551 303.611C79.2589 307.682 80.5673 311.782 81.463 315.863C82.4563 319.837 82.9685 323.821 83.6922 327.79C83.8459 327.758 83.9772 327.691 84.0757 327.594C84.1742 327.497 84.2369 327.373 84.2593 327.234C83.6274 321.356 83.1249 315.583 82.4506 309.67C81.6394 304.316 80.5368 298.939 79.15 293.571C78.0322 290.082 75.9571 286.664 73.1212 283.638C72.4314 283.022 71.679 282.462 70.8812 281.971C70.1603 282.412 69.5745 282.988 69.151 283.671C67.9977 286.779 66.6663 289.984 67.9131 293.708C69.1606 297.434 71.2939 301.99 73.1159 306.157C74.4228 309.128 75.8903 312.094 77.1467 315.077C79.0164 320.053 80.0403 325.048 80.1821 329.887C80.2268 330.54 80.3808 331.471 80.8694 331.843C82.2451 332.965 82.2293 334.025 82.2209 335.117C82.1909 336.809 82.031 338.475 81.9489 340.258C81.7648 341.176 81.9307 342.2 82.4257 343.195ZM85.2928 345.212L88.7727 338.773L88.0662 338.384C86.9117 340.526 84.6973 342.044 85.2928 345.212ZM66.6654 355.785C66.7929 355.022 66.982 354.28 67.2312 353.565C68.5936 348.115 68.7252 342.221 67.6229 336.161C67.323 335.026 66.9112 333.891 66.3899 332.768C62.5553 334.681 59.6105 336.569 59.6064 340.481C59.5933 345.833 59.7732 351.343 60.0077 356.682L60.1595 364.502C62.0084 363.684 63.5431 362.496 64.6749 361.005C65.8052 359.515 66.5091 357.753 66.7447 355.823L66.6654 355.785ZM31.2739 384.619L33.0312 380.958C34.5612 377.675 36.2138 374.464 37.5696 371.119C38.664 368.419 39.3248 365.525 40.3821 362.821C40.4762 362.082 40.7814 361.419 41.2734 360.889C41.765 360.359 42.4293 359.974 43.2132 359.768L40.3863 369.395C40.9719 369.296 41.4339 368.994 41.6807 368.547C43.5202 364.348 45.057 359.998 46.2821 355.514C47.6456 351.789 48.0206 347.643 47.3845 343.328C47.2567 341.691 47.306 340.089 47.5314 338.541C46.8703 337.76 45.7278 337.606 44.5975 337.944C43.6729 338.183 42.9011 338.647 42.3544 339.294C41.8071 339.94 41.5019 340.747 41.4684 341.639C41.2314 344.502 40.8571 347.307 40.6409 350.188C39.9341 357.274 38.372 364.084 35.977 370.517C34.5019 374.676 32.5007 378.809 30.8134 382.983C30.6708 383.161 31.0035 383.647 31.3537 384.657L31.2739 384.619ZM35.5882 381.462L36.2637 380.216C36.1134 380.094 35.9631 379.971 35.8336 379.866L35.157 381.11C35.3356 381.231 35.5062 381.361 35.6669 381.499L35.5882 381.462ZM198.421 312.378L198.399 312.012L196.649 311.604L196.695 312.178L198.421 312.378ZM197.494 303.578C199.405 303.761 201.291 303.821 203.136 303.757C208.779 303.935 214.433 304.258 220.082 304.468C222.408 304.541 224.693 304.422 226.993 304.367C228.653 304.514 230.341 304.712 231.988 304.795C239.034 305.179 245.878 304.408 253.14 305.317C253.428 305.323 253.705 305.298 253.966 305.24C256.898 304.95 259.985 304.545 262.948 304.147C264.92 303.87 266.477 302.881 267.29 301.388C266.953 301.075 266.594 300.782 266.214 300.511C263.176 298.552 259.681 297.515 256.45 297.614C252.406 297.721 248.379 297.464 244.498 297.759C241.501 297.996 238.875 298.722 236 299.111C230.921 299.849 225.804 300.52 220.65 301.124C215.312 301.73 209.918 302.236 204.557 302.824C202.212 303.002 199.929 303.313 197.603 303.586L197.494 303.578ZM186.797 309.413C189.204 310.047 191.607 310.308 193.886 310.181C195.408 309.952 197.088 310.118 198.749 310.662C199.651 310.954 200.559 311.175 201.462 311.321C206.111 311.975 210.799 312.742 215.357 313.136C223.978 313.946 232.558 314.564 241.105 315.369C242.072 315.51 243.045 315.705 244.017 315.948C243.963 316.388 244.009 316.692 243.935 316.686C230.694 316.19 217.274 314.95 203.754 312.976L203.848 313.695L219.927 316.381C220.428 316.468 221.049 316.439 221.422 316.689C224.535 318.853 227.714 318.899 230.917 319.232C233.027 319.479 235.146 319.679 237.263 319.957C240.805 320.55 244.285 320.676 247.585 320.333C248.876 320.163 250.052 319.768 251.054 319.167C252.701 318.205 252.61 317.327 250.769 315.771C250.032 315.147 249.167 314.664 248.26 314.368C246.575 313.848 244.879 313.433 243.188 313.127C237.399 311.9 231.64 311.172 225.997 310.955C219.151 311.029 212.162 310.618 205.094 309.724C201.152 309.189 197.219 308.53 193.276 307.994C190.769 307.695 188.467 308.199 186.797 309.413ZM170.683 308.387C170.855 308.528 170.871 308.783 170.962 308.964L174.272 308.071L173.997 307.605L170.683 308.387ZM278.909 249.193L279.404 249.597L281.95 246.552C283.29 245.246 284.462 243.808 285.457 242.254C288.369 236.103 293.201 231.275 297.278 225.914C301.355 220.552 305.933 215.973 310.042 210.852C312.77 207.473 315.205 203.882 317.486 200.246C318.249 199.343 318.55 198.146 318.341 196.853C318.131 195.56 317.424 194.25 316.333 193.138C314.425 194.341 312.625 195.658 310.945 197.082C307.889 200.086 304.803 203.12 302.156 206.457C299.039 210.216 296.124 214.166 293.367 218.192C291.145 221.42 289.254 224.865 287.169 228.152C286.834 229.037 286.561 229.951 286.351 230.89C289.475 229.523 290.181 226.158 293.823 225.402C291.402 229.406 288.249 232.893 285.858 236.869C283.466 240.845 281.136 245.03 278.808 249.138L278.909 249.193ZM263.029 188.403C262.13 189.519 260.971 190.424 259.944 191.436C258.572 192.784 257.216 194.117 255.6 195.938C258.003 195.779 259.733 195.743 260.423 194.214C260.837 193.377 261.385 192.617 262.055 191.952C263.218 190.809 264.681 189.911 265.807 188.765C270.682 183.974 276.66 180.108 280.251 174.296L280.475 174.076L286.784 167.371C287.932 166.243 289.11 165.085 290.258 163.957C292.969 160.672 295.574 157.3 298.286 154.015C299.286 152.857 300.386 151.776 301.58 150.776C302.176 150.19 303.09 149.756 304.373 150.507C301.042 154.44 297.827 158.333 294.513 162.173C292.672 164.291 290.666 166.301 288.783 168.385C287.168 170.205 285.488 171.972 284.017 173.882C280.718 177.745 277.062 181.337 273.075 184.639C270.556 187.115 267.664 189.261 264.952 191.58C267.799 191.149 270.335 190.147 272.39 188.638C275.103 185.971 277.954 183.363 281.018 181.009C285.188 177.986 288.968 174.595 292.318 170.867C293.76 169.031 295.372 167.318 297.142 165.739C303.046 160.902 307.054 154.679 311.802 149.006C312.501 147.937 312.859 146.671 312.852 145.304C312.893 145.01 312.857 144.694 312.749 144.378C312.64 144.061 312.461 143.75 312.222 143.464C311.984 143.179 311.691 142.925 311.362 142.719C311.034 142.513 310.676 142.359 310.314 142.268C309.462 141.94 308.587 141.753 307.743 141.718C306.899 141.684 306.102 141.803 305.401 142.068C302.808 142.841 300.584 144.143 298.877 145.89C294.356 150.265 290.227 154.956 286.514 159.938C283.812 163.794 280.455 167.25 277.443 170.906C272.584 176.649 267.853 182.577 263.029 188.403ZM252.199 196.998L250.626 197.887C250.147 198.204 249.629 198.48 249.076 198.714C248.131 199.072 247.398 199.693 246.963 200.504C246.527 201.316 246.405 202.285 246.614 203.301L252.199 196.998ZM250.708 192.429C250.298 193.49 249.629 194.418 249.082 195.42L249.727 195.946C252.023 194.827 254.123 193.477 255.994 191.914C258.286 189.409 260.253 186.66 261.869 183.702C264.356 179.322 266.483 174.756 268.805 170.268C270.305 167.362 271.899 164.48 273.478 161.612C275.057 158.744 276.416 156.286 277.997 153.688C280.509 149.596 282.917 145.447 285.702 141.551C289.192 136.649 293.272 132.174 296.122 126.857C297.659 123.954 299.217 121.069 300.652 118.11C301.76 115.823 299.828 111.726 297.217 110.696C293.339 109.168 287.848 109.73 286.681 112.425C284.499 117.51 281.92 122.405 279.745 127.522C278.054 131.505 276.915 135.643 275.326 139.603C272.502 146.711 269.622 153.72 266.617 160.814C265.693 163.037 264.314 165.05 263.507 167.314C262.869 169.18 261.282 170.701 261.728 173.318C264.407 169.872 265.046 165.298 268.845 163.034C269.026 163.973 268.926 164.871 268.554 165.64C267.709 167.283 266.62 168.781 265.81 170.427C264.65 172.805 263.692 175.295 262.446 177.603C261.996 178.259 261.418 178.826 260.731 179.288C259.709 179.863 258.833 180.594 258.131 181.458C256.81 184.536 255.705 187.711 254.639 191.157C252.28 190.575 252.11 190.355 252.642 189.02C253.683 186.41 254.74 183.785 255.585 181.097C256.125 179.231 256.54 177.313 256.826 175.352C257.472 171.428 258.329 167.568 258.73 163.498C259.114 158.287 259.102 153.076 259.072 147.689C259.043 142.302 259.038 137.82 258.926 132.901C258.873 128.542 259.099 124.221 258.859 119.815C258.691 116.112 259.739 112.489 257.011 108.44C258.238 107.698 259.135 108.403 259.478 109.38C260.189 111.139 260.637 112.912 260.809 114.649C260.938 119.125 260.675 123.522 260.731 127.992C260.807 136.313 260.992 144.642 261.161 152.985C261.171 153.556 261.29 154.136 261.419 155.207C261.736 154.895 261.993 154.538 262.187 154.144C264.535 144.569 266.032 134.67 266.665 124.52C266.745 119.73 266.117 114.787 264.794 109.801C264.328 108.311 263.62 106.83 262.693 105.407C262.499 105.052 262.227 104.718 261.896 104.428C261.566 104.139 261.183 103.901 260.778 103.73C260.372 103.56 259.95 103.46 259.543 103.44C259.136 103.419 258.753 103.477 258.421 103.61C256.02 105.004 253.257 106.289 252.786 109.15C252.112 112.534 251.795 116.043 251.837 119.638C251.96 125.396 252.462 131.248 252.94 137.082C253.329 142.038 253.922 147.027 254.332 152C254.651 155.827 254.918 159.665 254.975 163.438C255.032 167.212 254.457 170.523 254.627 174.148C254.562 180.666 253.238 186.84 250.708 192.429ZM227.681 182.494C229.19 184.878 231.063 187.37 232.416 189.869C233.77 192.368 234.679 194.879 235.813 197.44C235.917 197.337 236.036 197.22 236.096 197.161C235.587 192.347 234.291 187.435 232.245 182.571C230.104 177.168 227.324 171.832 223.952 166.662C220.34 161.488 217.039 156.207 214.067 150.849C211.051 145.83 208.35 140.734 205.978 135.59C205.708 135.16 205.389 134.747 205.027 134.358C204.778 134.636 204.578 134.95 204.431 135.292C203.6 140.736 204.967 146.764 208.327 152.468C210.657 156.774 213.308 161.006 216.259 165.133C217.632 167.111 219.049 169.045 220.452 170.993C220.367 169.155 219.556 167.228 218.148 165.52C214.425 159.969 211.327 154.232 208.911 148.412C208.765 148.052 208.905 147.683 208.904 147.335L209.489 147.302L212.105 152.466C212.645 153.523 213.06 154.585 213.664 155.615C215.748 159.138 217.949 162.622 219.995 166.142C221.037 167.852 221.962 169.593 222.764 171.35C224.287 174.766 225.599 178.195 227.057 181.637C227.236 181.933 227.445 182.22 227.681 182.494ZM234 203.362C234.488 198.157 232.996 192.497 229.732 187.17L229.119 187.153L234 203.362ZM189.887 256.938L191.083 252.55C192.271 249.124 193.176 245.573 193.794 241.917C194.083 237.45 194.06 232.901 193.723 228.292C193.58 225.493 193.243 222.536 192.992 219.651C192.832 217.912 192.629 216.137 192.586 214.44C192.403 210.75 192.435 207.237 192.506 203.648C192.369 198.715 190.165 193.504 186.288 188.949C185.694 188.26 184.958 187.66 184.137 187.195C182.22 186.061 180.57 186.485 178.973 186.817C176.526 187.288 176.077 187.806 176.747 190.204C177.417 192.6 178.297 194.444 179.039 196.577C181.083 202.536 183.086 208.459 185.167 214.421C185.985 216.751 186.985 219.094 187.89 221.415L188.551 221.579C188.861 221.009 189.089 220.395 189.233 219.748C189.3 219.294 188.927 218.695 188.909 218.17C188.808 211.538 186.761 204.579 182.949 197.917C182.374 196.858 181.365 195.606 182.475 194.205C182.973 195.206 183.529 196.196 184.139 197.172C187.448 202.177 189.559 207.485 190.311 212.691C190.868 216.897 191.086 221.053 190.961 225.127C191.005 227.173 190.801 229.153 190.924 231.237C191.039 233.717 191.567 236.292 191.513 238.743C191.461 241.194 190.936 243.179 190.612 245.355C190.355 247.076 190.121 248.815 189.923 250.558C189.725 252.3 189.629 254.715 189.396 256.725L189.887 256.938ZM185.611 272.514L183.42 274.668C187.593 271.958 191.501 269.006 195.437 266.104C199.301 262.903 203.663 260.171 208.453 257.951C210.153 257.247 211.832 256.524 213.441 255.718C219.479 252.76 225.496 249.786 231.427 246.74C233.211 246.017 234.739 244.974 235.936 243.661C236.718 242.668 237.892 241.984 239.312 241.696C243.034 240.63 246.753 239.721 250.441 238.494C254.769 237.063 258.955 235.463 263.076 233.81C266.114 232.642 269.167 231.459 272.041 230.103C273.677 229.346 273.622 228.55 272.484 226.844C272.301 226.532 272.056 226.238 271.764 225.981C271.472 225.722 271.138 225.505 270.781 225.342C270.425 225.178 270.053 225.071 269.687 225.026C269.32 224.982 268.968 225.001 268.648 225.083C267.236 225.272 265.845 225.478 264.49 225.766C256.577 227.356 250.154 230.884 242.972 233.419C237.627 235.307 232.857 237.985 227.967 240.432C225.511 241.647 223.084 242.911 220.799 244.345C217.248 246.597 213.834 248.987 210.376 251.341C209.384 252.007 208.463 252.758 207.069 253.818C211.593 252.387 214.171 249.583 218.017 248.163C223.338 245.988 228.227 243.272 233.437 240.818C236.496 239.398 239.475 237.861 242.662 236.625C247.967 234.544 253.37 232.597 258.831 230.749C261.112 229.699 263.79 229.197 266.661 229.28C266.543 230.981 265.084 231.024 264.077 231.356C261.145 232.343 257.999 233.075 255.095 234.112C250.832 235.594 246.631 237.209 242.432 238.824C239.024 240.201 235.644 241.627 232.373 243.141C230.009 244.189 227.688 245.272 225.357 246.401C223.028 247.531 221.094 248.581 218.997 249.713C214.43 252.154 209.959 254.729 205.333 257.148C204.057 257.824 202.787 258.53 201.396 259.086C201.173 259.306 200.248 258.899 199.809 258.595C199.371 258.291 199.651 257.822 199.717 257.447C199.784 257.073 200.06 257.111 200.224 256.95C201.715 255.484 203.204 253.749 204.625 252.12C207.161 249.202 209.654 246.248 212.155 243.326C213.186 241.901 214.401 240.603 215.784 239.449C219.932 236.532 224.181 233.67 228.606 231.138C232.15 229.124 236.152 227.589 239.875 225.825C242.88 224.495 245.991 223.333 249.06 222.056C250.805 221.308 252.58 220.53 254.227 219.647C256.714 218.324 259.043 216.846 261.503 215.473C266.102 212.924 270.866 210.562 275.302 207.826C279.739 205.09 284.473 203.375 287.145 199.28C290.416 197.765 290.556 194.34 291.805 191.604C292.279 190.597 292.349 189.367 290.229 188.201C289.331 188.876 288.495 189.608 287.723 190.394C282.798 195.985 276.805 200.731 269.91 204.501C263.563 207.877 257.537 211.596 251.268 215.089C246.703 217.719 242.081 220.251 237.58 222.935C235.638 224.031 233.804 225.217 231.851 226.439C232.79 226.25 233.675 225.964 234.489 225.588C236.716 224.481 238.872 223.29 241.12 222.202C247.003 219.735 252.529 216.811 257.65 213.457C260.161 211.489 262.948 209.784 265.975 208.369C269.028 206.806 271.916 205.052 274.624 203.116L285.481 196.582C286.117 196.189 286.821 196.039 287.674 197.405L283.704 199.798C281.657 200.998 279.533 202.08 277.536 203.347C274.327 205.342 271.474 207.76 267.995 209.4C264.516 211.04 261.169 213.673 257.66 215.691C255.761 216.823 254.356 218.359 252.285 219.35C248.504 221.173 244.437 222.655 240.519 224.34C238.841 225.062 237.339 226.035 235.596 226.626C231.548 227.839 227.891 229.624 224.737 231.925C223.917 232.73 222.926 232.351 222.366 231.277C223.17 230.485 224.114 230.022 224.813 229.413C227.034 227.577 229.19 225.69 231.389 223.837C231.852 223.383 232.739 223.168 232.912 222.612C234.021 219.2 237.572 216.948 236.696 212.586C236.696 212.586 236.964 212.323 237.411 212.231L237.662 213.455L237.815 214.813L243.114 207.632C241.371 206.21 241.738 205.116 242.542 203.706C244.43 201.292 245.142 198.156 244.565 194.792C243.304 187.498 241.506 180.156 239.182 172.812C236.766 165.826 235.386 158.827 233.596 151.844C233.158 150.146 232.807 148.519 232.582 146.806C231.856 142.568 231.13 138.329 230.499 134.114C230.423 133.569 230.916 133.086 231.168 132.568L231.804 132.792C232.142 133.652 232.407 134.514 232.602 135.373C232.909 137.393 232.997 139.396 233.406 141.392C233.912 143.95 234.951 146.567 235.18 149.087C235.724 154.626 237.966 160.236 239.232 165.8C239.817 168.52 240.574 171.25 241.5 173.977C242.458 176.336 243.167 178.71 243.615 181.066C244.141 183.763 244.841 186.472 245.708 189.183C246.706 185.399 246.546 181.205 245.243 176.95C244.088 171.316 242.387 165.638 241.123 159.995C240.151 156.387 239.833 152.829 239.081 149.159C237.594 141.376 235.997 133.585 234.531 125.819C234.526 125.29 234.328 124.73 233.963 124.216C233.598 123.702 233.084 123.26 232.492 122.949C230.146 124.468 228.549 126.682 227.889 129.33C226.269 137.087 227.057 145.614 230.183 154.154C232.046 159.75 234.23 165.339 236.218 170.929C238.787 177.481 240.463 184.073 241.207 190.551C241.591 195.568 241.44 200.481 240.758 205.228C240.661 205.981 240.585 206.83 239.268 206.693C237.95 206.557 237.772 205.688 237.266 204.792C236.958 204.326 236.589 203.882 236.171 203.471L235.505 203.544C235.216 207.116 234.892 210.686 234.675 214.263C234.632 215.274 234.692 216.18 232.671 215.845L232.311 212.603C231.646 213.229 231.121 213.966 230.754 214.791C227.025 221.59 221.392 227.051 216.729 233.221C214.46 236.224 211.855 238.979 209.485 241.927C207.117 244.874 205.042 248.036 202.559 250.864C199.103 254.105 196.474 257.997 194.781 262.377C194.452 263.12 193.993 263.793 193.418 264.376C193.21 264.753 192.828 265.012 192.341 265.107C191.855 265.203 191.295 265.126 190.766 264.893C192.066 262.067 193.19 259.337 194.596 256.757C196.686 252.884 198.978 249.123 201.19 245.323C204.806 239.021 206.314 231.698 209.065 224.932C210.341 221.711 211.031 218.222 211.113 214.563C211.154 211.621 211.929 208.847 211.632 205.736C210.883 201.138 208.707 196.468 205.336 192.234C204.653 191.567 203.809 191.04 202.908 190.719C202.005 190.397 201.084 190.294 200.254 190.421C198.903 190.821 198.763 191.887 199.4 193.853C199.827 195.01 200.078 196.17 200.142 197.302C200.128 202.653 199.961 208.041 199.844 213.416C199.752 217.066 199.381 220.68 199.665 224.424C199.902 228.584 199.846 232.683 199.495 236.7C199.369 237.648 199.175 238.574 198.917 239.473C199.29 239.39 199.618 239.233 199.877 239.01C200.137 238.789 200.324 238.507 200.425 238.183C201.45 233.656 203.563 229.373 203.642 224.344C203.894 222.02 204.321 219.754 204.92 217.556C205.034 217 205.083 216.42 205.068 215.826C205.019 213.668 204.92 211.522 204.799 209.359L204.3 200.023C204.27 199.355 204.357 198.729 204.388 198.003C205.667 198.215 206.288 198.534 206.345 199.6C206.316 202.257 206.695 204.98 206.515 207.595C206.126 212.077 207.068 216.76 205.881 221.022C205.682 222.163 205.568 223.333 205.543 224.526C205.285 226.675 205.1 228.83 204.675 230.95C203.95 233.712 203.039 236.427 201.933 238.984C201.267 240.721 200.343 242.326 199.498 243.969C199.337 244.321 199.126 244.954 198.887 244.918C196.424 244.438 196.996 246.352 196.427 247.336C195.904 248.861 195.162 250.279 194.213 251.564C193.331 252.594 192.763 253.837 192.543 255.216C191.836 258.143 190.945 260.995 189.871 263.761C189.317 265.08 188.821 266.149 190.853 267.942L188.429 267.654C187.386 269.029 187.928 271.668 184.613 271.057C185.047 271.598 185.294 272.014 185.546 272.461L185.611 272.514ZM227.471 252.254L225.323 253.399C224.151 253.97 223.071 254.645 221.843 255.117C216.251 257.25 210.995 259.829 206.122 262.834C202.059 265.266 198.21 267.926 194.592 270.803C189.78 274.682 185.234 278.803 180.746 282.945C178.197 285.45 175.82 288.096 173.293 290.62C170.764 293.143 167.971 295.851 165.173 298.369C164.546 298.984 163.936 299.585 163.249 300.259C163.663 300.355 163.902 300.47 164.019 300.431L179.339 292.684C179.985 292.439 180.662 292.239 181.365 292.084C183.895 291.582 186.294 290.844 188.526 289.881C193.682 286.668 198.339 282.944 202.437 278.758C205.92 275.566 209.16 272.149 212.529 268.838C215.317 266.097 218.233 263.462 220.877 260.632C223.282 258.035 225.35 255.189 227.561 252.436L227.471 252.254ZM162.98 292.13C160.834 294.24 158.687 296.351 156.556 298.445C155.229 299.749 153.602 300.808 152.152 302.04C150.006 303.801 147.887 305.613 145.716 307.516C144.345 308.864 142.988 310.197 141.251 311.596C144.412 311.082 147.112 309.764 149.066 307.781C151.899 304.997 154.881 302.335 157.871 299.706C162.264 295.89 166.809 292.195 171.16 288.344C173.221 286.512 174.936 284.4 176.81 282.442L175.301 280.676C173.2 282.742 171.187 284.72 169.175 286.698C167.162 288.676 164.927 290.178 162.916 292.077L162.98 292.13ZM137.992 299.712C138.336 298.947 138.558 298.11 138.824 297.308L124.852 320.018C126.465 319.243 127.645 318.703 128.759 318.11C129.165 317.966 129.456 317.68 129.579 317.305C129.907 315.088 130.855 313.11 132.352 311.523C133.685 310.026 134.714 308.311 135.41 306.428C136.015 304.071 136.879 301.824 137.992 299.712ZM142.463 295.316C143.201 293.934 143.996 292.571 144.632 291.133C146.105 287.829 147.476 284.47 148.861 281.175C150.245 277.879 151.711 274.892 152.694 271.565C153.891 267.527 154.674 263.313 155.443 259.113C155.592 257.7 155.531 256.227 155.262 254.729C155.032 252.556 154.706 250.361 154.44 248.186C154.408 247.584 154.332 246.976 154.209 246.362C154.097 245.692 153.728 245.013 153.166 244.436C152.601 243.86 151.876 243.419 151.105 243.186C150.384 242.941 149.653 242.907 149.037 243.088C148.422 243.271 147.959 243.658 147.728 244.185C146.578 246.11 145.709 248.197 145.135 250.409C144.517 253.994 144.22 257.686 144.246 261.456C144.268 268.572 143.678 275.538 142.482 282.3C142.199 283.893 142.019 285.542 141.845 287.143L142.51 287.417C145.07 281.747 147.09 275.805 148.556 269.637C149.88 263.344 148.998 256.591 150.067 250.008C151.857 251.228 151.637 252.335 151.547 253.388C151.473 256.518 151.514 259.689 151.496 262.839C151.465 263.939 151.364 265.019 151.194 266.077C151.017 267.14 150.609 268.122 150.527 269.207C149.724 276.25 147.629 282.848 144.312 288.779C143.039 290.667 142.44 292.944 142.571 295.404L142.463 295.316ZM119.256 322.773C121.703 319.055 123.793 315.113 125.507 310.98C127.113 306.396 128.212 301.587 128.794 296.607C129.216 291.588 130.134 286.546 130.573 281.434C130.812 278.166 130.824 274.835 130.607 271.459C130.35 267.147 129.896 262.835 129.364 258.407C128.942 255.429 128.291 252.424 127.414 249.415C127.06 248.215 126.6 246.578 124.545 246.162C123.316 245.938 122.492 246.981 122.405 249.001C122.149 254.397 121.952 259.814 121.675 265.192C121.323 270.088 121.473 275.118 122.122 280.225C122.225 281.274 122.208 282.302 122.072 283.294L120.389 302.354C120.319 303.019 120.208 303.671 120.056 304.307C119.026 311.171 117.575 317.891 115.71 324.44C115.657 324.832 115.664 325.242 115.727 325.661C117.144 324.921 118.373 323.973 119.378 322.846L119.256 322.773ZM15.2483 410.159C15.0693 410.335 15.2711 410.794 15.3212 411.21C15.728 411.274 16.1786 411.373 16.2014 411.311C16.2633 410.966 16.2862 410.608 16.2683 410.241C16.027 410.285 15.4688 410.098 15.3705 410.232L15.2483 410.159ZM11.4356 409.73C10.0848 409.433 8.71413 409.039 7.35076 408.677C9.14273 409.818 10.7706 411.467 12.987 411.532C13.2518 410.381 12.7424 409.992 11.6175 409.745L11.4356 409.73ZM20.6577 403.605C22.6399 401.656 24.7365 399.826 26.857 397.936C28.9764 396.045 31.1976 394.21 33.3327 392.305C35.4672 390.399 37.5263 388.646 39.4356 386.692C41.3464 384.737 44.2233 383.572 46.3122 381.092C45.4568 380.985 44.6373 381.047 43.9145 381.276C43.1922 381.503 42.5851 381.891 42.1399 382.408C41.0792 383.813 39.6426 384.937 37.9103 385.715C35.9307 386.352 34.3252 387.491 33.25 389.02C32.6247 389.635 31.9978 390.251 31.2235 391.013C30.6421 390.539 30.3312 390.071 29.9309 389.691L30.0053 389.618L33.5811 385.562L33.0216 385.106C31.9963 385.403 31.1731 385.98 30.647 386.771C30.1213 387.562 29.9142 388.534 30.0501 389.574L29.9309 389.691C29.3503 390.263 28.7531 390.849 28.3297 391.575C27.9051 392.301 27.91 393.11 27.398 393.148C24.782 393.321 24.2697 395.45 22.7061 396.561C21.1435 397.673 20.0761 398.76 18.6755 399.789C16.1999 401.604 13.6099 403.299 11.1556 405.131C10.5046 405.749 9.93072 406.428 9.44096 407.164L14.4447 409.208C16.5563 407.364 18.7192 405.51 20.8397 403.619L20.6577 403.605ZM53.625 374.562L54.9803 373.925L54.5542 373.416L53.3681 374.272L53.625 374.562ZM78.4448 363.973C79.751 362.952 81.1676 362.038 82.684 361.237C86.0574 359.43 89.5234 357.726 92.9396 355.954C95.0569 354.839 97.1246 353.656 99.2708 352.592C100.016 352.207 101.334 352.344 101.812 351.795C103.01 350.386 104.944 349.684 106.283 348.444C108.605 346.586 111.375 345.169 114.487 344.25C114.803 344.132 115.352 344.366 116.565 344.604C114.809 345.913 112.825 346.994 110.653 347.825C108.702 348.622 106.916 349.627 105.32 350.822C103.919 352.2 100.606 351.59 100.197 354.312C101.196 353.948 101.96 353.739 102.666 353.431C106.356 351.855 109.915 350.174 113.712 348.685C116.259 347.9 118.353 346.492 119.805 344.593L118.069 341.54C115.994 341.488 113.984 341.647 112.076 342.015C106.479 343.845 101.33 346.311 96.7294 349.365C92.4833 352.069 88.451 355.028 84.2476 357.766C80.8601 359.936 77.2433 361.866 73.7847 363.952C72.809 364.524 72.0351 365.207 71.1086 365.925C73.9399 366.045 76.4855 365.336 78.3592 363.903L78.4448 363.973ZM59.1989 384.982C59.6101 384.496 59.8572 383.901 59.9205 383.241C59.9844 382.582 59.8625 381.876 59.5661 381.178L61.1046 376.803L60.4389 376.528C59.887 377.113 59.5269 377.836 59.3833 378.645C59.2396 379.454 59.3169 380.331 59.6089 381.213C58.9668 382.259 58.7934 383.555 59.1123 384.911L59.1989 384.982ZM62.0186 391.224C63.5202 385.879 66.4534 381.139 65.9446 374.986C65.2919 374.883 64.6849 374.996 64.2428 375.3C63.8014 375.606 63.5579 376.082 63.5594 376.633L60.9566 389.714C60.9292 390.116 60.9667 390.535 61.0688 390.958L62.0186 391.224ZM65.2653 390.547L82.1236 375.715C82.8718 375.075 83.5694 374.39 84.21 373.663C84.8218 373.062 85.1597 372.266 85.793 371.334C85.1337 371.139 84.4713 371.033 83.8296 371.02C79.4895 371.689 75.183 372.44 70.8649 373.127C70.3167 373.218 69.8457 373.445 69.5008 373.784C69.1553 374.124 68.9477 374.564 68.8967 375.061C67.8876 379.923 66.568 384.585 65.3998 389.37C65.3073 389.746 65.2622 390.141 65.2653 390.547ZM56.8162 407.788C55.5755 407.151 54.4861 406.558 53.3607 405.962L52.6317 406.331C52.9606 406.975 53.1462 407.798 53.7058 408.254C54.5521 408.785 55.4613 409.199 56.393 409.48L56.8162 407.788ZM90.5472 388.324L90.6741 388.857C94.5303 389.322 98.365 389.768 102.522 390.13C102.167 388.661 103.335 388.674 104.588 388.758C108.013 388.87 111.278 389.066 114.663 389.335C121.946 389.913 129.029 389.604 136.198 389.714C137.277 389.736 138.486 389.514 139.692 390.418C137.86 391.793 137.157 391.943 123.893 391.635C118.367 391.498 112.746 390.988 107.116 390.605C107.323 390.789 107.562 390.943 107.816 391.058C108.07 391.173 108.336 391.248 108.596 391.277C117.902 392.683 127.153 393.649 136.306 394.172C140.147 394.627 143.778 394.171 146.817 392.852C147.692 392.533 148.407 392.009 148.905 391.324C149.403 390.64 149.669 389.815 149.682 388.914C147.297 387.774 144.781 387.08 142.337 386.891C137.536 386.89 132.758 386.907 127.998 387.02C119.669 387.162 111.416 387.383 103.239 387.684C99.0617 387.923 94.8379 388.206 90.5024 388.368L90.5472 388.324ZM93.9608 379.901C94.6167 380.051 95.2599 380.048 95.8217 379.891C96.3819 379.735 96.8407 379.432 97.1451 379.013C95.4812 378.406 94.8031 379.382 93.916 379.945L93.9608 379.901ZM81.3768 385.965C85.6574 385.355 89.8024 384.607 93.8569 383.678C97.485 382.857 100.913 381.577 104.568 380.885C114.027 379.323 124.334 379.713 134.252 379.17C137.123 379.017 140.054 379.076 142.959 379.006C146.345 378.926 149.761 378.896 153.099 378.67C154.901 378.506 156.642 378.205 158.305 377.768C158.556 377.705 158.772 377.588 158.936 377.425C159.102 377.264 159.212 377.06 159.259 376.831C159.184 376.586 159.048 376.345 158.864 376.125C158.68 375.905 158.45 375.712 158.193 375.559C157.542 375.166 156.836 374.884 156.124 374.729C154.194 374.152 152.255 373.729 150.331 373.462C144.44 372.947 138.508 372.318 132.774 372.307C127.7 372.394 122.749 372.838 117.966 373.633C113.34 374.312 108.932 375.435 104.538 376.543C102.015 377.167 99.6887 378.138 97.2843 378.993C98.0933 379.085 98.881 379.078 99.6269 378.973C107.321 377.491 115.245 376.459 123.352 375.882C126.284 375.592 129.349 375.171 132.364 374.76C136.017 374.147 140.055 374.44 144.09 375.612C143.543 375.926 142.918 376.148 142.238 376.272C138.762 376.439 135.196 376.347 131.789 376.678C125.576 377.294 119.437 378.105 113.277 378.9C109.371 379.412 105.471 379.959 101.634 380.636C97.7963 381.314 93.7199 382.225 89.734 383.049C89.2298 383.097 88.7105 383.103 88.1799 383.069L87.8768 382.554L93.461 380.083C91.6188 380.374 89.8275 380.766 88.0951 381.257C85.3582 382.29 83.0686 383.894 81.3768 385.965ZM92.2586 372.212C92.8002 371.601 93.2892 370.952 93.7242 370.269C92.5238 369.96 91.3415 369.958 90.3281 370.265C89.315 370.57 88.518 371.171 88.0398 371.987C86.6569 373.96 85.0531 375.782 83.2464 377.435C78.2856 382.13 73.2403 386.756 68.1077 391.31C64.2621 394.743 60.2592 398.021 56.3488 401.401C55.5136 402.221 54.2391 402.816 54.7002 404.453C54.9989 404.737 55.3236 405.001 55.6678 405.242C56.402 405.68 57.1809 406.075 58.0319 406.554C58.4797 406.115 58.8817 405.719 59.1407 405.233C61.3413 401.311 64.179 397.782 67.5889 394.722C67.8508 394.432 68.048 394.095 68.1725 393.723C68.7347 392.435 69.4904 391.251 70.4232 390.196C72.8245 388.106 75.4967 386.291 78.1285 384.361C79.8766 383.107 81.7867 382.197 83.2823 380.843C86.4783 378.088 89.3502 375.148 92.2061 372.303L92.2586 372.212ZM89.4333 362.881C83.2332 364.526 77.3344 366.418 71.2088 368.34C70.2984 368.616 69.4735 368.963 68.585 369.257C68.6925 369.344 68.8 369.432 68.7814 369.604L71.4845 369.423L71.8848 370.5L95.6072 367.837C96.7264 367.704 97.8388 367.539 98.9293 367.356C106.245 366.084 113.603 364.846 120.884 363.492C123.595 362.958 126.231 362.29 128.784 361.49C129.158 361.36 129.471 361.149 129.699 360.872C129.927 360.593 130.065 360.256 130.103 359.884C130 359.389 129.7 358.896 129.255 358.493C128.811 358.091 128.252 357.808 127.684 357.697C126.884 357.394 126.063 357.227 125.273 357.205C119.814 357.279 114.452 357.641 109.215 358.29C102.419 359.478 95.9268 361.18 89.4552 362.899L89.4333 362.881ZM144.412 334.445C141.655 334.203 139.043 334.522 136.775 335.376C140.986 335.646 145.101 335.625 149.26 335.907C153.42 336.189 157.661 336.7 161.882 337.193C166.103 337.687 170.099 337.433 174.261 338.952L174.452 339.885C173.799 340.024 173.11 340.092 172.398 340.086C168.677 339.644 164.952 339.179 161.222 338.693C154.738 337.677 148.339 337.286 142.142 337.527C137.979 337.751 134.027 338.309 129.955 338.714L128.315 339.012C129.122 339.43 129.988 339.674 130.823 339.717C137.53 340.281 144.229 340.813 150.922 341.392C157.613 341.97 163.37 342.617 169.515 343.152C171.886 343.251 174.215 343.197 176.485 342.992C177.023 342.967 177.488 342.781 177.809 342.464C178.133 342.147 178.296 341.715 178.274 341.234C178.326 340.716 178.243 340.163 178.03 339.613C177.817 339.063 177.479 338.528 177.038 338.044C176.599 337.56 176.066 337.14 175.478 336.81C174.89 336.479 174.259 336.248 173.628 336.129C173.017 335.952 172.404 335.829 171.798 335.763C167.31 335.454 162.809 335.161 158.341 334.948C153.874 334.737 149.123 334.455 144.412 334.445ZM120.41 332.779C120.046 332.842 119.672 332.886 119.291 332.911L112.707 334.781L113.024 335.28L116.151 334.721C119.433 334.126 122.67 333.496 125.894 332.881C129.116 332.266 132.153 331.873 135.308 331.363C137.652 330.915 139.864 330.173 142.215 329.758C147.869 328.765 153.508 327.707 159.336 327.046C164.326 326.526 169.418 326.258 174.594 326.245C177.23 326.389 179.903 326.696 182.591 327.165C182.449 327.65 182.1 328.032 181.603 328.246C181.106 328.46 180.491 328.494 179.859 328.342C176.78 328.095 173.736 328.013 170.745 328.093C164.19 328.619 157.645 329.366 151.267 330.143C150.865 330.29 150.509 330.496 150.211 330.756C154.478 330.429 158.596 330.249 162.626 330.157C168.253 330.003 173.943 329.978 179.592 329.92C186.056 329.831 192.587 329.795 199.009 329.671C199.898 329.558 200.739 329.342 201.511 329.03L201.286 328.284C197.786 327.136 194.265 326.153 190.743 325.341C187.125 324.816 183.533 324.472 179.982 324.313C173.876 323.836 167.912 323.962 162.203 324.692C155.065 325.519 148.194 326.859 141.173 327.996C133.837 328.734 126.889 330.315 120.485 332.706L120.41 332.779ZM186.251 296.526C186.371 296.408 186.521 296.262 186.624 295.811L183.836 295.225L182.973 293.636C182.359 293.756 181.77 293.921 181.211 294.131C178.217 295.603 175.209 297.091 172.243 298.613C169.632 299.942 167.036 301.256 164.489 302.638C161.405 304.278 158.447 306.103 155.377 307.727C152.771 308.775 150.501 310.247 148.659 312.088C148.059 312.616 147.278 312.972 146.382 313.127C145.376 313.216 144.395 313.366 143.448 313.575C141.226 314.444 139.112 315.67 136.818 316.533C132.942 317.983 130.71 321.338 126.188 321.993C125.931 322.073 125.708 322.201 125.53 322.368C121.538 324.823 117.481 327.225 113.531 329.715C108.506 332.926 103.519 336.178 98.5691 339.471C94.7347 341.887 91.2658 344.675 88.2055 347.802C87.9803 348.138 87.6256 348.38 87.1841 348.497C84.5632 348.558 83.7493 350.441 82.3073 351.705C80.488 353.492 79.7416 356.316 76.2123 356.574C76.1378 356.648 75.9889 356.794 75.8847 356.897C74.6266 358.047 73.2409 359.086 71.7393 360.004C67.3765 362.455 63.5163 365.444 60.2399 368.911C59.9063 369.355 59.652 369.851 59.4848 370.387C59.6571 370.527 59.8513 370.685 60.0235 370.826C60.4809 370.67 60.9086 370.471 61.2985 370.23C64.4671 368.043 67.5078 365.75 70.7269 363.629C73.4796 361.853 76.5541 360.339 79.2186 358.571C85.5329 354.337 91.8045 350.068 97.9768 345.663C98.8197 345.025 99.7234 344.446 100.684 343.93C103.116 342.673 105.669 341.559 108.329 340.594C111.273 339.471 114.607 338.94 118.144 339.028C119.688 339.106 121.203 339.078 122.677 338.945C123.524 338.885 124.095 338.519 123.379 337.559C123.206 337.419 122.938 337.334 122.778 337.337C116.112 337.36 109.757 338.275 103.919 340.054C103.065 340.218 102.169 340.295 101.244 340.285C101.037 338.399 101.094 337.802 102.259 337.546C104.212 336.943 106.014 336.119 107.63 335.09C110.976 333.503 114.522 332.184 117.662 330.296C123.864 326.559 130.401 323.15 136.803 319.604C137.019 319.471 137.253 319.357 137.503 319.264C142.33 317.609 146.841 315.506 150.974 312.984C152.185 312.337 153.473 311.805 154.711 311.206L165.344 305.936C166.258 305.503 167.16 305.004 168.11 304.573L186.251 296.526ZM195.538 287.397L189.251 292.108L189.745 292.511C191.865 290.969 196.313 291.781 195.72 287.411L195.538 287.397ZM246.618 251.302C248.091 249.314 249.385 247.23 250.765 245.139C247.71 242.648 245.192 244.427 242.523 243.377C240.418 244.072 238.53 245.07 236.914 246.336C235.765 247.641 234.516 248.868 233.173 250.014C231.815 251.305 230.553 252.675 229.393 254.117C227.874 255.881 226.398 257.68 224.943 259.497C224.182 260.245 223.925 261.349 223.144 262.078C218.96 265.959 214.647 269.734 210.506 273.65C208.643 275.482 206.995 277.489 205.276 279.411C205.891 279.619 206.163 279.545 206.348 279.402C209.193 277.029 211.967 274.574 214.884 272.287C219.315 268.742 223.925 265.371 228.185 261.686C232.146 258.353 235.805 254.757 239.143 250.916C240.099 250.042 241.145 249.247 242.273 248.535C243.599 249.939 242.642 250.338 242.134 250.916C240.046 252.967 238.218 255.229 236.13 257.28C232.955 260.402 229.766 263.539 226.375 266.484C221.623 270.652 215.767 273.624 212.04 278.602C213.549 277.661 214.951 276.631 216.351 275.602C221.844 271.557 227.295 267.476 232.837 263.497C238.209 260.132 242.879 256.06 246.742 251.377L246.618 251.302ZM210.099 284.069C205.831 284.466 202.22 286.155 199.818 288.876C203.603 287.718 207.093 286.129 210.221 284.143L210.099 284.069ZM238.36 283.366C235.18 282.763 232.044 282.583 229.063 282.835C226.757 282.857 224.335 282.571 222.113 282.742C221.032 282.732 220.021 282.926 219.146 283.313C218.273 283.699 217.555 284.268 217.039 284.985L238.36 283.366ZM227.982 280.532C226.915 280.653 225.917 280.938 224.884 281.141L225.087 281.522C228.298 281.459 231.424 281.327 234.741 281.353C239.881 281.878 244.97 282.134 249.979 282.118C251.042 282.058 252.155 282.152 253.278 282.396C253.722 282.464 254.178 282.943 254.616 283.247L254.57 283.718L240.629 283.072C240.765 283.243 240.941 283.393 241.139 283.508C241.338 283.623 241.553 283.7 241.767 283.732C248.095 284.367 254.488 285.414 260.892 286.864C264.137 287.445 267.367 287.848 270.561 288.075C270.93 288.105 271.282 288.063 271.59 287.954C271.898 287.844 272.157 287.669 272.348 287.441C272.737 286.633 271.809 286.037 270.924 285.475C266.833 282.751 262.131 281.156 257.643 280.969C255.164 280.852 252.619 280.491 250.167 280.233C246.651 279.833 243.165 279.593 239.721 279.515C235.698 279.639 231.864 280.159 227.982 280.532ZM262.348 261.721C260.796 261.827 259.281 262.024 257.812 262.311C256.526 262.716 255.306 263.217 254.162 263.811C255.739 261.022 259.132 260.625 262.254 259.955C261.415 257.608 260.494 257.044 258.294 257.582C252.798 259.092 247.732 261.265 243.214 264.051C237.724 267.242 232.321 270.503 226.832 273.694C224.911 274.808 222.84 275.801 220.765 276.95C222.019 276.933 223.199 276.716 224.251 276.309C226.855 275.295 229.453 274.25 231.987 273.153C236.051 271.401 240.131 269.634 244.146 267.815C246.57 266.708 248.888 265.435 251.306 264.297C251.681 264.12 252.306 264.281 253.021 264.274C251.826 266.571 242.335 271.646 235.422 273.837L230.753 275.874C232.791 275.766 234.872 275.694 235.422 273.837C236.047 273.998 236.761 274.339 237.181 274.199C240.705 273.132 244.236 272.098 247.563 270.762C251.963 268.989 256.148 267.041 260.335 265.093C261.086 264.869 261.68 264.429 262.04 263.828C262.398 263.227 262.506 262.493 262.348 261.721ZM291.858 243.775C291.751 243.675 291.636 243.58 291.514 243.494L280.548 251.683C280.655 251.771 280.784 251.876 280.891 251.964L291.858 243.775ZM299.316 241.627C304.648 236.618 309.472 231.141 315.956 227.126C321.043 223.982 325.631 220.324 330.375 216.82C334.04 213.991 337.505 210.972 341.034 208.006C341.773 207.467 342.325 206.762 342.656 205.937C342.987 205.112 343.089 204.185 342.954 203.217C342.633 201.212 341.71 200.378 339.771 200.969C337.096 201.604 334.621 202.568 332.407 203.837C327.618 207.036 323.113 210.574 318.632 214.051C317.258 215.228 316.02 216.523 314.93 217.922C311.093 222.274 307.371 226.746 303.448 231.027C300.848 233.893 297.903 236.479 295.244 239.324C296.818 238.617 298.24 237.726 299.482 236.668C301.547 234.947 303.563 233.159 305.606 231.421C306.247 230.79 307.125 230.353 307.73 229.72C310.895 226.376 313.925 222.895 317.241 219.674C320.222 216.743 323.526 214.076 326.941 211.337C329.92 208.428 333.776 206.299 338.252 205.093C339.332 207.126 337.751 207.365 336.829 207.846C334.461 208.928 332.213 210.156 330.096 211.524C325.721 214.82 321.517 218.255 317.435 221.843C315.048 223.919 313.092 226.345 310.897 228.657C309.69 229.844 308.725 231.256 307.453 232.39C302.591 236.629 297.254 240.482 293.007 245.276C291.418 246.744 289.643 248.05 287.7 249.178L281.809 253.382C281.63 253.558 281.636 253.939 281.431 254.682C283.48 253.673 285.173 253.016 286.615 252.101C291.242 248.974 295.487 245.473 299.316 241.627ZM287.652 265.201L294.859 267.594C297.365 268.458 299.908 269.246 302.395 270.283C309.362 272.865 315.966 276.718 321.681 281.536C323.018 282.63 324.518 283.544 326.102 284.231C329.285 285.782 331.113 288.319 333.837 290.863C333.16 290.835 332.455 290.652 331.789 290.33C331.124 290.008 330.521 289.558 330.039 289.026C327.954 287.04 325.536 285.342 322.925 284.027C321.593 283.301 320.325 282.456 319.15 281.51C315.975 278.909 312.457 276.682 308.736 274.919C307.067 274.201 305.498 273.189 303.86 272.363C302.922 271.892 301.916 271.527 300.796 271.042C301.021 271.44 301.082 271.651 301.211 271.756C307.221 276.176 313.223 280.643 319.265 284.955C322.104 286.864 324.764 288.998 327.196 291.318C328.48 292.455 329.843 293.521 331.271 294.507C335.839 297.701 340.964 300.039 346.188 301.313C347.253 301.547 348.314 301.684 349.352 301.723C349.485 300.404 349.215 298.984 348.567 297.595C347.92 296.205 346.915 294.888 345.643 293.764C344.033 292.349 342.307 291.039 340.49 289.855C331.592 283.823 322.44 278.148 313.078 272.856C305.037 268.154 296.135 265.474 287.652 265.201ZM292.989 260.652L293.139 261.471C294.042 261.512 294.925 261.534 295.835 261.606C299.127 261.852 302.419 262.097 305.739 262.392C307.414 262.524 309.187 262.871 310.819 262.969C313.201 263.142 315.523 263.025 317.908 263.389C321.514 263.945 325.096 263.595 328.793 265.377C331.531 264.929 334.423 266.457 337.258 266.92C339.358 267.293 341.447 267.521 343.536 267.75C345.625 267.979 347.76 268.086 349.868 268.411C350.767 268.453 351.699 268.674 352.596 269.057C353.493 269.441 354.332 269.977 355.051 270.628C353.987 270.591 353.345 270.603 352.719 270.522C350.997 270.218 349.283 269.992 347.583 269.846C341.161 269.621 334.614 267.739 328.158 266.736C323.519 266.009 318.885 265.303 314.256 264.62C313.801 264.613 313.365 264.664 312.961 264.77C321.633 267.232 330.207 269.48 338.768 271.316C345.383 272.743 352.036 273.746 358.544 274.737C361.364 275.176 364.019 274.796 366.096 273.658C362.878 269.665 359.5 266.293 354.165 265.696C350.061 265.243 345.877 264.753 341.845 264.655C336.815 264.539 331.664 263.934 326.484 262.85C323.667 262.163 320.851 261.659 318.061 261.343C311.499 260.869 304.961 260.604 298.444 260.356C296.526 260.347 294.778 260.556 292.989 260.652ZM325.1 245.874C324.707 246.071 324.361 246.319 324.07 246.615C325.827 246.574 327.526 246.37 329.139 246.004C334.587 244.979 339.734 243.408 344.494 241.315C348.642 239.661 353.098 238.444 357.792 237.683C359.548 237.426 361.22 237.021 362.834 236.594C366.362 235.718 369.799 234.661 373.411 233.934C377.558 233.107 381.832 232.464 386.111 231.932C387.369 231.779 388.616 231.133 390.536 232.109C390.084 232.453 389.571 232.737 389.007 232.954C386.148 233.598 383.255 234.16 380.367 234.755C377.033 235.441 373.693 236.094 370.372 236.844C367.534 237.506 364.852 238.402 361.972 239.028C359.091 239.655 356.944 240.102 354.416 240.615C350.662 241.418 347.107 242.568 343.8 244.048C340.957 245.295 338.059 246.443 335.085 247.664C337.145 247.87 339.176 247.93 341.158 247.845C344.44 247.52 347.591 246.898 350.791 246.344C357.469 245.196 364.118 243.997 370.775 242.831C373.25 242.409 375.731 242.02 378.156 241.532C384.406 240.301 390.663 239.024 396.891 237.776L406.365 235.852C405.793 234.353 404.777 232.913 403.432 231.698C402.087 230.482 400.468 229.54 398.759 228.977C393.967 228.06 389.266 227.951 384.92 228.655C380.966 229.022 377.274 230.059 373.43 230.704C368.477 231.545 363.749 232.813 359.305 234.493C358.62 234.703 357.905 234.863 357.164 234.973C353.484 235.805 349.754 236.57 346.124 237.47C344.692 237.94 343.316 238.491 342.003 239.122L325.1 245.874ZM303.609 250.25C304.803 249.911 306.078 249.708 307.408 249.649C309.141 249.802 309.243 248.464 310.29 247.977C310.408 247.86 310.72 247.98 310.867 247.912C312.194 247.32 313.463 246.654 314.667 245.918C316.459 244.698 318.183 243.235 319.912 241.884C321.596 240.576 323.105 239.286 324.816 238.107C328.828 235.401 332.905 232.747 336.924 230.073C338.123 229.281 339.215 228.401 340.529 227.651C344.338 225.609 348.374 223.807 352.034 221.564C355.031 219.725 358.179 218.05 361.466 216.547C364.56 215.044 367.979 213.958 371.639 213.316C371.963 214.894 370.893 215.094 369.878 215.473C365.754 216.863 361.786 218.478 357.992 220.31C354.493 222.202 351.193 224.363 347.593 226.2C342.356 228.872 337.524 232.036 332.722 235.171C328.814 237.775 325.176 240.654 321.447 243.43C321.187 243.732 320.993 244.08 320.87 244.461C321.043 244.602 321.236 244.759 321.408 244.9C322.862 243.955 324.396 243.093 326.001 242.319C330.182 240.409 333.997 238.059 337.387 235.304C340.756 232.623 344.468 230.269 348.482 228.266C352.446 226.458 356.585 224.981 360.612 223.305C365.708 221.081 370.641 218.669 375.78 216.479C377.035 215.985 378.042 215.186 378.71 214.15C379.379 213.115 379.69 211.877 379.614 210.544C378.594 210.229 377.565 210.04 376.563 209.985C374.296 210.237 372.081 210.606 369.929 211.09C364.033 212.44 358.658 214.646 353.987 217.633C346.826 221.847 339.953 226.322 333.171 230.899C328.625 233.976 324.422 237.411 320.127 240.744C319.933 240.934 320.074 241.453 320.023 241.813C318.836 242.094 317.71 242.477 316.657 242.955C312.763 245.275 309.402 248.191 304.575 249.456C304.215 249.538 304.063 249.843 303.654 250.206L303.609 250.25ZM301.937 252.319L301.719 251.605L299.296 251.666L299.523 252.333L301.937 252.319ZM411.683 257.78C409.791 256.236 407.927 256.405 406.28 256.322C402.43 256.238 398.416 256.316 394.536 256.261C387.224 256.061 379.83 255.554 372.565 255.5C365.301 255.446 358.667 254.888 351.677 254.254C349.671 253.98 347.681 253.817 345.72 253.766C341.574 253.962 337.239 253.565 332.87 252.587C329.737 251.704 326.595 251.261 323.575 251.28C317.184 251.644 310.623 251.44 304.115 251.494C304.203 251.747 304.272 252.002 304.324 252.255C307.196 252.372 310.02 252.342 312.91 252.635C319.133 253.287 325.483 255.169 331.704 255.552C335.217 255.736 338.7 256.218 342.155 256.381C347.314 256.648 352.412 256.704 357.573 256.892C362.734 257.079 367.681 257.361 372.675 257.519L394.613 258.468C396.399 258.531 398.125 258.652 399.984 258.72C400.836 258.772 401.647 259.058 401.826 260.545C386.337 260.298 370.782 259.729 355.16 258.838C359.595 260.008 364.031 260.638 368.331 260.706C376.739 261.183 384.974 261.599 393.376 262.044C397.964 262.342 402.391 262.032 406.512 261.123C408.771 260.641 410.585 259.468 411.683 257.78ZM82.2629 367.918C82.5894 368.023 82.9493 368.21 83.1761 368.18C94.4502 366.151 105.719 364.099 116.984 362.027C117.343 361.962 117.67 361.838 117.947 361.659C117.947 361.659 117.99 361.346 118.045 360.828C117.079 360.729 116.127 360.706 115.202 360.76C111.451 361.275 107.682 361.885 103.899 362.588C96.8828 363.836 89.9014 365.167 82.8922 366.448C81.9838 366.645 81.721 367.02 82.2629 367.918ZM65.4002 338.074C65.4436 337.761 64.6452 337.191 63.7471 336.217C61.8773 342.735 62.7856 349.348 62.0614 355.515C61.9824 356.095 62.4041 356.84 62.6949 357.908C63.2322 357.381 63.5383 357.39 63.5631 357.249C64.2411 350.83 64.8613 344.419 65.4231 338.012L65.4002 338.074ZM123.527 310.759C124.142 308.655 124.62 306.494 124.958 304.284C125.415 302.127 125.721 299.915 125.875 297.659C126.147 291.472 127.912 285.752 127.554 279.373C127.434 277.479 127.707 275.664 127.588 273.769C127.376 270.11 127.102 266.51 126.846 262.894C126.702 261.41 126.487 259.921 126.322 258.418L125.691 258.225C125.343 258.505 125.088 258.862 124.94 259.275C124.595 261.869 124.595 264.566 124.941 267.32C125.849 273.295 125.963 279.156 125.278 284.783C124.975 291.696 123.796 298.348 122.92 305.089C122.682 306.628 122.318 308.123 121.831 309.563C120.695 313.195 119.5 316.806 118.343 320.42L118.967 320.929C119.589 320.492 120.12 319.971 120.547 319.376C121.493 316.473 122.612 313.632 123.551 310.698L123.527 310.759ZM237.773 303.132C243.286 302.053 249.186 301.768 255.277 302.287C257.005 302.426 258.702 302.428 260.347 302.294L260.405 301.618C259.757 301.249 259.029 300.495 258.466 300.545C253.003 300.54 247.545 300.566 242.217 300.697C239.924 300.784 237.804 301.361 235.58 301.611C232.377 301.975 229.133 302.225 225.91 302.491C225.38 302.474 224.884 302.56 224.455 302.741C224.026 302.924 223.673 303.197 223.421 303.545L227.045 304.276C228.159 304.006 229.305 303.796 230.481 303.646C232.848 303.486 235.388 303.465 237.773 303.132ZM46.2836 347.311C46.2836 347.311 45.9367 347.188 45.4371 347.022C44.3133 349.953 43.804 353.158 43.9258 356.515C45.9305 354.235 45.4917 350.874 46.7155 348.279C46.8148 348.065 46.4889 347.612 46.2836 347.311Z" fill="#101A24"/>
</g>
</svg>
